<?xml version="1.0" standalone="no"?>
<!DOCTYPE svg PUBLIC "-//W3C//DTD SVG 20010904//EN"
 "http://www.w3.org/TR/2001/REC-SVG-20010904/DTD/svg10.dtd">
<svg version="1.0" xmlns="http://www.w3.org/2000/svg"
 width="1001.000000pt" height="1001.000000pt" viewBox="0 0 1001.000000 1001.000000"
 preserveAspectRatio="xMidYMid meet">
<metadata>
Created by potrace 1.11, written by Peter Selinger 2001-2013
</metadata>
<g transform="translate(0.000000,1001.000000) scale(0.100000,-0.100000)"
fill="#000000" stroke="none">
<path d="M3886 9768 c-98 -362 -108 -398 -115 -398 -3 1 -42 48 -86 105 -44
57 -83 104 -86 105 -6 0 -156 -249 -267 -443 -24 -42 -47 -79 -51 -81 -4 -3
-7 96 -7 220 1 123 -2 224 -5 224 -3 0 -32 -36 -64 -80 -32 -44 -61 -80 -64
-80 -3 0 -24 17 -46 36 -79 71 -111 99 -131 117 l-21 17 0 -314 c0 -172 -4
-320 -8 -327 -5 -8 -41 -63 -80 -124 -40 -60 -97 -148 -127 -195 -30 -47 -104
-159 -163 -250 -59 -91 -122 -187 -140 -215 -224 -348 -287 -435 -378 -529
l-97 -99 -1 124 0 124 -34 -70 c-19 -38 -59 -126 -89 -194 -30 -68 -60 -129
-68 -136 -7 -6 -48 -27 -90 -45 -43 -18 -78 -34 -78 -35 0 -2 -9 -45 -19 -96
-11 -52 -21 -107 -24 -124 -11 -67 -98 -511 -103 -525 -4 -9 -46 66 -104 180
-101 202 -101 202 -116 115 -11 -67 -13 -77 -29 -155 -19 -95 -22 -107 -41
-210 -18 -93 8 -50 -329 -546 l-62 -91 53 -319 c30 -175 54 -322 54 -326 0 -5
-228 -233 -366 -366 -17 -16 -17 -17 -1 -34 6 -7 48 -53 92 -103 44 -49 83
-92 86 -95 3 -3 22 -24 43 -47 l37 -42 -123 -98 c-68 -54 -125 -100 -128 -103
-3 -3 -50 -41 -105 -85 -55 -44 -110 -89 -122 -100 l-23 -20 155 0 c85 1 155
-1 155 -4 0 -3 -107 -84 -238 -179 -130 -95 -250 -184 -267 -198 -26 -22 -27
-24 -8 -19 94 26 423 101 423 96 0 -3 -21 -46 -47 -97 l-46 -91 46 -60 c26
-32 47 -63 47 -68 0 -4 -38 -47 -84 -94 -165 -169 -254 -266 -251 -271 2 -3
78 -5 169 -5 91 0 166 -3 166 -8 0 -5 -99 -252 -220 -549 -122 -297 -219 -542
-217 -544 3 -4 292 204 482 346 97 72 302 221 323 234 7 4 -32 -53 -85 -127
l-98 -135 -60 -12 c-33 -6 -69 -17 -80 -23 -52 -27 -106 -119 -122 -207 -16
-89 -8 -354 13 -463 2 -10 8 -51 14 -90 31 -213 35 -231 99 -362 32 -66 63
-136 69 -155 11 -34 34 -160 47 -250 3 -25 10 -76 15 -115 12 -81 19 -142 25
-203 3 -23 7 -55 9 -70 5 -29 11 -79 22 -176 3 -33 8 -67 9 -75 2 -9 4 -26 4
-38 l1 -23 4270 0 c2349 0 4270 3 4271 8 0 4 2 16 4 27 2 11 6 40 9 65 3 25 9
83 15 130 6 47 13 110 16 140 3 30 7 66 10 80 4 25 9 56 20 145 3 28 8 66 11
85 13 103 46 265 63 307 10 26 39 89 64 138 54 107 64 141 83 290 3 22 7 51
10 65 33 198 39 275 32 490 -2 65 -44 174 -87 223 -26 29 -44 38 -107 53 l-75
18 -88 120 c-48 67 -91 127 -95 134 -5 8 25 -10 65 -40 41 -30 193 -141 339
-248 146 -107 294 -215 330 -242 36 -26 68 -48 72 -48 4 0 -16 55 -44 123
-115 280 -398 976 -398 980 0 1 75 2 166 2 91 0 168 3 170 7 3 4 -12 25 -33
46 -36 37 -211 220 -276 289 l-29 31 50 62 50 62 -49 96 c-27 52 -48 96 -46
97 1 1 99 -22 217 -50 187 -46 237 -55 219 -42 -2 2 -114 84 -249 182 -135 98
-253 185 -263 194 -16 16 -7 17 134 16 83 0 152 2 154 5 1 3 -107 93 -241 200
-134 107 -244 198 -244 202 0 4 57 71 127 148 71 78 130 146 132 151 2 6 -82
94 -187 197 l-190 187 54 315 c29 173 52 322 50 331 -2 9 -86 137 -186 284
l-183 267 -17 87 c-9 47 -32 166 -50 264 -19 97 -37 174 -41 170 -4 -5 -50
-93 -101 -197 l-94 -188 -17 83 c-55 287 -117 609 -123 642 -7 43 -5 41 -107
87 l-78 35 -85 190 c-47 105 -89 194 -93 198 -5 5 -8 -44 -7 -107 0 -64 -2
-116 -5 -116 -3 0 -48 44 -101 98 -67 68 -124 141 -194 247 -54 83 -103 158
-109 168 -5 9 -82 128 -170 262 -88 135 -193 296 -233 358 -40 61 -97 150
-127 196 l-55 83 0 315 0 315 -96 -86 c-53 -47 -99 -86 -103 -85 -3 0 -33 38
-66 84 l-60 83 -5 -230 -5 -229 -154 261 c-84 143 -157 263 -161 265 -4 3 -45
-42 -91 -100 -46 -57 -87 -101 -90 -97 -4 4 -41 135 -84 292 -43 157 -81 291
-85 298 -6 13 -34 -18 -363 -410 l-82 -96 -35 28 c-19 16 -44 37 -55 47 -11
10 -49 43 -85 73 -36 30 -67 57 -70 60 -43 46 -364 310 -373 307 -7 -3 -145
-120 -308 -260 l-297 -255 -29 31 c-16 18 -65 75 -109 127 -43 52 -87 104 -96
115 -158 190 -202 240 -208 243 -3 1 -32 -93 -64 -210z"/>
</g>
</svg>
