<?xml version="1.0" encoding="utf-8"?>
<!-- Generator: Adobe Illustrator 23.0.3, SVG Export Plug-In . SVG Version: 6.00 Build 0)  -->
<svg version="1.1" id="Layer_1" xmlns="http://www.w3.org/2000/svg" xmlns:xlink="http://www.w3.org/1999/xlink" x="0px" y="0px"
	 viewBox="0 0 594.2 895.6" style="enable-background:new 0 0 594.2 895.6;" xml:space="preserve">
<style type="text/css">
	.st0{fill:#414042;}
	.st1{fill:#3E3D3F;}
	.st2{fill:url(#SVGID_1_);}
	.st3{fill:#DFB69C;}
	.st4{fill:#D39F7C;}
	.st5{opacity:0.15;fill:url(#SVGID_2_);enable-background:new    ;}
	.st6{fill:#E1BBA3;}
	.st7{opacity:5.000000e-02;fill:#231F20;enable-background:new    ;}
	.st8{opacity:7.000000e-02;fill:#414042;enable-background:new    ;}
	.st9{opacity:8.000000e-02;fill:#414042;enable-background:new    ;}
	.st10{fill:#D7A79F;}
	.st11{fill:#F0F0F0;}
	.st12{fill:#654042;}
	.st13{fill:url(#SVGID_3_);}
	.st14{fill:#C59F81;}
	.st15{fill:#E5C5B1;}
	.st16{fill:#8A6D51;}
	.st17{fill:#F1F2F2;}
	.st18{fill:none;}
	.st19{fill:#FFFFFF;}
	.st20{opacity:0.5;fill:#CEEDF5;enable-background:new    ;}
	.st21{fill:url(#SVGID_4_);}
	.st22{opacity:0.2;fill:#C17846;enable-background:new    ;}
	.st23{opacity:0.2;fill:#231F20;enable-background:new    ;}
	.st24{opacity:0.15;fill:url(#SVGID_5_);enable-background:new    ;}
	.st25{fill:#DCB2A9;}
	.st26{fill:url(#SVGID_6_);}
	.st27{fill:#E6B497;}
	.st28{fill:url(#SVGID_7_);}
	.st29{fill:url(#SVGID_8_);}
	.st30{opacity:0.15;fill:#231F20;enable-background:new    ;}
	.st31{fill:#594A42;}
	.st32{opacity:5.000000e-02;}
	.st33{fill:#231F20;}
	.st34{fill:#444345;}
</style>
<g>
	<title>Site Header</title>
	<g>
		<polygon class="st0" points="588.6,415 567.6,393 573.6,385.5 567.6,373.5 594.6,380 561.6,355.8 581.1,355.8 551.1,331.6 
			567.6,313.5 544.6,291 551.1,252 528.7,219 522.6,187.5 510.6,211.5 501.6,165 491.2,160.5 480.5,136.5 480.5,151.5 468.6,139.5 
			440.2,96 420.7,66 420.7,28.5 408.9,39 401.2,28.5 401.2,57 381.7,24 370.9,37.5 360.7,0 334.2,31.5 297.6,0 260.9,31.5 234.5,0 
			224.2,37.5 213.5,24 194,57 194,28.5 186.3,39 174.5,28.5 174.5,66 155,96 126.5,139.5 114.7,151.5 114.7,136.5 103.9,160.5 
			93.5,165 84.5,211.5 72.5,187.5 66.5,219 44,252 50.5,291 27.6,313.5 44,331.6 14,355.8 33.5,355.8 0.5,380 27.6,373.5 
			21.5,385.5 27.6,393 6.5,415 27.6,415 0.5,481.5 50.5,445 71,438.1 84.9,430.9 200.5,250.5 297.6,211.5 394.7,250.5 510.2,430.9 
			524.1,438.1 544.6,445 594.6,481.5 567.6,415 		"/>
		<path class="st1" d="M293.6,84.1c-1.1,2.3-7.2,10.7-8.8,12.7c-2.2,2.8-4.5,5.5-6.2,8.7c-1.5,2.7-2.7,5.5-3.9,8.3
			c-0.2-0.6-0.1-1.4-0.1-2c0-0.9,0.1-1.9,0-2.8c-1.2,0-2.2,1.8-2.8,2.7c-0.5,0.6-1,1.2-1.4,2c-0.3,0.5-0.4,1.3-1.1,1.3
			c-2.7-3.7-3-8-2.9-12.4c-1.4,1.9-2.7,3.9-3.5,6.1c-1.2,3.1-1.9,6.4-3,9.5c-0.6,1.9-2.1,7-4.9,6.7c-1.4-0.1-2.3-1.7-2.9-2.7
			c-1.2-1.9-2.1-4.1-3-6.1c-1.2,2.9-2.5,5.7-3.8,8.6c-1,2.2-2.1,4.9-3.8,6.6c-2.5,2.6-3.9-3.2-4.5-4.8c-2.3,10.4-4.7,20.9-8.6,30.8
			c-0.4,1.1-3,7.7-4.2,3.9c-0.7-2.2-0.6-4.7-0.7-6.9c-0.1-3.6,0-7.2,0-10.8c-1.5,2.9-3.5,5.5-4.9,8.5c-2.7,5.6-5.6,11.2-9.2,16.2
			c-1.2-0.5-1.5-3-1.6-3.9c-0.3-2.4,0-4.8,0-7.2c0-0.5,0-1-0.2-1.4c-0.7,1-1.4,1.9-2.4,2.7c-1.1,1-2.4,1.7-3.4,2.9
			c-1.7,2.2-2.6,5-3.8,7.5c-1.8,3.7-3.9,7.1-6.1,10.5c-0.8-1.5-0.9-2.2-0.9-4c0-3.9,0.5-7.9,0.2-11.7c-2.2,2-4.3,4-6.1,6.4
			c-1.5,1.9-3.3,3.6-5,5.4c-0.8,0.8-1.6,1.7-2.5,2.4c-1,0.8-2.2,1.2-3.3,1.8c-3.8,2-7.5,4.3-11.2,6.5c-4.3,2.5-8.7,4.8-13.4,6.6
			c-5.8,2.3-12,1.6-17.3,5.1c1.6,0.6,3.3-0.2,5,0.3c1.5,4.8-4,10.4-1.8,15c4.6,0.2,8.7,0.8,13.1,2.2c-3.4,4.2-6.9,8.3-10.9,12
			c-2.1,1.9-6.1,4.3-7.2,7c-0.8,2.2,0.5,2.6,1.3,4.4c1,2.5-0.4,4-2,6c-2.1,2.5-5.4,5-6.5,8.2c-0.7,2.1-0.3,3.8-1.6,5.8
			c-3.7,5.8-9.6,10.4-14.1,15.6c-2.6,3.1-9.7,10.1-7.6,14.8c1.3,2.8,4.8,2.7,5.3,6.2c0.9,5.6-2.7,12.7-3.9,18.1
			c-1.1,5.3-1.5,10.4-0.3,15.7c0.8,3.6,0.5,6-1.1,9.3c-3.9,8.1-9.8,14.7-14.8,22.1c-2.8,4.2-2.7,8.5,1.3,11.7
			c-1,8.6-4.2,23.5,3.3,30.3c7.8,7.2,15-5.5,17.2-11.6c6-16.5,6.7-34.4,12.4-51.1c7.5-21.9,21.4-40.5,36.6-57.6
			c14.8-16.7,30.5-33.8,48.3-47.4c15.5-11.8,32.7-17.3,51.7-20.5c12.3-2,29.5-2.7,40.3-10.9c10.7,8.2,28,8.9,40.3,10.9
			c19,3.1,36.3,8.7,51.7,20.5c17.8,13.6,33.5,30.6,48.3,47.4c15.2,17.2,29,35.8,36.6,57.6c5.7,16.6,6.5,34.6,12.4,51.1
			c2.2,6,9.3,18.7,17.2,11.6c7.4-6.8,4.3-21.7,3.3-30.3c4-3.2,4.1-7.5,1.3-11.7c-4.9-7.4-10.9-14-14.8-22.1
			c-1.6-3.4-1.9-5.8-1.1-9.3c1.2-5.3,0.9-10.4-0.3-15.7c-1.2-5.4-4.8-12.5-3.9-18.1c0.6-3.5,4.1-3.4,5.3-6.2
			c2.2-4.7-4.9-11.8-7.6-14.8c-4.5-5.2-10.4-9.8-14.1-15.6c-1.3-2-0.9-3.7-1.6-5.8c-1.1-3.2-4.4-5.7-6.5-8.2c-1.7-2-3.1-3.5-2-6
			c0.8-1.9,2.1-2.2,1.3-4.4c-1-2.8-5.1-5.1-7.2-7c-4-3.7-7.4-7.8-10.9-12c4.4-1.4,8.5-2,13.1-2.2c2.2-4.6-3.4-10.1-1.8-15
			c1.7-0.5,3.4,0.3,5-0.3c-5.3-3.5-11.5-2.8-17.3-5.1c-4.6-1.8-9.1-4.1-13.4-6.6c-3.7-2.2-7.4-4.5-11.2-6.5
			c-1.1-0.6-2.3-1.1-3.3-1.8c-0.9-0.7-1.7-1.6-2.5-2.4c-1.7-1.8-3.5-3.4-5-5.4c-1.8-2.3-3.9-4.4-6.1-6.4c-0.3,3.9,0.2,7.9,0.2,11.7
			c0,1.7-0.1,2.5-0.9,4c-2.3-3.4-4.4-6.8-6.1-10.5c-1.2-2.5-2.1-5.3-3.8-7.5c-0.9-1.2-2.2-2-3.4-2.9c-0.9-0.8-1.7-1.7-2.4-2.7
			c-0.3,0.4-0.2,0.9-0.2,1.4c0,2.4,0.3,4.8,0,7.2c-0.1,1-0.5,3.4-1.6,3.9c-3.6-5.1-6.5-10.6-9.2-16.2c-1.4-3-3.4-5.6-4.9-8.5
			c0.1,3.6,0.1,7.2,0,10.8c-0.1,2.2,0,4.8-0.7,6.9c-1.2,3.8-3.8-2.8-4.2-3.9c-3.9-9.9-6.3-20.4-8.6-30.8c-0.6,1.6-2,7.4-4.5,4.8
			c-1.7-1.8-2.8-4.4-3.8-6.6c-1.3-2.8-2.6-5.7-3.8-8.6c-0.9,2.1-1.8,4.2-3,6.1c-0.6,1-1.6,2.5-2.9,2.7c-2.8,0.3-4.2-4.8-4.9-6.7
			c-1.1-3.2-1.8-6.4-3-9.5c-0.9-2.2-2.2-4.2-3.5-6.1c0.1,4.4-0.3,8.8-2.9,12.4c-0.6,0-0.8-0.8-1.1-1.3c-0.4-0.7-0.9-1.3-1.4-2
			c-0.7-0.8-1.6-2.7-2.8-2.7c-0.1,0.9,0,1.9,0,2.8c0,0.6,0.2,1.4-0.1,2c-1.3-2.8-2.4-5.7-3.9-8.3C312.2,102.4,295.8,86.9,293.6,84.1
			"/>
		
			<linearGradient id="SVGID_1_" gradientUnits="userSpaceOnUse" x1="409.8593" y1="10.4" x2="409.8593" y2="699.7006" gradientTransform="matrix(1 0 0 -1 0 896)">
			<stop  offset="0" style="stop-color:#E3AC8B"/>
			<stop  offset="1" style="stop-color:#E6CBB3"/>
		</linearGradient>
		<path class="st2" d="M297.6,885.6c0,0,26.6-3.4,41.6-9.1c14.9-5.7,23.6-11.9,53.7-44.6c30.1-32.7,57.1-60.6,76.5-87.4
			c19.4-26.8,36.8-45.5,42.8-74.7s9-77.1,9.8-110c0,0,0.6-11.5-0.9-34.2c-1.6-22.8-9.9-91.1-14.3-108c-4.3-16.9-9.4-34.5-11.8-47.4
			s-10.6-71.2-21.4-90.3c-10.8-19.2-83.1-69.5-106.3-76.6c-23.1-7.2-69.6-7-69.6-7L297.6,885.6L297.6,885.6z"/>
		<path class="st3" d="M341.9,503.5c0,0,36.8,42.2,80.5,40.1c43.7-2.1,64.2-41.7,64.2-41.7"/>
		<path class="st4" d="M516.6,449l-7.7-1.1l-12.1,3.6L489,473l0,0l-10.7,19.6l-3.4,3.3l-11,7.8l-20.4,4.8h-18.4l-41.2-2.3l-34.9-3.8
			l-12.9-6.1c0,0,5,8.6,12.9,12.1c0,0,97.1,30,137.6-6.6c0,0,3.5-5.3,6.5-13.4c0.1-0.1,0.1-0.1,0.2-0.2c0.1-0.6,0.3-1.1,0.4-1.7
			c0.3-1.1,0.6-2.2,0.9-3.4c7.7-27.5,22.9-19.5,22.9-19.5L516.6,449z"/>
		
			<linearGradient id="SVGID_2_" gradientUnits="userSpaceOnUse" x1="-315.6905" y1="159.4537" x2="-173.5749" y2="235.0178" gradientTransform="matrix(-1 0 0 -1 165.5547 896)">
			<stop  offset="0" style="stop-color:#231F20"/>
			<stop  offset="0.163" style="stop-color:#51413A;stop-opacity:0.837"/>
			<stop  offset="0.3695" style="stop-color:#856756;stop-opacity:0.6305"/>
			<stop  offset="0.5635" style="stop-color:#AE856D;stop-opacity:0.4365"/>
			<stop  offset="0.7392" style="stop-color:#CB9A7E;stop-opacity:0.2608"/>
			<stop  offset="0.8905" style="stop-color:#DDA787;stop-opacity:0.1095"/>
			<stop  offset="1" style="stop-color:#E3AC8B;stop-opacity:0"/>
		</linearGradient>
		<path class="st5" d="M392.9,831.8c30.1-32.7,57.1-60.6,76.5-87.4c19.4-26.8,36.8-45.5,42.8-74.7c6-29.2,9-77.1,9.8-110
			c0,0,0.6-11.5-0.9-34.2c-0.3-3.8-1.3-15-1.3-15l-140.2,198l-81.9,30.4v146.6c0,0,26.6-3.4,41.6-9.1
			C354.1,870.7,362.8,864.5,392.9,831.8z"/>
		<path class="st3" d="M339.5,420.8c6.2-50.3,61-70.9,93.7-56.7c0,0,60.8,12.4,52.7,55.6c-32.9-8-76.1-8.4-76.1-8.4l-47.4,2.2
			L339.5,420.8z"/>
		<path class="st6" d="M318.2,590.9c0,0,18.9,3.4,31.1-5.5s-3.7-14.5-3.7-14.5l-25.9,6.7L318.2,590.9z"/>
		<path class="st7" d="M354.7,586.9c0,0-31.9,31.3-57.1,31.3v-26.4l30.8-16.3l19.8,0.5L354.7,586.9z"/>
		<path class="st8" d="M297.6,595.6c0,0,13.5-1.8,34.9,3.6s66.8,35.4,66.8,35.4s23.2,28.1-9.8,27.1c-30.3-19.1-37.1-20.4-37.1-20.4
			l-35.4-2l-19.4,2V595.6z"/>
		<path class="st9" d="M297.6,783.4c0,0,25.3-7.9,30-13.2s10.5-33.1,10.5-33.1h-40.5V783.4z"/>
		<polygon class="st0" points="375,680.9 297.6,685.4 297.6,714.5 363.8,714.4 379.4,699.1 		"/>
		<path class="st0" d="M348.5,577.1c1.1,3.8-4.1,8.6-11.5,10.7c-7.4,2.1-14.3,0.7-15.4-3.2c-1.1-3.8,4.1-8.6,11.5-10.7
			C340.6,571.8,347.4,573.2,348.5,577.1z"/>
		<path class="st10" d="M373.2,669.4c2.3,2.9,1.3,14.4,1.3,14.4s-0.1,11.3-4.1,15.7l12.4-4l5.7-13l-0.9-15.8
			C387.6,666.7,370.9,666.5,373.2,669.4z"/>
		<polygon class="st10" points="297.6,653.5 348.5,653.5 381.5,664.1 382.2,669.8 297.6,666.7 		"/>
		<polygon class="st11" points="351.7,707.7 350.7,706.6 339.6,706.6 338,708.5 338,714.5 351.7,710.6 		"/>
		<polygon class="st11" points="365.4,707.2 364.3,706.1 353.3,706.1 351.7,708 351.7,714 365.4,710 		"/>
		<polygon class="st12" points="341.9,685.1 333.6,710.3 297.6,715.6 297.6,681.3 		"/>
		<polygon class="st11" points="338,708.7 337,707 326,707 324.4,710 324.4,719.4 338,714.9 		"/>
		<polygon class="st11" points="324.4,709.6 323.8,708.1 317.8,708.1 316.9,710.8 316.9,720.8 324.4,719.3 		"/>
		<polygon class="st11" points="316.9,709.6 316.2,708.1 308.8,708.1 307.8,710.8 307.8,720.8 316.9,719.3 		"/>
		<polygon class="st11" points="307.8,710.3 307,708.5 298.8,708.5 297.6,711.6 297.6,722.7 307.8,722.7 		"/>
		
			<linearGradient id="SVGID_3_" gradientUnits="userSpaceOnUse" x1="544.5669" y1="244.9" x2="544.5669" y2="434.0836" gradientTransform="matrix(1 0 0 -1 0 896)">
			<stop  offset="0" style="stop-color:#ECC7B1"/>
			<stop  offset="1" style="stop-color:#E6CBB3"/>
		</linearGradient>
		<path class="st13" d="M521.8,486.1c0,0,7.5-32.6,43.4-22.1c14.3,8.8,6.1,41.9,5,52.4c-1.1,10.5-5.5,14.3-8.8,23.2
			s-8.9,66.9-10.5,75.1c-1.6,8.2-3.3,19.3-6.1,24.8S531,651.1,531,651.1h-15.4L521.8,486.1z"/>
		<path class="st14" d="M528.4,582.1c0,0.1,0,0.1,0,0.2c-0.1,0.9-0.1,1.8-0.2,2.7c0,0.6-0.4,2.2-0.2,2.7c1.4,2.8,4.7,1.4,6.8,0.2
			c1.1-0.7,2-2.1,2.8-3c0.9-1,1.8-2,2.7-3.1c3.1-4,5.2-8.5,6.2-13.5c0.5-2.8,0.7-5.6,0.7-8.4c0-3-0.3-6-0.2-9
			c0.3-8.9,1.9-17.6,4.2-26.3c1.5-5.6,4.9-13.4,2.5-19.3c-2-5.1-8.5-6.3-13.2-7.5l-0.1,0.5c-0.2,0.9-0.4,1.9-0.5,2.8
			c-0.3,1.7-0.5,3.4-0.8,5.1c-0.4,2.7-0.8,5.4-1.1,8.1c-0.5,3.4-1,6.9-1.5,10.3c-0.6,3.7-1.2,7.4-1.8,11.1
			c-0.6,3.6-1.3,7.2-1.9,10.7c-0.6,3.4-1.2,6.7-1.7,10.1c-0.5,3.3-1,6.6-1.4,10c-0.4,3.5-0.7,6.9-1,10.4
			C528.6,578.7,528.5,580.4,528.4,582.1z"/>
		<path class="st0" d="M339.7,365.1c0-0.2,0.1-0.4,0.2-0.6c1.2-3.8,5-7.8,8.2-10.1c12.5-9,24.4-12.7,38.7-11.6
			c6.4,0.5,12.7,1.6,18.9,3c18.2,4,38.1,11.1,53.6,21.6c7.7,5.3,14.9,12,19.6,20.2c0.3,0.6,1.1,3,1.7,3.3c0,0-79.4-46.2-119.4-18
			C355.4,376.9,337.4,374.2,339.7,365.1z"/>
		<polygon class="st0" points="534.2,464.4 544.6,502.3 540.2,590.4 535.7,570.9 534.2,594.9 530.1,585.2 515.7,611 519,562.2 
			513.7,459.2 		"/>
		<path class="st15" d="M458.2,417.5c-18.6-1.5-27.4-2.2-47.8-2.4c-20.4-0.2-62.1,2.8-76.7,10.3c-11.3,10.2-7.3,19.5-3,37.8
			c1,4.3,1.9,8.4,3.1,12.1c6.2-9.1,3.8-40.2,46.7-45.9l15.7-2.5c0,0,26-4.8,89.3,6.6C480.9,421.3,470.4,418.2,458.2,417.5z"/>
		<path class="st16" d="M417,442.2c-2,9.8-7.9,8.1-17.7,8.1s-16.2,2.5-17.7-8.1c-1.4-10.1,5-18.5,17.7-18.5S419,432.1,417,442.2z"/>
		<path class="st0" d="M444.5,438.5c-24.7-9.1-33-11.7-48.8-11c-20.1,0.9-41.6,19.2-41.6,19.2s17-28.7,55.7-22.7
			C409.8,424.1,425.6,425.9,444.5,438.5z"/>
		<path class="st0" d="M373.8,449.2c0,0,39.6,5.2,67.7-7.3c0,0-5.9,8.6-31.8,10.8C383.7,454.8,373.8,449.2,373.8,449.2z"/>
		<path class="st17" d="M297.6,687.7c0,0,2.3,1.3,2.8,1.3c0.3,0,2.3,0,4.5,0s4.5,0,4.9,0c0.8,0,2.8-1.3,2.8-1.3v-20.4l-15-0.5
			L297.6,687.7L297.6,687.7z"/>
		<path class="st11" d="M312.6,687c0,0,2.3,1.2,2.8,1.2c0.3,0,2.3,0,4.5,0s4.5,0,4.9,0c0.8,0,2.8-1.2,2.8-1.2v-19.2l-15-0.5
			L312.6,687L312.6,687z"/>
		<path class="st17" d="M327.6,686.2c0,0,1.8,1.2,2.3,1.2c0.2,0,1.9,0,3.6,0c1.8,0,3.6,0,3.9,0c0.7,0,2.3-1.2,2.3-1.2v-18l-12.1-0.5
			L327.6,686.2L327.6,686.2z"/>
		<path class="st11" d="M339.6,685.5c0,0,1.8,1.1,2.3,1.1c0.2,0,1.9,0,3.6,0c1.8,0,3.6,0,3.9,0c0.7,0,2.3-1.1,2.3-1.1v-17.6
			l-12.1,0.3L339.6,685.5L339.6,685.5z"/>
		<path class="st17" d="M351.7,684.4c0,0,1.8,1.1,2.3,1.1c0.2,0,1.9,0,3.6,0c1.8,0,3.6,0,3.9,0c0.7,0,2.3-1.1,2.3-1.1v-16l-12.1-0.5
			L351.7,684.4L351.7,684.4z"/>
		<path class="st11" d="M363.8,683.8c0,0,1.6,1.1,2.1,1.1c0.2,0,1.7,0,3.2,0c1.6,0,3.2,0,3.5,0c0.6,0,2.1-1.1,2.1-1.1
			s0.8-8.6,0-12.7c-0.8-4.1-10.9-2.8-10.9-2.8L363.8,683.8L363.8,683.8z"/>
		<line class="st18" x1="297.6" y1="666.7" x2="372.6" y2="666.7"/>
		<path class="st0" d="M406.7,438.1c0,4.1-3.3,7.4-7.4,7.4s-7.4-3.3-7.4-7.4s3.3-7.4,7.4-7.4S406.7,434,406.7,438.1z"/>
		<path class="st19" d="M397.9,435c0,2.2-1.8,4-4,4s-4-1.8-4-4s1.8-4,4-4S397.9,432.8,397.9,435z"/>
		<path class="st20" d="M410.3,415.1c-20.4-0.2-62.1,2.8-76.7,10.3c-11.3,10.2-7.3,19.5-3,37.8c4.2,18.2,6.3,31.5,39.2,35.7
			c33,4.1,59.5,5.9,85,0.3c0,0,31-3.8,32.1-43c3.4-31.6-10.9-37.7-28.7-38.7C439.6,416,430.8,415.3,410.3,415.1z"/>
		
			<linearGradient id="SVGID_4_" gradientUnits="userSpaceOnUse" x1="501.7335" y1="10.4" x2="501.7335" y2="699.8006" gradientTransform="matrix(-1 0 0 -1 687.0742 896)">
			<stop  offset="0" style="stop-color:#E3AC8B"/>
			<stop  offset="1" style="stop-color:#E6CBB3"/>
		</linearGradient>
		<path class="st21" d="M297.6,885.6c0,0-26.6-3.4-41.6-9.1c-14.9-5.7-23.6-11.9-53.7-44.6c-30.1-32.7-57.1-60.6-76.5-87.4
			C106.4,717.6,89,699,83,669.7c-6-29.2-9-77.1-9.8-110c0,0-0.6-11.5,0.9-34.2c1.6-22.8,9.9-91.1,14.3-108
			c4.3-16.9,9.4-34.5,11.8-47.4s10.6-71.2,21.4-90.3c10.8-19.2,83.1-69.5,106.3-76.6c23.1-7.2,69.6-7,69.6-7v689.4H297.6z"/>
		<g>
			<path class="st22" d="M220.4,714.5l77.2,12.3v35.7C297.6,762.6,250,760.2,220.4,714.5z"/>
			<path class="st22" d="M374.7,714.5l-77.2,12.3v35.7C297.6,762.6,345.1,760.2,374.7,714.5z"/>
		</g>
		<path class="st23" d="M120.7,281.7c-0.3,0.6-0.6,1.2-0.9,1.9c0,0.1-0.1,0.1-0.1,0.2c-0.3,0.6-0.6,1.3-0.9,2c0,0.1-0.1,0.2-0.1,0.2
			c-0.3,0.7-0.5,1.4-0.8,2.1c0,0.1-0.1,0.2-0.1,0.3c-0.3,0.7-0.5,1.5-0.8,2.2c0,0.1-0.1,0.2-0.1,0.3c-0.3,0.8-0.5,1.5-0.8,2.3
			c0,0.1-0.1,0.2-0.1,0.4c-0.3,0.8-0.5,1.6-0.8,2.4c0,0.1-0.1,0.3-0.1,0.4c-0.3,0.8-0.5,1.7-0.7,2.6c0,0.1-0.1,0.3-0.1,0.4
			c-0.2,0.9-0.5,1.8-0.7,2.7c0,0.1-0.1,0.2-0.1,0.4c-0.2,0.9-0.5,1.9-0.7,2.8c0,0.1,0,0.2-0.1,0.3c-0.2,1-0.5,2-0.7,2.9
			c0,0.1,0,0.1,0,0.2c-0.2,1-0.5,2.1-0.7,3.1c0,0,0,0,0,0.1c-0.8,3.3-1.5,6.6-2.2,9.9c0,0,0,0,0,0.1c-0.2,1.1-0.5,2.2-0.7,3.3
			c-3.9,19.4-6.8,38.3-8,45c-2.4,12.9-7.5,30.5-11.8,47.4s-12.7,85.2-14.3,108c-1.6,22.8-0.9,34.2-0.9,34.2c0.1,5.9,0.4,12.3,0.6,19
			l5.2,21.9l10.5-146l7.8-43.1l17.4-95.8c54.7-78.1,122.9-106.9,182.9-106.9c60.9,0,129.8,28.8,184.7,107.1l18,99.4l7.1,39.1
			l10.5,146l3-12.6c0.5-10,0.9-19.6,1.1-28.1c0,0,0.6-11.5-0.9-34.2c-1.6-22.8-9.9-91.1-14.3-108c-4.3-16.9-9.4-34.5-11.8-47.4
			c-1.3-7.1-4.5-28.2-8.8-48.9c-0.9-4.1-1.8-8.2-2.7-12.1c0-0.1,0-0.1,0-0.2c-0.2-0.9-0.5-1.9-0.7-2.8c0-0.1,0-0.1,0-0.2
			c-0.2-0.9-0.5-1.9-0.7-2.8c0,0,0,0,0-0.1c-0.5-1.8-1-3.6-1.5-5.4c0-0.1-0.1-0.2-0.1-0.3c-0.2-0.8-0.5-1.6-0.7-2.4
			c0-0.1-0.1-0.2-0.1-0.4c-0.2-0.8-0.5-1.5-0.7-2.3c0-0.1-0.1-0.2-0.1-0.3c-0.2-0.8-0.5-1.5-0.8-2.2v-0.1c-0.3-0.7-0.5-1.4-0.8-2.1
			c0-0.1-0.1-0.1-0.1-0.2c-0.3-0.7-0.5-1.3-0.8-1.9c0-0.1-0.1-0.2-0.1-0.3c-0.2-0.6-0.5-1.2-0.8-1.8c0-0.1-0.1-0.2-0.1-0.3
			c-0.3-0.6-0.5-1.1-0.8-1.6c0-0.1-0.1-0.1-0.1-0.2c-0.3-0.5-0.6-1.1-0.8-1.6c-10.8-19.2-83.1-69.5-106.3-76.6
			c-23.1-7.2-69.6-7-69.6-7s-46.5-0.2-69.6,7s-95.4,57.5-106.3,76.6C121.4,280.4,121.1,281,120.7,281.7
			C120.8,281.6,120.8,281.7,120.7,281.7z"/>
		<path class="st3" d="M109.7,503.5c0,0,36.8,42.2,80.5,40.1c43.7-2.1,64.2-41.7,64.2-41.7"/>
		<path class="st4" d="M78.6,449l7.7-1.1l12.1,3.6l7.8,21.6l0,0l10.7,19.6l3.4,3.3l11,7.8l20.4,4.8H170l41.2-2.3l34.9-3.8l12.9-6.1
			c0,0-5,8.6-12.9,12.1c0,0-97.1,30-137.6-6.6c0,0-3.5-5.3-6.5-13.4c-0.1-0.1-0.1-0.1-0.2-0.2c-0.1-0.6-0.3-1.1-0.4-1.7
			c-0.3-1.1-0.6-2.2-0.9-3.4c-7.7-27.5-22.9-19.5-22.9-19.5L78.6,449z"/>
		<path class="st3" d="M255.7,420.8c-6.2-50.3-61-70.9-93.7-56.7c0,0-60.8,12.4-52.7,55.6c32.9-8,76.1-8.4,76.1-8.4l47.4,2.2
			L255.7,420.8z"/>
		<path class="st6" d="M276.9,590.9c0,0-18.9,3.4-31.1-5.5c-12.2-8.9,3.7-14.5,3.7-14.5l25.9,6.7L276.9,590.9z"/>
		<path class="st7" d="M240.7,586.9c0,0,31.7,31.3,56.9,31.3v-26.4L267,575.4l-19.8,0.5L240.7,586.9z"/>
		
			<linearGradient id="SVGID_5_" gradientUnits="userSpaceOnUse" x1="113.9364" y1="159.4438" x2="256.0703" y2="235.0178" gradientTransform="matrix(1 0 0 -1 0 896)">
			<stop  offset="0" style="stop-color:#231F20"/>
			<stop  offset="0.163" style="stop-color:#51413A;stop-opacity:0.837"/>
			<stop  offset="0.3695" style="stop-color:#856756;stop-opacity:0.6305"/>
			<stop  offset="0.5635" style="stop-color:#AE856D;stop-opacity:0.4365"/>
			<stop  offset="0.7392" style="stop-color:#CB9A7E;stop-opacity:0.2608"/>
			<stop  offset="0.8905" style="stop-color:#DDA787;stop-opacity:0.1095"/>
			<stop  offset="1" style="stop-color:#E3AC8B;stop-opacity:0"/>
		</linearGradient>
		<path class="st24" d="M202.3,831.8c-30.1-32.7-57.1-60.6-76.5-87.4C106.4,717.6,89,699,83,669.7c-6-29.2-9-77.1-9.8-110
			c0,0-0.6-11.5,0.9-34.2c0.3-3.8,1.3-15,1.3-15l140.2,198l81.9,30.4v146.6c0,0-26.6-3.4-41.6-9.1
			C241.1,870.7,232.4,864.5,202.3,831.8z"/>
		<path class="st8" d="M297.6,595.6c0,0-13.5-1.8-34.9,3.6c-21.4,5.4-66.8,35.4-66.8,35.4s-23.2,28.1,9.8,27.1
			c30.3-19.1,37.1-20.4,37.1-20.4l35.4-2l19.4,2V595.6z"/>
		<path class="st9" d="M297.6,783.4c0,0-25.3-7.9-30-13.2s-10.5-33.1-10.5-33.1h40.5V783.4z"/>
		<polygon class="st0" points="220.1,680.9 297.6,685.4 297.6,714.5 231.3,714.4 215.7,699.1 		"/>
		<path class="st0" d="M246.6,577.1c-1.1,3.8,4.1,8.6,11.5,10.7c7.4,2.1,14.3,0.7,15.4-3.2s-4.1-8.6-11.5-10.7
			C254.6,571.8,247.7,573.2,246.6,577.1z"/>
		<path class="st10" d="M221.9,669.4c-2.3,2.9-1.3,14.4-1.3,14.4s0.1,11.3,4.1,15.7l-12.4-4l-5.7-13l0.9-15.8
			C207.6,666.7,224.2,666.5,221.9,669.4z"/>
		<polygon class="st10" points="297.6,653.5 246.7,653.5 213.6,664.1 212.9,669.8 297.6,666.7 		"/>
		<polygon class="st11" points="243.4,707.7 244.5,706.6 255.5,706.6 257.1,708.5 257.1,714.5 243.4,710.6 		"/>
		<polygon class="st11" points="229.7,707.2 230.8,706.1 241.8,706.1 243.4,708 243.4,714 229.7,710 		"/>
		<polygon class="st12" points="253.2,685.1 261.5,710.3 297.6,715.6 297.6,681.3 		"/>
		<polygon class="st11" points="257.1,708.7 258.1,707 269.2,707 270.8,710 270.8,719.4 257.1,714.9 		"/>
		<polygon class="st11" points="270.8,709.6 271.3,708.1 277.3,708.1 278.2,710.8 278.2,720.8 270.8,719.3 		"/>
		<polygon class="st11" points="278.2,709.6 278.9,708.1 286.3,708.1 287.4,710.8 287.4,720.8 278.2,719.3 		"/>
		<polygon class="st11" points="287.4,710.3 288.1,708.5 296.4,708.5 297.6,711.6 297.6,722.7 287.4,722.7 		"/>
		<g>
			<path class="st25" d="M297.6,636.5l18.3-2.6c0,0,25.6-6.1,45.6,5.2s34.1,25.4,33.2,35.8c-0.9,10.4-2.8,26.9-33.7,52.1
				c-30.8,25.2-63.4,24.5-63.4,24.5v-32.1c0,0,12.2,2,32.1-2.8c20-4.8,55.1-21.5,55.8-32.8c0.4-7.6-4.6-17.6-24.5-20.2
				c-20-2.6-63.4-0.2-63.4-0.2V636.5z"/>
			<path class="st25" d="M297.6,636.5l-18.3-2.6c0,0-25.6-6.1-45.6,5.2s-34.1,25.4-33.2,35.8c0.9,10.4,2.8,26.9,33.7,52.1
				c30.8,25.2,63.4,24.5,63.4,24.5v-32.1c0,0-12.2,2-32.1-2.8c-20-4.8-55.1-21.5-55.8-32.8c-0.4-7.6,4.6-17.6,24.5-20.2
				c20-2.6,63.4-0.2,63.4-0.2V636.5z"/>
		</g>
		
			<linearGradient id="SVGID_6_" gradientUnits="userSpaceOnUse" x1="636.5411" y1="244.9" x2="636.5411" y2="434.0836" gradientTransform="matrix(-1 0 0 -1 687.0742 896)">
			<stop  offset="0" style="stop-color:#ECC7B1"/>
			<stop  offset="1" style="stop-color:#E6CBB3"/>
		</linearGradient>
		<path class="st26" d="M73.3,486.1c0,0-7.5-32.6-43.4-22.1c-14.3,8.8-6.1,41.9-5,52.4c1.1,10.5,5.5,14.3,8.8,23.2
			s8.9,66.9,10.5,75.1s3.3,19.3,6.1,24.8s13.8,11.6,13.8,11.6h15.4L73.3,486.1z"/>
		<path class="st14" d="M66.7,582.1c0,0.1,0,0.1,0,0.2c0.1,0.9,0.1,1.8,0.2,2.7c0,0.6,0.4,2.2,0.2,2.7c-1.4,2.8-4.7,1.4-6.8,0.2
			c-1.1-0.7-2-2.1-2.8-3c-0.9-1-1.8-2-2.7-3.1c-3.1-4-5.2-8.5-6.2-13.5c-0.5-2.8-0.7-5.6-0.7-8.4c0-3,0.3-6,0.2-9
			c-0.3-8.9-1.9-17.6-4.2-26.3c-1.5-5.6-4.9-13.4-2.5-19.3c2-5.1,8.5-6.3,13.2-7.5l0.1,0.5c0.2,0.9,0.4,1.9,0.5,2.8
			c0.3,1.7,0.5,3.4,0.8,5.1c0.4,2.7,0.8,5.4,1.1,8.1c0.5,3.4,1,6.9,1.5,10.3c0.6,3.7,1.2,7.4,1.8,11.1c0.6,3.6,1.3,7.2,1.9,10.7
			c0.6,3.4,1.2,6.7,1.7,10.1c0.5,3.3,1,6.6,1.4,10c0.4,3.5,0.7,6.9,1,10.4C66.5,578.7,66.6,580.4,66.7,582.1z"/>
		<path class="st0" d="M255.5,365.1c0-0.2-0.1-0.4-0.2-0.6c-1.2-3.8-5-7.8-8.2-10.1c-12.5-9-24.4-12.7-38.7-11.6
			c-6.4,0.5-12.7,1.6-18.9,3c-18.2,4-38.1,11.1-53.6,21.6c-7.7,5.3-14.9,12-19.6,20.2c-0.3,0.6-1.1,3-1.7,3.3
			c0,0,79.4-46.2,119.4-18C239.7,376.9,257.7,374.2,255.5,365.1z"/>
		<polygon class="st0" points="60.9,464.4 50.5,502.3 54.9,590.4 59.4,570.9 60.9,594.9 65,585.2 79.5,611 76.1,562.2 81.4,459.2 		
			"/>
		<path class="st15" d="M137,417.5c18.6-1.5,27.4-2.2,47.8-2.4c20.4-0.2,62.1,2.8,76.7,10.3c11.3,10.2,7.3,19.5,3,37.8
			c-1,4.3-1.9,8.4-3.1,12.1c-6.2-9.1-3.8-40.2-46.7-45.9l-15.7-2.5c0,0-26-4.8-89.3,6.6C114.2,421.3,124.8,418.2,137,417.5z"/>
		<path class="st16" d="M178.1,442.2c2,9.8,7.9,8.1,17.7,8.1s16.2,2.5,17.7-8.1c1.4-10.1-5-18.5-17.7-18.5
			C183.2,423.6,176.1,432.1,178.1,442.2z"/>
		<path class="st0" d="M150.6,438.5c24.7-9.1,33-11.7,48.8-11c20.1,0.9,41.6,19.2,41.6,19.2S224,418,185.3,424
			C185.3,424.1,169.5,425.9,150.6,438.5z"/>
		<path class="st0" d="M221.4,449.2c0,0-39.6,5.2-67.7-7.3c0,0,5.9,8.6,31.8,10.8C211.5,454.8,221.4,449.2,221.4,449.2z"/>
		<path class="st17" d="M297.6,687.7c0,0-2.3,1.3-2.8,1.3c-0.3,0-2.3,0-4.5,0s-4.5,0-4.9,0c-0.8,0-2.8-1.3-2.8-1.3v-20.4l15-0.5
			L297.6,687.7L297.6,687.7z"/>
		<path class="st11" d="M282.6,687c0,0-2.3,1.2-2.8,1.2c-0.3,0-2.3,0-4.5,0s-4.5,0-4.9,0c-0.8,0-2.8-1.2-2.8-1.2v-19.2l15-0.5
			L282.6,687L282.6,687z"/>
		<path class="st17" d="M267.6,686.2c0,0-1.8,1.2-2.3,1.2c-0.2,0-1.9,0-3.6,0c-1.8,0-3.6,0-3.9,0c-0.7,0-2.3-1.2-2.3-1.2v-18
			l12.1-0.5V686.2z"/>
		<path class="st11" d="M255.5,685.5c0,0-1.8,1.1-2.3,1.1c-0.2,0-1.9,0-3.6,0c-1.8,0-3.6,0-3.9,0c-0.7,0-2.3-1.1-2.3-1.1v-17.6
			l12.1,0.3V685.5z"/>
		<path class="st17" d="M243.4,684.4c0,0-1.8,1.1-2.3,1.1c-0.2,0-1.9,0-3.6,0c-1.8,0-3.6,0-3.9,0c-0.7,0-2.3-1.1-2.3-1.1v-16
			l12.1-0.5V684.4z"/>
		<path class="st11" d="M231.3,683.8c0,0-1.6,1.1-2.1,1.1c-0.2,0-1.7,0-3.2,0c-1.6,0-3.2,0-3.5,0c-0.6,0-2.1-1.1-2.1-1.1
			s-0.8-8.6,0-12.7c0.8-4.1,10.9-2.8,10.9-2.8L231.3,683.8L231.3,683.8z"/>
		<line class="st18" x1="297.6" y1="666.7" x2="222.5" y2="666.7"/>
		<path class="st0" d="M188.5,438.1c0,4.1,3.3,7.4,7.4,7.4c4.1,0,7.4-3.3,7.4-7.4s-3.3-7.4-7.4-7.4S188.5,434,188.5,438.1z"/>
		<path class="st19" d="M185.4,435c0,2.2,1.8,4,4,4s4-1.8,4-4s-1.8-4-4-4S185.4,432.8,185.4,435z"/>
		<path class="st20" d="M184.8,415.1c20.4-0.2,62.1,2.8,76.7,10.3c11.3,10.2,7.3,19.5,3,37.8c-4.2,18.2-6.3,31.5-39.2,35.7
			c-33,4.1-59.5,5.9-85,0.3c0,0-31-3.8-32.1-43c-3.4-31.6,10.9-37.7,28.7-38.7C155.5,416,164.4,415.3,184.8,415.1z"/>
		<path class="st27" d="M469.3,744.4c-19.4,26.8-46.4,54.7-76.5,87.4s-38.8,38.9-53.7,44.6c-14.9,5.7-41.6,9.1-41.6,9.1
			s-26.6-3.4-41.6-9.1c-14.9-5.7-23.6-11.9-53.7-44.6c-30.1-32.7-57.1-60.6-76.5-87.4c-3.2-4.4-6.3-8.5-9.3-12.5v131
			c46.9,20.3,110.7,32.7,181.1,32.7c70.3,0,134.1-12.5,181.1-32.7v-131C475.6,735.9,472.5,740.1,469.3,744.4z"/>
		<g>
			<path class="st6" d="M297.6,438.1c10.4,0,12.8,7,15.1,10.8c2.3,3.8,11.7,68.4,21.9,75c6,4.2,13.1,10.4,22.5,19.2s11.3,25.2,10,32
				s-5.4,11.2-13,12s-5.8-9.3-12.1-10.2c-6.3-0.9-11.5,1.8-15.2,4.2c-3.7,2.5-3.6,8.8-6.2,11.8c-7,8-23,8-23,8"/>
			<path class="st6" d="M297.6,438.1c-10.4,0-12.8,7-15.1,10.8c-2.3,3.8-11.7,68.4-21.9,75c-6,4.2-13.1,10.4-22.5,19.2
				s-11.3,25.2-10,32s5.4,11.2,13,12s5.8-9.3,12.1-10.2c6.3-0.9,11.5,1.8,15.2,4.2s3.6,8.8,6.2,11.8c7,8,23,8,23,8"/>
		</g>
		<g>
			<linearGradient id="SVGID_7_" gradientUnits="userSpaceOnUse" x1="297.6" y1="519.5" x2="367.4659" y2="519.5">
				<stop  offset="0" style="stop-color:#ECC7B1"/>
				<stop  offset="1" style="stop-color:#E6CBB3"/>
			</linearGradient>
			<path class="st28" d="M297.6,438.1c10.4,0,12.8,7,15.1,10.8c2.3,3.8,11.7,68.4,21.9,75c6,4.2,13.1,10.4,22.5,19.2
				s11.3,25.2,10,32s-5.4,11.2-13,12s-5.8-9.3-12.1-10.2c-6.3-0.9-11.5,1.8-15.2,4.2c-3.7,2.5-3.6,8.8-6.2,11.8c-7,8-23,8-23,8"/>
			<linearGradient id="SVGID_8_" gradientUnits="userSpaceOnUse" x1="227.7341" y1="519.5" x2="297.6" y2="519.5">
				<stop  offset="0" style="stop-color:#ECC7B1"/>
				<stop  offset="1" style="stop-color:#E6CBB3"/>
			</linearGradient>
			<path class="st29" d="M297.6,438.1c-10.4,0-12.8,7-15.1,10.8c-2.3,3.8-11.7,68.4-21.9,75c-6,4.2-13.1,10.4-22.5,19.2
				s-11.3,25.2-10,32s5.4,11.2,13,12s5.8-9.3,12.1-10.2c6.3-0.9,11.5,1.8,15.2,4.2s3.6,8.8,6.2,11.8c7,8,23,8,23,8"/>
		</g>
		<path class="st30" d="M275.7,464.3l10.5-25.3l11.4-4l19.8,16.6c-20.6-7.3-29.9-3.4-42.5,21C262.7,496.6,275.7,464.3,275.7,464.3z"
			/>
		<g>
			<path class="st31" d="M264.5,416.1c-21-4.5-59.3-9.3-90-9.2c-27.8,1.7-44.4-0.1-86.8,12C65.8,425.2,55.5,438,55.5,438L38,461.9
				l0.2,0.3c10.7-1.3,18.2,1.7,23.5,5.9c0,0,26.6-17.5,35.7-6.2c3.1,3.7,5.1,16.9,9,25.5s18.5,22.4,54,23.1c30,0.5,80.2-1.5,96-11.6
				c0,0,16.5-13.4,24-42.4c0,0,3.4-15.2,17-15.2v-20.9C297.6,420.4,285,418.6,264.5,416.1z M264.6,463.2
				c-4.2,18.2-6.3,31.5-39.2,35.7c-33,4.1-59.5,5.9-85,0.3c0,0-31-3.8-32.1-43c-3.4-31.6,10.9-37.7,28.7-38.7
				c18.6-1.5,27.4-2.2,47.8-2.4c20.4-0.2,62.1,2.8,76.7,10.3C272.9,435.6,268.8,444.9,264.6,463.2z"/>
			<path class="st31" d="M556.8,462.2l0.2-0.3L539.5,438c0,0-10.3-12.8-32.2-19.1c-42.4-12.2-59-10.4-86.8-12
				c-30.7-0.1-69,4.7-90,9.2c-20.5,2.5-33,4.3-33,4.3v20.9c13.6,0,17,15.2,17,15.2c7.5,29,24,42.4,24,42.4
				c15.8,10.1,66,12.1,96,11.6c35.5-0.6,50.1-14.5,54-23.1s5.9-21.7,9-25.5c9.1-11.2,35.7,6.2,35.7,6.2
				C538.6,463.9,546.2,460.9,556.8,462.2z M486.8,456.2c-1.1,39.1-32.1,43-32.1,43c-25.4,5.6-52,3.8-85-0.3
				c-33-4.1-35-17.5-39.2-35.7s-8.3-27.6,3-37.8c14.7-7.6,56.3-10.6,76.7-10.3c20.4,0.2,29.3,0.9,47.8,2.4
				C475.9,418.5,490.2,424.6,486.8,456.2z"/>
		</g>
		<g class="st32">
			<path class="st33" d="M355.4,566.7c-5.1-2.7-25.3-2.6-39.1,8.1c-7.4,5.7-14.2,3.7-18.8,3.7v22.3c0,0,16,0,23-8
				c2.6-2.9,2.5-9.3,6.2-11.8s8.8-5.1,15.2-4.2c6.3,0.9,4.5,11,12.1,10.2c6.7-0.7,10.7-4.1,12.4-9.5
				C363.2,572.2,360.5,569.4,355.4,566.7z"/>
			<path class="st33" d="M239.7,566.7c5.1-2.7,25.3-2.6,39.1,8.1c7.4,5.7,14.2,3.7,18.8,3.7v22.3c0,0-16,0-23-8
				c-2.6-2.9-2.5-9.3-6.2-11.8s-8.8-5.1-15.2-4.2c-6.3,0.9-4.5,11-12.1,10.2c-6.7-0.7-10.7-4.1-12.4-9.5
				C231.9,572.2,234.6,569.4,239.7,566.7z"/>
		</g>
		<g>
			<path class="st34" d="M49.5,445.7c0-0.3-0.1-0.6-0.1-0.8c-2.2,1.9-4.4,3.9-6.7,5.8L49.5,445.7z"/>
			<path class="st34" d="M552.5,450.7c-2.2-1.9-4.4-3.8-6.7-5.8c-0.1,0.3-0.1,0.5-0.1,0.8L552.5,450.7z"/>
			<path class="st34" d="M297.7,33.5c6.5,1.2,18.1,17.7,23.8,22.4c11,9.2,22.7,17.5,34.2,25.9c0.2-5.4-0.6-10.9-1.1-16.2
				c4.4,4.6,7.8,10.3,11.3,15.6c2.4,3.6,4.8,7.1,7.2,10.6c0.9,2.7,2.6,4.6,5,5.5c0.9-3.5,1.7-11.4,5.7-13.1
				c4.5-1.8,9.2,5.5,11.2,8.4c3,4.2,5.3,9,8,13.4c5.2,8.4,11.6,16.9,15,26.2c0.8,2.2,1.9,5.3,0.2,7.3c-1.2,1.4-5.5,1.2-6,2
				c-0.5,0.9,0.7,2.3,0.4,3.4c-0.6,2.6-2.1,2.6-0.8,5.8c3.2,8.4,14.8,14.6,22,18.5c12.9,6.9,26.9,10.6,41.1,13.7
				c7.3,1.6,15.9,2.1,18.6,10.3c2.6,8,1.1,17.6,2.3,26c1,7.2,3.2,13,7,19.1c-9.4-1.3-18.3-4.6-27-8.1c-3.8-1.5-8.2-4-12.5-4.3
				c0.1,2.7,2.2,5,3.6,7.1c3.5,5.3,6.7,10.6,10.8,15.5c9.8,11.8,21,22,29.7,34.6c-3.6,0.6-7.2-0.9-10.8,0.3
				c2.4,5.6,5.1,10.9,8.7,15.9c3,4.1,7.3,7.7,10,12c1.4,2.2,1.4,2.1-0.5,3.2c-1.6,1-4.5,1.1-6.3,1.6c-6.8,3.8,29.7,44.3,32.3,48.6
				c-0.8-1.6-5.8-1.9-7.3-2.2c-4.5-1-9.5-3.6-14.1-3.5c-0.2,1.7,1.3,3.4,1.8,4.9c2.5,7.1,3,14.4,6.4,21.2
				c4.5,9.1,10.5,17.4,15.4,26.4c-4.2-1.7-8.4-3.1-12.6-4.6c-3.6-1.3-6.9-2.8-10.7-2.9c-0.6,4,2.2,7.1,4.4,10.2
				c3.6,4.9,5.6,10.7,8.5,16c2.9,5.4,6,8.8,10.7,12.6c0.9,0.7,1.7,1.4,2.5,2.2c0.5-2.1,1.7-3.2,4.7-1c4.3,3,7.7,7.6,11.1,11.5
				c1.5,1.7,3,3.5,4.5,5.2l28.5,20.8L567.7,415h21.1l-21.1-22l6-7.5l-6-12l27.1,6.5l-33-24.2h19.5l-30-24.2l16.4-18.1l-23-22.5
				l6.5-39l-22.5-33l-6-31.5l-12,24l-9-46.5l-10.5-4.5l-10.7-24v15l-11.8-12l-1.2-1.9c-1.9-2.2-3.6-4.5-4.9-6.6s-2.5-4.2-4.3-5.9
				c-1.1-1.1-2.3-1.9-3.1-3.2c-1.1-1.8-2.1-4.3-2.3-6.7L440.3,96l-19.5-30V28.5L409,39l-7.7-10.5V57l-19.5-33L371,37.5L360.8,0
				l-26.4,31.5L297.7,0h-0.1h-0.1l-36.7,31.5L234.5,0l-10.3,37.5L213.5,24L194,57V28.5L186.3,39l-11.8-10.5V66L155,96l-12.6,19.3
				c-0.2,2.4-1.2,4.9-2.3,6.7c-0.8,1.3-2.1,2.1-3.1,3.2c-1.8,1.7-3,3.8-4.3,5.9c-1.3,2.1-3,4.4-4.9,6.6l-1.2,1.9l-11.8,12v-15
				l-10.7,24L93.5,165l-9,46.5l-12-24l-6,31.5L44,252l6.5,39l-22.9,22.5L44,331.6l-30,24.2h19.5L0.5,380l27.1-6.5l-6,12l6,7.5
				L6.5,415h21.1L0.5,481.5L29,460.7c1.5-1.7,3-3.5,4.5-5.2c3.4-3.9,6.9-8.5,11.1-11.5c3.1-2.2,4.3-1.1,4.7,1
				c0.8-0.7,1.7-1.5,2.5-2.2c4.7-3.9,7.7-7.2,10.7-12.6c2.9-5.3,5-11.1,8.5-16c2.2-3,5-6.1,4.4-10.2c-3.8,0.1-7.1,1.6-10.7,2.9
				c-4.2,1.5-8.5,3-12.6,4.6c4.8-9,10.9-17.3,15.4-26.4c3.4-6.8,3.8-14.1,6.4-21.2c0.5-1.5,2-3.2,1.8-4.9c-4.6-0.1-9.6,2.6-14.1,3.5
				c-1.6,0.3-6.5,0.7-7.3,2.2c2.6-4.3,39-44.8,32.3-48.6c-1.8-0.6-4.8-0.7-6.3-1.6c-1.9-1.2-1.9-1-0.5-3.2c2.8-4.3,7-7.9,10-12
				c3.6-5,6.3-10.2,8.7-15.9c-3.6-1.2-7.2,0.3-10.8-0.3c8.7-12.6,20-22.8,29.7-34.6c4.1-4.9,7.2-10.2,10.8-15.5
				c1.4-2.1,3.5-4.4,3.6-7.1c-4.3,0.3-8.7,2.9-12.5,4.3c-8.8,3.4-17.7,6.7-27,8.1c3.8-6.1,6-12,7-19.1c1.2-8.3-0.4-17.9,2.3-26
				c2.7-8.2,11.3-8.8,18.6-10.3c14.2-3.1,28.2-6.7,41.1-13.7c7.2-3.9,18.8-10.1,22-18.5c1.3-3.3-0.2-3.2-0.8-5.8
				c-0.3-1,1-2.5,0.4-3.4c-0.5-0.9-4.9-0.6-6-2c-1.7-2-0.6-5.2,0.2-7.3c3.4-9.4,9.8-17.8,15-26.2c2.7-4.4,5-9.2,8-13.4
				c2-2.8,6.7-10.2,11.2-8.4c4,1.6,4.9,9.5,5.7,13.1c2.4-0.9,4.1-2.7,5-5.5c2.5-3.5,4.9-7,7.2-10.6c3.5-5.3,6.9-11,11.3-15.6
				c-0.5,5.4-1.3,10.8-1.1,16.2c11.6-8.4,23.2-16.7,34.2-25.9C279.4,51.1,290.6,38,297.7,33.5z"/>
		</g>
	</g>
</g>
</svg>
