<svg xmlns="http://www.w3.org/2000/svg" viewBox="0 0 594.2 895.6">
    <style>
    .st0 {
        fill: #414042
    }

    .st3 {
        fill: #dfb69c
    }

    .st4 {
        fill: #d39f7c
    }

    .st6 {
        fill: #e1bba3
    }

    .st7,
    .st8,
    .st9 {
        opacity: 5.000000e-02;
        fill: #231f20;
        enable-background: new
    }

    .st8,
    .st9 {
        opacity: 7.000000e-02;
        fill: #414042
    }

    .st9 {
        opacity: 8.000000e-02
    }

    .st10 {
        fill: #d7a79f
    }

    .st11 {
        fill: #f0f0f0
    }

    .st12 {
        fill: #654042
    }

    .st14 {
        fill: #c59f81
    }

    .st15 {
        fill: #e5c5b1
    }

    .st16 {
        fill: #8a6d51
    }

    .st17 {
        fill: #f1f2f2
    }

    .st18 {
        fill: none
    }

    .st19 {
        fill: #fff
    }

    .st20,
    .st22 {
        opacity: .5;
        fill: #ceedf5;
        enable-background: new
    }

    .st22 {
        opacity: .2;
        fill: #c17846
    }

    .st25 {
        fill: #dcb2a9
    }

    .st31 {
        fill: #594a42
    }

    .st33 {
        fill: #231f20
    }

    .st34 {
        fill: #444345
    }
    </style>
    <path d="M588.6 415l-21-22 6-7.5-6-12 27 6.5-33-24.2h19.5l-30-24.2 16.5-18.1-23-22.5 6.5-39-22.4-33-6.1-31.5-12 24-9-46.5-10.4-4.5-10.7-24v15l-11.9-12L440.2 96l-19.5-30V28.5L408.9 39l-7.7-10.5V57l-19.5-33-10.8 13.5L360.7 0l-26.5 31.5L297.6 0l-36.7 31.5L234.5 0l-10.3 37.5L213.5 24 194 57V28.5L186.3 39l-11.8-10.5V66L155 96l-28.5 43.5-11.8 12v-15l-10.8 24-10.4 4.5-9 46.5-12-24-6 31.5L44 252l6.5 39-22.9 22.5L44 331.6l-30 24.2h19.5L.5 380l27.1-6.5-6.1 12 6.1 7.5-21.1 22h21.1L.5 481.5l50-36.5 20.5-6.9 13.9-7.2 115.6-180.4 97.1-39 97.1 39 115.5 180.4 13.9 7.2 20.5 6.9 50 36.5-27-66.5z" class="st0" />
    <path fill="#3e3d3f" d="M293.6 84.1c-1.1 2.3-7.2 10.7-8.8 12.7-2.2 2.8-4.5 5.5-6.2 8.7a89.3 89.3 0 0 0-3.9 8.3c-.2-.6-.1-1.4-.1-2V109c-1.2 0-2.2 1.8-2.8 2.7-.5.6-1 1.2-1.4 2-.3.5-.4 1.3-1.1 1.3-2.7-3.7-3-8-2.9-12.4a24.7 24.7 0 0 0-3.5 6.1c-1.2 3.1-1.9 6.4-3 9.5-.6 1.9-2.1 7-4.9 6.7-1.4-.1-2.3-1.7-2.9-2.7-1.2-1.9-2.1-4.1-3-6.1l-3.8 8.6c-1 2.2-2.1 4.9-3.8 6.6-2.5 2.6-3.9-3.2-4.5-4.8a203.8 203.8 0 0 1-8.6 30.8c-.4 1.1-3 7.7-4.2 3.9-.7-2.2-.6-4.7-.7-6.9v-10.8c-1.5 2.9-3.5 5.5-4.9 8.5-2.7 5.6-5.6 11.2-9.2 16.2-1.2-.5-1.5-3-1.6-3.9-.3-2.4 0-4.8 0-7.2 0-.5 0-1-.2-1.4-.7 1-1.4 1.9-2.4 2.7-1.1 1-2.4 1.7-3.4 2.9-1.7 2.2-2.6 5-3.8 7.5a99 99 0 0 1-6.1 10.5 6.8 6.8 0 0 1-.9-4c0-3.9.5-7.9.2-11.7-2.2 2-4.3 4-6.1 6.4-1.5 1.9-3.3 3.6-5 5.4-.8.8-1.6 1.7-2.5 2.4-1 .8-2.2 1.2-3.3 1.8-3.8 2-7.5 4.3-11.2 6.5a92.6 92.6 0 0 1-13.4 6.6c-5.8 2.3-12 1.6-17.3 5.1 1.6.6 3.3-.2 5 .3 1.5 4.8-4 10.4-1.8 15 4.6.2 8.7.8 13.1 2.2-3.4 4.2-6.9 8.3-10.9 12-2.1 1.9-6.1 4.3-7.2 7-.8 2.2.5 2.6 1.3 4.4 1 2.5-.4 4-2 6-2.1 2.5-5.4 5-6.5 8.2-.7 2.1-.3 3.8-1.6 5.8-3.7 5.8-9.6 10.4-14.1 15.6-2.6 3.1-9.7 10.1-7.6 14.8 1.3 2.8 4.8 2.7 5.3 6.2.9 5.6-2.7 12.7-3.9 18.1a36.2 36.2 0 0 0-.3 15.7c.8 3.6.5 6-1.1 9.3-3.9 8.1-9.8 14.7-14.8 22.1-2.8 4.2-2.7 8.5 1.3 11.7-1 8.6-4.2 23.5 3.3 30.3 7.8 7.2 15-5.5 17.2-11.6 6-16.5 6.7-34.4 12.4-51.1a172.8 172.8 0 0 1 36.6-57.6 354.7 354.7 0 0 1 48.3-47.4 112.8 112.8 0 0 1 51.7-20.5c12.3-2 29.5-2.7 40.3-10.9 10.7 8.2 28 8.9 40.3 10.9 19 3.1 36.3 8.7 51.7 20.5a349 349 0 0 1 48.3 47.4c15.2 17.2 29 35.8 36.6 57.6 5.7 16.6 6.5 34.6 12.4 51.1 2.2 6 9.3 18.7 17.2 11.6 7.4-6.8 4.3-21.7 3.3-30.3 4-3.2 4.1-7.5 1.3-11.7-4.9-7.4-10.9-14-14.8-22.1a12.7 12.7 0 0 1-1.1-9.3c1.2-5.3.9-10.4-.3-15.7-1.2-5.4-4.8-12.5-3.9-18.1.6-3.5 4.1-3.4 5.3-6.2 2.2-4.7-4.9-11.8-7.6-14.8-4.5-5.2-10.4-9.8-14.1-15.6-1.3-2-.9-3.7-1.6-5.8-1.1-3.2-4.4-5.7-6.5-8.2-1.7-2-3.1-3.5-2-6 .8-1.9 2.1-2.2 1.3-4.4-1-2.8-5.1-5.1-7.2-7-4-3.7-7.4-7.8-10.9-12 4.4-1.4 8.5-2 13.1-2.2 2.2-4.6-3.4-10.1-1.8-15 1.7-.5 3.4.3 5-.3-5.3-3.5-11.5-2.8-17.3-5.1a98 98 0 0 1-13.4-6.6c-3.7-2.2-7.4-4.5-11.2-6.5-1.1-.6-2.3-1.1-3.3-1.8-.9-.7-1.7-1.6-2.5-2.4-1.7-1.8-3.5-3.4-5-5.4a52.6 52.6 0 0 0-6.1-6.4c-.3 3.9.2 7.9.2 11.7a7 7 0 0 1-.9 4 73.5 73.5 0 0 1-6.1-10.5c-1.2-2.5-2.1-5.3-3.8-7.5-.9-1.2-2.2-2-3.4-2.9-.9-.8-1.7-1.7-2.4-2.7-.3.4-.2.9-.2 1.4 0 2.4.3 4.8 0 7.2-.1 1-.5 3.4-1.6 3.9-3.6-5.1-6.5-10.6-9.2-16.2-1.4-3-3.4-5.6-4.9-8.5v10.8c-.1 2.2 0 4.8-.7 6.9-1.2 3.8-3.8-2.8-4.2-3.9-3.9-9.9-6.3-20.4-8.6-30.8-.6 1.6-2 7.4-4.5 4.8-1.7-1.8-2.8-4.4-3.8-6.6l-3.8-8.6c-.9 2.1-1.8 4.2-3 6.1-.6 1-1.6 2.5-2.9 2.7-2.8.3-4.2-4.8-4.9-6.7-1.1-3.2-1.8-6.4-3-9.5-.9-2.2-2.2-4.2-3.5-6.1.1 4.4-.3 8.8-2.9 12.4-.6 0-.8-.8-1.1-1.3l-1.4-2c-.7-.8-1.6-2.7-2.8-2.7v2.8c0 .6.2 1.4-.1 2-1.3-2.8-2.4-5.7-3.9-8.3-2-3.1-18.4-18.6-20.6-21.4" />
    <linearGradient id="SVGID_1_" x1="409.9" x2="409.9" y1="10.4" y2="699.7" gradientTransform="matrix(1 0 0 -1 0 896)" gradientUnits="userSpaceOnUse">
        <stop offset="0" stop-color="#e3ac8b" />
        <stop offset="1" stop-color="#e6cbb3" />
    </linearGradient>
    <path fill="url(#SVGID_1_)" d="M297.6 885.6s26.6-3.4 41.6-9.1c14.9-5.7 23.6-11.9 53.7-44.6s57.1-60.6 76.5-87.4c19.4-26.8 36.8-45.5 42.8-74.7s9-77.1 9.8-110c0 0 .6-11.5-.9-34.2-1.6-22.8-9.9-91.1-14.3-108-4.3-16.9-9.4-34.5-11.8-47.4s-10.6-71.2-21.4-90.3c-10.8-19.2-83.1-69.5-106.3-76.6-23.1-7.2-69.6-7-69.6-7l-.1 689.3z" />
    <path d="M341.9 503.5s36.8 42.2 80.5 40.1c43.7-2.1 64.2-41.7 64.2-41.7" class="st3" />
    <path d="M516.6 449l-7.7-1.1-12.1 3.6L489 473l-10.7 19.6-3.4 3.3-11 7.8-20.4 4.8h-18.4l-41.2-2.3-34.9-3.8-12.9-6.1s5 8.6 12.9 12.1c0 0 97.1 30 137.6-6.6 0 0 3.5-5.3 6.5-13.4l.2-.2.4-1.7.9-3.4c7.7-27.5 22.9-19.5 22.9-19.5l-.9-14.6z" class="st4" />
    <linearGradient id="SVGID_2_" x1="-315.7" x2="-173.6" y1="159.5" y2="235" gradientTransform="rotate(180 82.8 448)" gradientUnits="userSpaceOnUse">
        <stop offset="0" stop-color="#231f20" />
        <stop offset=".2" stop-color="#51413a" stop-opacity=".8" />
        <stop offset=".4" stop-color="#856756" stop-opacity=".6" />
        <stop offset=".6" stop-color="#ae856d" stop-opacity=".4" />
        <stop offset=".7" stop-color="#cb9a7e" stop-opacity=".3" />
        <stop offset=".9" stop-color="#dda787" stop-opacity=".1" />
        <stop offset="1" stop-color="#e3ac8b" stop-opacity="0" />
    </linearGradient>
    <path fill="url(#SVGID_2_)" d="M392.9 831.8c30.1-32.7 57.1-60.6 76.5-87.4 19.4-26.8 36.8-45.5 42.8-74.7 6-29.2 9-77.1 9.8-110 0 0 .6-11.5-.9-34.2l-1.3-15-140.2 198-81.9 30.4v146.6s26.6-3.4 41.6-9.1c14.8-5.7 23.5-11.9 53.6-44.6z" opacity=".1" />
    <path d="M339.5 420.8c6.2-50.3 61-70.9 93.7-56.7 0 0 60.8 12.4 52.7 55.6-32.9-8-76.1-8.4-76.1-8.4l-47.4 2.2-22.9 7.3z" class="st3" />
    <path d="M318.2 590.9s18.9 3.4 31.1-5.5-3.7-14.5-3.7-14.5l-25.9 6.7-1.5 13.3z" class="st6" />
    <path d="M354.7 586.9s-31.9 31.3-57.1 31.3v-26.4l30.8-16.3 19.8.5 6.5 10.9z" class="st7" />
    <path d="M297.6 595.6s13.5-1.8 34.9 3.6 66.8 35.4 66.8 35.4 23.2 28.1-9.8 27.1c-30.3-19.1-37.1-20.4-37.1-20.4l-35.4-2-19.4 2v-45.7z" class="st8" />
    <path d="M297.6 783.4s25.3-7.9 30-13.2 10.5-33.1 10.5-33.1h-40.5v46.3z" class="st9" />
    <path d="M375 680.9l-77.4 4.5v29.1l66.2-.1 15.6-15.3zM348.5 577.1c1.1 3.8-4.1 8.6-11.5 10.7-7.4 2.1-14.3.7-15.4-3.2-1.1-3.8 4.1-8.6 11.5-10.7 7.5-2.1 14.3-.7 15.4 3.2z" class="st0" />
    <path d="M373.2 669.4c2.3 2.9 1.3 14.4 1.3 14.4s-.1 11.3-4.1 15.7l12.4-4 5.7-13-.9-15.8s-16.7-.2-14.4 2.7z" class="st10" />
    <path d="M297.6 653.5h50.9l33 10.6.7 5.7-84.6-3.1z" class="st10" />
    <path d="M351.7 707.7l-1-1.1h-11.1l-1.6 1.9v6l13.7-3.9z" class="st11" />
    <path d="M365.4 707.2l-1.1-1.1h-11l-1.6 1.9v6l13.7-4z" class="st11" />
    <path d="M341.9 685.1l-8.3 25.2-36 5.3v-34.3z" class="st12" />
    <path d="M338 708.7l-1-1.7h-11l-1.6 3v9.4l13.6-4.5zM324.4 709.6l-.6-1.5h-6l-.9 2.7v10l7.5-1.5z" class="st11" />
    <path d="M316.9 709.6l-.7-1.5h-7.4l-1 2.7v10l9.1-1.5zM307.8 710.3l-.8-1.8h-8.2l-1.2 3.1v11.1h10.2z" class="st11" />
    <linearGradient id="SVGID_3_" x1="544.6" x2="544.6" y1="244.9" y2="434.1" gradientTransform="matrix(1 0 0 -1 0 896)" gradientUnits="userSpaceOnUse">
        <stop offset="0" stop-color="#ecc7b1" />
        <stop offset="1" stop-color="#e6cbb3" />
    </linearGradient>
    <path fill="url(#SVGID_3_)" d="M521.8 486.1s7.5-32.6 43.4-22.1c14.3 8.8 6.1 41.9 5 52.4-1.1 10.5-5.5 14.3-8.8 23.2s-8.9 66.9-10.5 75.1c-1.6 8.2-3.3 19.3-6.1 24.8S531 651.1 531 651.1h-15.4l6.2-165z" />
    <path d="M528.4 582.1v.2l-.2 2.7c0 .6-.4 2.2-.2 2.7 1.4 2.8 4.7 1.4 6.8.2 1.1-.7 2-2.1 2.8-3l2.7-3.1a32 32 0 0 0 6.9-21.9c0-3-.3-6-.2-9 .3-8.9 1.9-17.6 4.2-26.3 1.5-5.6 4.9-13.4 2.5-19.3-2-5.1-8.5-6.3-13.2-7.5l-.1.5-.5 2.8-.8 5.1-1.1 8.1-1.5 10.3-1.8 11.1-1.9 10.7-1.7 10.1a301 301 0 0 0-2.4 20.4l-.3 5.2z" class="st14" />
    <path d="M339.7 365.1l.2-.6a23 23 0 0 1 8.2-10.1 55.3 55.3 0 0 1 38.7-11.6c6.4.5 12.7 1.6 18.9 3 18.2 4 38.1 11.1 53.6 21.6a64 64 0 0 1 19.6 20.2c.3.6 1.1 3 1.7 3.3 0 0-79.4-46.2-119.4-18-5.8 4-23.8 1.3-21.5-7.8zM534.2 464.4l10.4 37.9-4.4 88.1-4.5-19.5-1.5 24-4.1-9.7-14.4 25.8 3.3-48.8-5.3-103z" class="st0" />
    <path d="M458.2 417.5a549.7 549.7 0 0 0-47.8-2.4c-20.4-.2-62.1 2.8-76.7 10.3-11.3 10.2-7.3 19.5-3 37.8 1 4.3 1.9 8.4 3.1 12.1 6.2-9.1 3.8-40.2 46.7-45.9l15.7-2.5s26-4.8 89.3 6.6c-4.6-12.2-15.1-15.3-27.3-16z" class="st15" />
    <path d="M417 442.2c-2 9.8-7.9 8.1-17.7 8.1s-16.2 2.5-17.7-8.1c-1.4-10.1 5-18.5 17.7-18.5s19.7 8.4 17.7 18.5z" class="st16" />
    <path d="M444.5 438.5c-24.7-9.1-33-11.7-48.8-11-20.1.9-41.6 19.2-41.6 19.2s17-28.7 55.7-22.7c0 .1 15.8 1.9 34.7 14.5zM373.8 449.2s39.6 5.2 67.7-7.3c0 0-5.9 8.6-31.8 10.8-26 2.1-35.9-3.5-35.9-3.5z" class="st0" />
    <path d="M297.6 687.7s2.3 1.3 2.8 1.3h9.4c.8 0 2.8-1.3 2.8-1.3v-20.4l-15-.5v20.9z" class="st17" />
    <path d="M312.6 687s2.3 1.2 2.8 1.2h9.4c.8 0 2.8-1.2 2.8-1.2v-19.2l-15-.5V687z" class="st11" />
    <path d="M327.6 686.2s1.8 1.2 2.3 1.2h7.5c.7 0 2.3-1.2 2.3-1.2v-18l-12.1-.5v18.5z" class="st17" />
    <path d="M339.6 685.5s1.8 1.1 2.3 1.1h7.5c.7 0 2.3-1.1 2.3-1.1v-17.6l-12.1.3v17.3z" class="st11" />
    <path d="M351.7 684.4s1.8 1.1 2.3 1.1h7.5c.7 0 2.3-1.1 2.3-1.1v-16l-12.1-.5v16.5z" class="st17" />
    <path d="M363.8 683.8a8 8 0 0 0 2.1 1.1h6.7c.6 0 2.1-1.1 2.1-1.1s.8-8.6 0-12.7-10.9-2.8-10.9-2.8v15.5z" class="st11" />
    <path d="M297.6 666.7h75" class="st18" />
    <path d="M406.7 438.1a7.4 7.4 0 1 1-14.8 0 7.4 7.4 0 1 1 14.8 0z" class="st0" />
    <path d="M397.9 435c0 2.2-1.8 4-4 4s-4-1.8-4-4 1.8-4 4-4 4 1.8 4 4z" class="st19" />
    <path d="M410.3 415.1c-20.4-.2-62.1 2.8-76.7 10.3-11.3 10.2-7.3 19.5-3 37.8 4.2 18.2 6.3 31.5 39.2 35.7 33 4.1 59.5 5.9 85 .3 0 0 31-3.8 32.1-43 3.4-31.6-10.9-37.7-28.7-38.7a550 550 0 0 0-47.9-2.4z" class="st20" />
    <linearGradient id="SVGID_4_" x1="501.7" x2="501.7" y1="10.4" y2="699.8" gradientTransform="rotate(180 343.5 448)" gradientUnits="userSpaceOnUse">
        <stop offset="0" stop-color="#e3ac8b" />
        <stop offset="1" stop-color="#e6cbb3" />
    </linearGradient>
    <path fill="url(#SVGID_4_)" d="M297.6 885.6s-26.6-3.4-41.6-9.1c-14.9-5.7-23.6-11.9-53.7-44.6s-57.1-60.6-76.5-87.4C106.4 717.6 89 699 83 669.7c-6-29.2-9-77.1-9.8-110 0 0-.6-11.5.9-34.2 1.6-22.8 9.9-91.1 14.3-108 4.3-16.9 9.4-34.5 11.8-47.4s10.6-71.2 21.4-90.3c10.8-19.2 83.1-69.5 106.3-76.6 23.1-7.2 69.6-7 69.6-7v689.4h.1z" />
    <path d="M220.4 714.5l77.2 12.3v35.7c0 .1-47.6-2.3-77.2-48z" class="st22" />
    <path d="M374.7 714.5l-77.2 12.3v35.7c.1.1 47.6-2.3 77.2-48z" class="st22" />
    <path fill="#231f20" d="M120.7 281.7l-.9 1.9-.1.2-.9 2-.1.2-.8 2.1-.1.3-.8 2.2-.1.3-.8 2.3-.1.4-.8 2.4-.1.4-.7 2.6-.1.4-.7 2.7-.1.4-.7 2.8-.1.3-.7 2.9v.2l-.7 3.1v.1l-2.2 9.9v.1l-.7 3.3c-3.9 19.4-6.8 38.3-8 45-2.4 12.9-7.5 30.5-11.8 47.4s-12.7 85.2-14.3 108c-1.6 22.8-.9 34.2-.9 34.2l.6 19 5.2 21.9 10.5-146 7.8-43.1 17.4-95.8c54.7-78.1 122.9-106.9 182.9-106.9 60.9 0 129.8 28.8 184.7 107.1l18 99.4 7.1 39.1 10.5 146 3-12.6c.5-10 .9-19.6 1.1-28.1 0 0 .6-11.5-.9-34.2-1.6-22.8-9.9-91.1-14.3-108-4.3-16.9-9.4-34.5-11.8-47.4-1.3-7.1-4.5-28.2-8.8-48.9l-2.7-12.1v-.2l-.7-2.8v-.2l-.7-2.8v-.1l-1.5-5.4-.1-.3-.7-2.4-.1-.4-.7-2.3-.1-.3-.8-2.2v-.1l-.8-2.1-.1-.2-.8-1.9-.1-.3-.8-1.8-.1-.3-.8-1.6-.1-.2a12 12 0 0 1-.8-1.6c-10.8-19.2-83.1-69.5-106.3-76.6-23.1-7.2-69.6-7-69.6-7s-46.5-.2-69.6 7-95.4 57.5-106.3 76.6c-.7.7-1 1.3-1.4 2 .1-.1.1 0 0 0z" opacity=".2" />
    <path d="M109.7 503.5s36.8 42.2 80.5 40.1c43.7-2.1 64.2-41.7 64.2-41.7" class="st3" />
    <path d="M78.6 449l7.7-1.1 12.1 3.6 7.8 21.6 10.7 19.6 3.4 3.3 11 7.8 20.4 4.8H170l41.2-2.3 34.9-3.8 12.9-6.1s-5 8.6-12.9 12.1c0 0-97.1 30-137.6-6.6 0 0-3.5-5.3-6.5-13.4l-.2-.2-.4-1.7a161 161 0 0 1-.9-3.4c-7.7-27.5-22.9-19.5-22.9-19.5l1-14.7z" class="st4" />
    <path d="M255.7 420.8c-6.2-50.3-61-70.9-93.7-56.7 0 0-60.8 12.4-52.7 55.6 32.9-8 76.1-8.4 76.1-8.4l47.4 2.2 22.9 7.3z" class="st3" />
    <path d="M276.9 590.9s-18.9 3.4-31.1-5.5c-12.2-8.9 3.7-14.5 3.7-14.5l25.9 6.7 1.5 13.3z" class="st6" />
    <path d="M240.7 586.9s31.7 31.3 56.9 31.3v-26.4L267 575.4l-19.8.5-6.5 11z" class="st7" />
    <linearGradient id="SVGID_5_" x1="113.9" x2="256.1" y1="159.4" y2="235" gradientTransform="matrix(1 0 0 -1 0 896)" gradientUnits="userSpaceOnUse">
        <stop offset="0" stop-color="#231f20" />
        <stop offset=".2" stop-color="#51413a" stop-opacity=".8" />
        <stop offset=".4" stop-color="#856756" stop-opacity=".6" />
        <stop offset=".6" stop-color="#ae856d" stop-opacity=".4" />
        <stop offset=".7" stop-color="#cb9a7e" stop-opacity=".3" />
        <stop offset=".9" stop-color="#dda787" stop-opacity=".1" />
        <stop offset="1" stop-color="#e3ac8b" stop-opacity="0" />
    </linearGradient>
    <path fill="url(#SVGID_5_)" d="M202.3 831.8c-30.1-32.7-57.1-60.6-76.5-87.4C106.4 717.6 89 699 83 669.7c-6-29.2-9-77.1-9.8-110 0 0-.6-11.5.9-34.2l1.3-15 140.2 198 81.9 30.4v146.6s-26.6-3.4-41.6-9.1c-14.8-5.7-23.5-11.9-53.6-44.6z" opacity=".1" />
    <path d="M297.6 595.6s-13.5-1.8-34.9 3.6-66.8 35.4-66.8 35.4-23.2 28.1 9.8 27.1c30.3-19.1 37.1-20.4 37.1-20.4l35.4-2 19.4 2v-45.7z" class="st8" />
    <path d="M297.6 783.4s-25.3-7.9-30-13.2-10.5-33.1-10.5-33.1h40.5v46.3z" class="st9" />
    <path d="M220.1 680.9l77.5 4.5v29.1l-66.3-.1-15.6-15.3zM246.6 577.1c-1.1 3.8 4.1 8.6 11.5 10.7 7.4 2.1 14.3.7 15.4-3.2s-4.1-8.6-11.5-10.7c-7.4-2.1-14.3-.7-15.4 3.2z" class="st0" />
    <path d="M221.9 669.4c-2.3 2.9-1.3 14.4-1.3 14.4s.1 11.3 4.1 15.7l-12.4-4-5.7-13 .9-15.8c.1 0 16.7-.2 14.4 2.7z" class="st10" />
    <path d="M297.6 653.5h-50.9l-33.1 10.6-.7 5.7 84.7-3.1z" class="st10" />
    <path d="M243.4 707.7l1.1-1.1h11l1.6 1.9v6l-13.7-3.9zM229.7 707.2l1.1-1.1h11l1.6 1.9v6l-13.7-4z" class="st11" />
    <path d="M253.2 685.1l8.3 25.2 36.1 5.3v-34.3z" class="st12" />
    <path d="M257.1 708.7l1-1.7h11.1l1.6 3v9.4l-13.7-4.5z" class="st11" />
    <path d="M270.8 709.6l.5-1.5h6l.9 2.7v10l-7.4-1.5zM278.2 709.6l.7-1.5h7.4l1.1 2.7v10l-9.2-1.5zM287.4 710.3l.7-1.8h8.3l1.2 3.1v11.1h-10.2z" class="st11" />
    <path d="M297.6 636.5l18.3-2.6s25.6-6.1 45.6 5.2 34.1 25.4 33.2 35.8c-.9 10.4-2.8 26.9-33.7 52.1-30.8 25.2-63.4 24.5-63.4 24.5v-32.1s12.2 2 32.1-2.8c20-4.8 55.1-21.5 55.8-32.8.4-7.6-4.6-17.6-24.5-20.2-20-2.6-63.4-.2-63.4-.2v-26.9zM297.6 636.5l-18.3-2.6s-25.6-6.1-45.6 5.2-34.1 25.4-33.2 35.8c.9 10.4 2.8 26.9 33.7 52.1 30.8 25.2 63.4 24.5 63.4 24.5v-32.1s-12.2 2-32.1-2.8c-20-4.8-55.1-21.5-55.8-32.8-.4-7.6 4.6-17.6 24.5-20.2 20-2.6 63.4-.2 63.4-.2v-26.9z" class="st25" />
    <linearGradient id="SVGID_6_" x1="636.5" x2="636.5" y1="244.9" y2="434.1" gradientTransform="rotate(180 343.5 448)" gradientUnits="userSpaceOnUse">
        <stop offset="0" stop-color="#ecc7b1" />
        <stop offset="1" stop-color="#e6cbb3" />
    </linearGradient>
    <path fill="url(#SVGID_6_)" d="M73.3 486.1s-7.5-32.6-43.4-22.1c-14.3 8.8-6.1 41.9-5 52.4 1.1 10.5 5.5 14.3 8.8 23.2s8.9 66.9 10.5 75.1 3.3 19.3 6.1 24.8 13.8 11.6 13.8 11.6h15.4l-6.2-165z" />
    <path d="M66.7 582.1v.2l.2 2.7c0 .6.4 2.2.2 2.7-1.4 2.8-4.7 1.4-6.8.2-1.1-.7-2-2.1-2.8-3l-2.7-3.1a32 32 0 0 1-6.9-21.9c0-3 .3-6 .2-9-.3-8.9-1.9-17.6-4.2-26.3-1.5-5.6-4.9-13.4-2.5-19.3 2-5.1 8.5-6.3 13.2-7.5l.1.5.5 2.8.8 5.1 1.1 8.1 1.5 10.3 1.8 11.1 1.9 10.7 1.7 10.1a301 301 0 0 1 2.7 25.6z" class="st14" />
    <path d="M255.5 365.1l-.2-.6a23 23 0 0 0-8.2-10.1 55.3 55.3 0 0 0-38.7-11.6c-6.4.5-12.7 1.6-18.9 3-18.2 4-38.1 11.1-53.6 21.6a64 64 0 0 0-19.6 20.2c-.3.6-1.1 3-1.7 3.3 0 0 79.4-46.2 119.4-18 5.7 4 23.7 1.3 21.5-7.8zM60.9 464.4l-10.4 37.9 4.4 88.1 4.5-19.5 1.5 24 4.1-9.7L79.5 611l-3.4-48.8 5.3-103z" class="st0" />
    <path d="M137 417.5c18.6-1.5 27.4-2.2 47.8-2.4 20.4-.2 62.1 2.8 76.7 10.3 11.3 10.2 7.3 19.5 3 37.8-1 4.3-1.9 8.4-3.1 12.1-6.2-9.1-3.8-40.2-46.7-45.9l-15.7-2.5s-26-4.8-89.3 6.6c4.5-12.2 15.1-15.3 27.3-16z" class="st15" />
    <path d="M178.1 442.2c2 9.8 7.9 8.1 17.7 8.1s16.2 2.5 17.7-8.1c1.4-10.1-5-18.5-17.7-18.5-12.6-.1-19.7 8.4-17.7 18.5z" class="st16" />
    <path d="M150.6 438.5c24.7-9.1 33-11.7 48.8-11 20.1.9 41.6 19.2 41.6 19.2S224 418 185.3 424c0 .1-15.8 1.9-34.7 14.5zM221.4 449.2s-39.6 5.2-67.7-7.3c0 0 5.9 8.6 31.8 10.8 26 2.1 35.9-3.5 35.9-3.5z" class="st0" />
    <path d="M297.6 687.7s-2.3 1.3-2.8 1.3h-9.4c-.8 0-2.8-1.3-2.8-1.3v-20.4l15-.5v20.9z" class="st17" />
    <path d="M282.6 687s-2.3 1.2-2.8 1.2h-9.4c-.8 0-2.8-1.2-2.8-1.2v-19.2l15-.5V687z" class="st11" />
    <path d="M267.6 686.2s-1.8 1.2-2.3 1.2h-7.5c-.7 0-2.3-1.2-2.3-1.2v-18l12.1-.5v18.5z" class="st17" />
    <path d="M255.5 685.5s-1.8 1.1-2.3 1.1h-7.5c-.7 0-2.3-1.1-2.3-1.1v-17.6l12.1.3v17.3z" class="st11" />
    <path d="M243.4 684.4s-1.8 1.1-2.3 1.1h-7.5c-.7 0-2.3-1.1-2.3-1.1v-16l12.1-.5v16.5z" class="st17" />
    <path d="M231.3 683.8s-1.6 1.1-2.1 1.1h-6.7c-.6 0-2.1-1.1-2.1-1.1s-.8-8.6 0-12.7 10.9-2.8 10.9-2.8v15.5z" class="st11" />
    <path d="M297.6 666.7h-75.1" class="st18" />
    <path d="M188.5 438.1a7.4 7.4 0 1 0 14.8 0 7.4 7.4 0 1 0-14.8 0z" class="st0" />
    <path d="M185.4 435c0 2.2 1.8 4 4 4s4-1.8 4-4-1.8-4-4-4-4 1.8-4 4z" class="st19" />
    <path d="M184.8 415.1c20.4-.2 62.1 2.8 76.7 10.3 11.3 10.2 7.3 19.5 3 37.8-4.2 18.2-6.3 31.5-39.2 35.7-33 4.1-59.5 5.9-85 .3 0 0-31-3.8-32.1-43-3.4-31.6 10.9-37.7 28.7-38.7a552 552 0 0 1 47.9-2.4z" class="st20" />
    <path fill="#e6b497" d="M469.3 744.4c-19.4 26.8-46.4 54.7-76.5 87.4s-38.8 38.9-53.7 44.6c-14.9 5.7-41.6 9.1-41.6 9.1s-26.6-3.4-41.6-9.1c-14.9-5.7-23.6-11.9-53.7-44.6s-57.1-60.6-76.5-87.4l-9.3-12.5v131c46.9 20.3 110.7 32.7 181.1 32.7 70.3 0 134.1-12.5 181.1-32.7v-131l-9.3 12.5z" />
    <path d="M297.6 438.1c10.4 0 12.8 7 15.1 10.8 2.3 3.8 11.7 68.4 21.9 75 6 4.2 13.1 10.4 22.5 19.2s11.3 25.2 10 32-5.4 11.2-13 12-5.8-9.3-12.1-10.2a22 22 0 0 0-15.2 4.2c-3.7 2.5-3.6 8.8-6.2 11.8-7 8-23 8-23 8M297.6 438.1c-10.4 0-12.8 7-15.1 10.8-2.3 3.8-11.7 68.4-21.9 75-6 4.2-13.1 10.4-22.5 19.2s-11.3 25.2-10 32 5.4 11.2 13 12 5.8-9.3 12.1-10.2c6.3-.9 11.5 1.8 15.2 4.2s3.6 8.8 6.2 11.8c7 8 23 8 23 8" class="st6" />
    <linearGradient id="SVGID_7_" x1="297.6" x2="367.5" y1="519.5" y2="519.5" gradientUnits="userSpaceOnUse">
        <stop offset="0" stop-color="#ecc7b1" />
        <stop offset="1" stop-color="#e6cbb3" />
    </linearGradient>
    <path fill="url(#SVGID_7_)" d="M297.6 438.1c10.4 0 12.8 7 15.1 10.8 2.3 3.8 11.7 68.4 21.9 75 6 4.2 13.1 10.4 22.5 19.2s11.3 25.2 10 32-5.4 11.2-13 12-5.8-9.3-12.1-10.2a22 22 0 0 0-15.2 4.2c-3.7 2.5-3.6 8.8-6.2 11.8-7 8-23 8-23 8" />
    <linearGradient id="SVGID_8_" x1="227.7" x2="297.6" y1="519.5" y2="519.5" gradientUnits="userSpaceOnUse">
        <stop offset="0" stop-color="#ecc7b1" />
        <stop offset="1" stop-color="#e6cbb3" />
    </linearGradient>
    <path fill="url(#SVGID_8_)" d="M297.6 438.1c-10.4 0-12.8 7-15.1 10.8-2.3 3.8-11.7 68.4-21.9 75-6 4.2-13.1 10.4-22.5 19.2s-11.3 25.2-10 32 5.4 11.2 13 12 5.8-9.3 12.1-10.2c6.3-.9 11.5 1.8 15.2 4.2s3.6 8.8 6.2 11.8c7 8 23 8 23 8" />
    <path fill="#231f20" d="M275.7 464.3l10.5-25.3 11.4-4 19.8 16.6c-20.6-7.3-29.9-3.4-42.5 21-12.2 24 .8-8.3.8-8.3z" opacity=".1" />
    <g>
        <path d="M264.5 416.1c-21-4.5-59.3-9.3-90-9.2-27.8 1.7-44.4-.1-86.8 12A67 67 0 0 0 55.5 438L38 461.9l.2.3a30.3 30.3 0 0 1 23.5 5.9s26.6-17.5 35.7-6.2c3.1 3.7 5.1 16.9 9 25.5s18.5 22.4 54 23.1c30 .5 80.2-1.5 96-11.6 0 0 16.5-13.4 24-42.4 0 0 3.4-15.2 17-15.2v-20.9c.2 0-12.4-1.8-32.9-4.3zm.1 47.1c-4.2 18.2-6.3 31.5-39.2 35.7-33 4.1-59.5 5.9-85 .3 0 0-31-3.8-32.1-43-3.4-31.6 10.9-37.7 28.7-38.7 18.6-1.5 27.4-2.2 47.8-2.4 20.4-.2 62.1 2.8 76.7 10.3 11.4 10.2 7.3 19.5 3.1 37.8zM556.8 462.2l.2-.3-17.5-23.9s-10.3-12.8-32.2-19.1c-42.4-12.2-59-10.4-86.8-12-30.7-.1-69 4.7-90 9.2-20.5 2.5-33 4.3-33 4.3v20.9c13.6 0 17 15.2 17 15.2a84 84 0 0 0 24 42.4c15.8 10.1 66 12.1 96 11.6 35.5-.6 50.1-14.5 54-23.1s5.9-21.7 9-25.5c9.1-11.2 35.7 6.2 35.7 6.2 5.4-4.2 13-7.2 23.6-5.9zm-70-6c-1.1 39.1-32.1 43-32.1 43-25.4 5.6-52 3.8-85-.3s-35-17.5-39.2-35.7-8.3-27.6 3-37.8c14.7-7.6 56.3-10.6 76.7-10.3 20.4.2 29.3.9 47.8 2.4 17.9 1 32.2 7.1 28.8 38.7z" class="st31" />
    </g>
    <g opacity=".1">
        <path d="M355.4 566.7c-5.1-2.7-25.3-2.6-39.1 8.1-7.4 5.7-14.2 3.7-18.8 3.7v22.3s16 0 23-8c2.6-2.9 2.5-9.3 6.2-11.8s8.8-5.1 15.2-4.2c6.3.9 4.5 11 12.1 10.2 6.7-.7 10.7-4.1 12.4-9.5a25.4 25.4 0 0 0-11-10.8z" class="st33" />
        <path d="M239.7 566.7c5.1-2.7 25.3-2.6 39.1 8.1 7.4 5.7 14.2 3.7 18.8 3.7v22.3s-16 0-23-8c-2.6-2.9-2.5-9.3-6.2-11.8s-8.8-5.1-15.2-4.2c-6.3.9-4.5 11-12.1 10.2-6.7-.7-10.7-4.1-12.4-9.5 3.2-5.3 5.9-8.1 11-10.8z" class="st33" />
    </g>
    <g>
        <path d="M49.5 445.7l-.1-.8-6.7 5.8 6.8-5zM552.5 450.7l-6.7-5.8-.1.8 6.8 5z" class="st34" />
        <path d="M297.7 33.5c6.5 1.2 18.1 17.7 23.8 22.4 11 9.2 22.7 17.5 34.2 25.9.2-5.4-.6-10.9-1.1-16.2 4.4 4.6 7.8 10.3 11.3 15.6a974 974 0 0 0 7.2 10.6 8.4 8.4 0 0 0 5 5.5c.9-3.5 1.7-11.4 5.7-13.1 4.5-1.8 9.2 5.5 11.2 8.4 3 4.2 5.3 9 8 13.4 5.2 8.4 11.6 16.9 15 26.2.8 2.2 1.9 5.3.2 7.3-1.2 1.4-5.5 1.2-6 2-.5.9.7 2.3.4 3.4-.6 2.6-2.1 2.6-.8 5.8 3.2 8.4 14.8 14.6 22 18.5a156.5 156.5 0 0 0 41.1 13.7c7.3 1.6 15.9 2.1 18.6 10.3 2.6 8 1.1 17.6 2.3 26 1 7.2 3.2 13 7 19.1-9.4-1.3-18.3-4.6-27-8.1-3.8-1.5-8.2-4-12.5-4.3.1 2.7 2.2 5 3.6 7.1 3.5 5.3 6.7 10.6 10.8 15.5 9.8 11.8 21 22 29.7 34.6-3.6.6-7.2-.9-10.8.3a82 82 0 0 0 8.7 15.9c3 4.1 7.3 7.7 10 12 1.4 2.2 1.4 2.1-.5 3.2-1.6 1-4.5 1.1-6.3 1.6-6.8 3.8 29.7 44.3 32.3 48.6-.8-1.6-5.8-1.9-7.3-2.2-4.5-1-9.5-3.6-14.1-3.5-.2 1.7 1.3 3.4 1.8 4.9 2.5 7.1 3 14.4 6.4 21.2 4.5 9.1 10.5 17.4 15.4 26.4-4.2-1.7-8.4-3.1-12.6-4.6-3.6-1.3-6.9-2.8-10.7-2.9-.6 4 2.2 7.1 4.4 10.2 3.6 4.9 5.6 10.7 8.5 16 2.9 5.4 6 8.8 10.7 12.6l2.5 2.2c.5-2.1 1.7-3.2 4.7-1 4.3 3 7.7 7.6 11.1 11.5l4.5 5.2 28.5 20.8-26.9-66.5h21.1l-21.1-22 6-7.5-6-12 27.1 6.5-33-24.2h19.5l-30-24.2 16.4-18.1-23-22.5 6.5-39-22.5-33-6-31.5-12 24-9-46.5-10.5-4.5-10.7-24v15l-11.8-12-1.2-1.9c-1.9-2.2-3.6-4.5-4.9-6.6s-2.5-4.2-4.3-5.9c-1.1-1.1-2.3-1.9-3.1-3.2a16.2 16.2 0 0 1-2.3-6.7L440.3 96l-19.5-30V28.5L409 39l-7.7-10.5V57l-19.5-33L371 37.5 360.8 0l-26.4 31.5L297.7 0h-.2l-36.7 31.5L234.5 0l-10.3 37.5L213.5 24 194 57V28.5L186.3 39l-11.8-10.5V66L155 96l-12.6 19.3c-.2 2.4-1.2 4.9-2.3 6.7-.8 1.3-2.1 2.1-3.1 3.2-1.8 1.7-3 3.8-4.3 5.9-1.3 2.1-3 4.4-4.9 6.6l-1.2 1.9-11.8 12v-15l-10.7 24-10.6 4.4-9 46.5-12-24-6 31.5L44 252l6.5 39-22.9 22.5L44 331.6l-30 24.2h19.5L.5 380l27.1-6.5-6 12 6 7.5-21.1 22h21.1L.5 481.5 29 460.7l4.5-5.2c3.4-3.9 6.9-8.5 11.1-11.5 3.1-2.2 4.3-1.1 4.7 1l2.5-2.2c4.7-3.9 7.7-7.2 10.7-12.6 2.9-5.3 5-11.1 8.5-16 2.2-3 5-6.1 4.4-10.2-3.8.1-7.1 1.6-10.7 2.9l-12.6 4.6c4.8-9 10.9-17.3 15.4-26.4 3.4-6.8 3.8-14.1 6.4-21.2.5-1.5 2-3.2 1.8-4.9-4.6-.1-9.6 2.6-14.1 3.5-1.6.3-6.5.7-7.3 2.2 2.6-4.3 39-44.8 32.3-48.6-1.8-.6-4.8-.7-6.3-1.6-1.9-1.2-1.9-1-.5-3.2 2.8-4.3 7-7.9 10-12 3.6-5 6.3-10.2 8.7-15.9-3.6-1.2-7.2.3-10.8-.3 8.7-12.6 20-22.8 29.7-34.6 4.1-4.9 7.2-10.2 10.8-15.5 1.4-2.1 3.5-4.4 3.6-7.1-4.3.3-8.7 2.9-12.5 4.3a129 129 0 0 1-27 8.1 47 47 0 0 0 7-19.1c1.2-8.3-.4-17.9 2.3-26 2.7-8.2 11.3-8.8 18.6-10.3a153 153 0 0 0 41.1-13.7c7.2-3.9 18.8-10.1 22-18.5 1.3-3.3-.2-3.2-.8-5.8-.3-1 1-2.5.4-3.4-.5-.9-4.9-.6-6-2-1.7-2-.6-5.2.2-7.3 3.4-9.4 9.8-17.8 15-26.2 2.7-4.4 5-9.2 8-13.4 2-2.8 6.7-10.2 11.2-8.4 4 1.6 4.9 9.5 5.7 13.1a8.1 8.1 0 0 0 5-5.5c2.5-3.5 4.9-7 7.2-10.6 3.5-5.3 6.9-11 11.3-15.6-.5 5.4-1.3 10.8-1.1 16.2 11.6-8.4 23.2-16.7 34.2-25.9 5.8-4.8 17-17.9 24.1-22.4z" class="st34" />
    </g>
</svg>