<svg xmlns="http://www.w3.org/2000/svg">
    <symbol id="icon-codepen" viewBox="0 0 32 32">
        <title>Codepen</title>
        <path d="M31.375,10 C31.7916687,10.2500013 32,10.6249975 32,11.125 L32,20.875 C32,21.3750025 31.7916687,21.7499988 31.375,22 L16.75,31.75 C16.2499975,32.083335 15.7500025,32.083335 15.25,31.75 L0.625,22 C0.20833125,21.7499988 0,21.3750025 0,20.875 L0,11.125 C0,10.6249975 0.20833125,10.2500013 0.625,10 L15.25,0.25 C15.7500025,-0.083335 16.2499975,-0.083335 16.75,0.25 L31.375,10 Z M17.375,3.9375 L17.375,10.375 L23.3125,14.3125 L28.125,11.125 L17.375,3.9375 Z M14.625,3.9375 L3.875,11.125 L8.6875,14.3125 L14.625,10.375 L14.625,3.9375 Z M2.75,13.6875 L2.75,18.3125 L6.1875,16 L2.75,13.6875 Z M14.625,28.0625 L14.625,21.625 L8.6875,17.6875 L3.875,20.875 L14.625,28.0625 Z M16,19.25 L20.875,16 L16,12.75 L11.125,16 L16,19.25 Z M17.375,28.0625 L28.125,20.875 L23.3125,17.6875 L17.375,21.625 L17.375,28.0625 Z M29.25,18.3125 L29.25,13.6875 L25.8125,16 L29.25,18.3125 Z" />
    </symbol>
    <symbol id="icon-github" viewBox="0 0 32 32">
        <title>Github</title>
        <path d="M10.875,24.8125 C10.875,24.9791675 10.7604178,25.0729166 10.53125,25.09375 C10.3020822,25.1145834 10.1875,25.0416675 10.1875,24.875 C10.1875,24.7083325 10.2916656,24.625 10.5,24.625 C10.6250006,24.625 10.7187497,24.6458331 10.78125,24.6875 C10.8437503,24.7291669 10.875,24.7708331 10.875,24.8125 Z M8.9375,24.5625 C8.97916688,24.3958325 9.10416563,24.3437497 9.3125,24.40625 C9.52083437,24.4687503 9.61458344,24.5520828 9.59375,24.65625 C9.57291656,24.7604172 9.52083375,24.8333331 9.4375,24.875 C9.35416625,24.9166669 9.27083375,24.9166669 9.1875,24.875 C9.10416625,24.8333331 9.03125031,24.7812503 8.96875,24.71875 C8.90624969,24.6562497 8.89583312,24.6041669 8.9375,24.5625 Z M11.6875,24.4375 C11.8958344,24.4375 12.0104166,24.4999994 12.03125,24.625 C12.0520834,24.7500006 11.9583344,24.8541662 11.75,24.9375 C11.6666663,24.9375 11.5937503,24.9270834 11.53125,24.90625 C11.4687497,24.8854166 11.4270834,24.8125006 11.40625,24.6875 C11.3854166,24.5624994 11.4791656,24.4791669 11.6875,24.4375 Z M15.8125,0.5 C18.6458475,0.5 21.2708213,1.16666 23.6875,2.5 C26.1041787,3.83334 27.9999931,5.64582188 29.375,7.9375 C30.7916738,10.3125119 31.5,12.9166525 31.5,15.75 C31.5,19.2083506 30.5312597,22.3020697 28.59375,25.03125 C26.6562403,27.7604303 24.1250156,29.6458281 21,30.6875 C20.666665,30.7708337 20.4062509,30.7291675 20.21875,30.5625 C20.0312491,30.3958325 19.9375,30.1875013 19.9375,29.9375 L19.9375,24.6875 C19.9375,23.35416 19.5833369,22.3958363 18.875,21.8125 C20.4166744,21.6458325 21.5624962,21.4375013 22.3125,21.1875 C23.4791725,20.7708313 24.3749969,20.1458375 25,19.3125 C25.7083369,18.2291613 26.0625,16.7500094 26.0625,14.875 C26.0625,14.0833294 25.9166681,13.3958363 25.625,12.8125 C25.4166656,12.3958313 25.0208362,11.8750031 24.4375,11.25 C24.6041675,10.8333313 24.7083331,10.3333363 24.75,9.75 C24.7916669,8.83332875 24.645835,7.91667125 24.3125,7 C23.8958313,6.87499938 23.3125037,6.95833187 22.5625,7.25 C22.0624975,7.45833437 21.47917,7.74999813 20.8125,8.125 L20,8.6875 C18.7083269,8.31249813 17.3854234,8.125 16.03125,8.125 C14.6770766,8.125 13.3750063,8.31249813 12.125,8.6875 L11.3125,8.125 C10.64583,7.74999813 10.0416694,7.45833437 9.5,7.25 C8.74999625,6.95833187 8.18750187,6.87499938 7.8125,7 C7.43749813,7.91667125 7.29166625,8.83332875 7.375,9.75 C7.375,10.3333363 7.4583325,10.8124981 7.625,11.1875 C7.1249975,11.8125031 6.76041781,12.3854141 6.53125,12.90625 C6.30208219,13.4270859 6.1875,14.0833294 6.1875,14.875 C6.1875,16.7500094 6.52083,18.2083281 7.1875,19.25 C7.77083625,20.1250044 8.6458275,20.7708313 9.8125,21.1875 C10.5625037,21.4375013 11.6874925,21.6458325 13.1875,21.8125 C12.6458306,22.3125025 12.3125006,23.0208287 12.1875,23.9375 C11.4791631,24.270835 10.79167,24.3958338 10.125,24.3125 C9.04166125,24.2291662 8.20833625,23.6666719 7.625,22.625 C7.37499875,22.1666644 7.04166875,21.7916681 6.625,21.5 C6.33333187,21.3333325 6.020835,21.1875006 5.6875,21.0625 L5.25,21 C4.79166437,21 4.55208344,21.0729159 4.53125,21.21875 C4.51041656,21.3645841 4.60416563,21.5208325 4.8125,21.6875 L5.125,21.9375 C5.41666813,22.1041675 5.70833187,22.3749981 6,22.75 C6.25000125,23.0416681 6.4583325,23.3749981 6.625,23.75 L6.875,24.25 C7.08333437,24.8750031 7.47916375,25.354165 8.0625,25.6875 C8.5625025,25.9791681 9.16666312,26.1666662 9.875,26.25 C10.3750025,26.2916669 10.8958306,26.2708338 11.4375,26.1875 L12.125,26.125 L12.1875,29.9375 C12.1875,30.1875013 12.0937509,30.3958325 11.90625,30.5625 C11.7187491,30.7291675 11.458335,30.7708337 11.125,30.6875 C7.9583175,29.6458281 5.39584312,27.7604303 3.4375,25.03125 C1.47915688,22.3020697 0.5,19.2083506 0.5,15.75 C0.5,12.9166525 1.16666,10.333345 2.5,8 C3.83334,5.666655 5.666655,3.83334 8,2.5 C10.333345,1.16666 12.9374856,0.5 15.8125,0.5 Z M6.5625,22.0625 C6.64583375,21.9791662 6.74999937,21.9999994 6.875,22.125 C7.00000063,22.2500006 7.02083375,22.3541662 6.9375,22.4375 C6.85416625,22.5208338 6.75000063,22.5000006 6.625,22.375 C6.49999937,22.2499994 6.47916625,22.1458338 6.5625,22.0625 Z M5.875,21.5625 C5.95833375,21.4791662 6.06249937,21.4687497 6.1875,21.53125 C6.31250063,21.5937503 6.35416687,21.6770828 6.3125,21.78125 C6.27083312,21.8854172 6.17708406,21.8958338 6.03125,21.8125 C5.88541594,21.7291662 5.83333313,21.6458338 5.875,21.5625 Z M7.9375,23.75 C7.97916688,23.7083331 8.04166625,23.6979166 8.125,23.71875 C8.20833375,23.7395834 8.28124969,23.7812497 8.34375,23.84375 C8.40625031,23.9062503 8.44791656,23.9791662 8.46875,24.0625 C8.48958344,24.1458338 8.47916688,24.2083331 8.4375,24.25 C8.31249937,24.3750006 8.1666675,24.3541675 8,24.1875 C7.91666625,24.1041662 7.875,24.0208338 7.875,23.9375 C7.875,23.8541662 7.89583312,23.7916669 7.9375,23.75 Z M7.1875,22.875 C7.27083375,22.8333331 7.34374969,22.8229166 7.40625,22.84375 C7.46875031,22.8645834 7.52083313,22.9166662 7.5625,23 C7.68750063,23.1666675 7.68750063,23.2916662 7.5625,23.375 C7.52083313,23.4166669 7.46875031,23.4166669 7.40625,23.375 C7.34374969,23.3333331 7.27083375,23.2916669 7.1875,23.25 C7.10416625,23.0416656 7.10416625,22.9166669 7.1875,22.875 Z" />
    <symbol id="icon-instagram" viewBox="0 0 32 32">
        <title>Instagram</title>
        <path d="M16,8.8125 C17.2916731,8.8125 18.4895778,9.13541344 19.59375,9.78125 C20.6979222,10.4270866 21.5729134,11.3020778 22.21875,12.40625 C22.8645866,13.5104222 23.1875,14.7083269 23.1875,16 C23.1875,17.2916731 22.8645866,18.4895778 22.21875,19.59375 C21.5729134,20.6979222 20.6979222,21.5729134 19.59375,22.21875 C18.4895778,22.8645866 17.2916731,23.1875 16,23.1875 C14.7083269,23.1875 13.5104222,22.8645866 12.40625,22.21875 C11.3020778,21.5729134 10.4270866,20.6979222 9.78125,19.59375 C9.13541344,18.4895778 8.8125,17.2916731 8.8125,16 C8.8125,14.7083269 9.13541344,13.5104222 9.78125,12.40625 C10.4270866,11.3020778 11.3020778,10.4270866 12.40625,9.78125 C13.5104222,9.13541344 14.7083269,8.8125 16,8.8125 Z M16,20.6875 C17.2916731,20.6875 18.3958287,20.2291713 19.3125,19.3125 C20.2291713,18.3958287 20.6875,17.2916731 20.6875,16 C20.6875,14.7083269 20.2291713,13.6041713 19.3125,12.6875 C18.3958287,11.7708287 17.2916731,11.3125 16,11.3125 C14.7083269,11.3125 13.6041713,11.7708287 12.6875,12.6875 C11.7708287,13.6041713 11.3125,14.7083269 11.3125,16 C11.3125,17.2916731 11.7708287,18.3958287 12.6875,19.3125 C13.6041713,20.2291713 14.7083269,20.6875 16,20.6875 Z M25.1875,8.5 C25.1458331,8.95833563 24.9687516,9.354165 24.65625,9.6875 C24.3437484,10.020835 23.9583356,10.1875 23.5,10.1875 C23.0416644,10.1875 22.645835,10.020835 22.3125,9.6875 C21.979165,9.354165 21.8125,8.95833563 21.8125,8.5 C21.8125,8.04166437 21.979165,7.645835 22.3125,7.3125 C22.645835,6.979165 23.0416644,6.8125 23.5,6.8125 C23.9583356,6.8125 24.354165,6.979165 24.6875,7.3125 C25.020835,7.645835 25.1875,8.04166437 25.1875,8.5 Z M29.9375,10.1875 C29.9791669,11.3541725 30,13.2916531 30,16 C30,18.7083469 29.9687503,20.6562441 29.90625,21.84375 C29.8437497,23.0312559 29.6666681,24.0624956 29.375,24.9375 C28.9999981,25.9791719 28.4270872,26.8854128 27.65625,27.65625 C26.8854128,28.4270872 25.9791719,28.9999981 24.9375,29.375 C24.0624956,29.6666681 23.0312559,29.8437497 21.84375,29.90625 C20.6562441,29.9687503 18.7083469,30 16,30 C13.2916531,30 11.3437559,29.9687503 10.15625,29.90625 C8.96874406,29.8437497 7.93750437,29.645835 7.0625,29.3125 C6.02082812,28.979165 5.11458719,28.4270872 4.34375,27.65625 C3.57291281,26.8854128 3.00000187,25.9791719 2.625,24.9375 C2.33333187,24.0624956 2.15625031,23.0312559 2.09375,21.84375 C2.03124969,20.6562441 2,18.7083469 2,16 C2,13.2916531 2.03124969,11.3437559 2.09375,10.15625 C2.15625031,8.96874406 2.33333187,7.93750437 2.625,7.0625 C3.00000187,6.02082813 3.57291281,5.11458719 4.34375,4.34375 C5.11458719,3.57291281 6.02082812,3.00000188 7.0625,2.625 C7.93750437,2.33333188 8.96874406,2.15625031 10.15625,2.09375 C11.3437559,2.03124969 13.2916531,2 16,2 C18.7083469,2 20.6562441,2.03124969 21.84375,2.09375 C23.0312559,2.15625031 24.0624956,2.33333188 24.9375,2.625 C25.9791719,3.00000188 26.8854128,3.57291281 27.65625,4.34375 C28.4270872,5.11458719 28.9999981,6.02082813 29.375,7.0625 C29.6666681,7.93750437 29.8541662,8.97916062 29.9375,10.1875 Z M26.9375,24.25 C27.1875013,23.5416631 27.3541662,22.4166744 27.4375,20.875 C27.4791669,19.9583287 27.5,18.666675 27.5,17 L27.5,15 C27.5,13.2916581 27.4791669,12.0000044 27.4375,11.125 C27.3541662,9.54165875 27.1875013,8.41667 26.9375,7.75 C26.4374975,6.45832688 25.5416731,5.5625025 24.25,5.0625 C23.58333,4.81249875 22.4583413,4.64583375 20.875,4.5625 C19.9583287,4.52083313 18.666675,4.5 17,4.5 L15,4.5 C13.333325,4.5 12.0416713,4.52083313 11.125,4.5625 C9.58332563,4.64583375 8.45833688,4.81249875 7.75,5.0625 C6.45832688,5.5625025 5.5625025,6.45832688 5.0625,7.75 C4.81249875,8.41667 4.64583375,9.54165875 4.5625,11.125 C4.52083312,12.0416713 4.5,13.333325 4.5,15 L4.5,17 C4.5,18.666675 4.52083312,19.9583287 4.5625,20.875 C4.64583375,22.4166744 4.81249875,23.5416631 5.0625,24.25 C5.60416937,25.5416731 6.49999375,26.4374975 7.75,26.9375 C8.45833688,27.1875013 9.58332563,27.3541662 11.125,27.4375 C12.0416713,27.4791669 13.333325,27.5 15,27.5 L17,27.5 C18.7083419,27.5 19.9999956,27.4791669 20.875,27.4375 C22.4583413,27.3541662 23.58333,27.1875013 24.25,26.9375 C25.5416731,26.3958306 26.4374975,25.5000062 26.9375,24.25 Z" />
    </symbol>
    <symbol id="icon-linkedin" viewBox="0 0 32 32">
        <title>LinkedIn</title>
        <path d="M8.25,28 L2.4375,28 L2.4375,9.3125 L8.25,9.3125 L8.25,28 Z M5.375,6.75 C4.45832875,6.75 3.66667,6.41667 3,5.75 C2.33333,5.08333 2,4.29167125 2,3.375 C2,2.45832875 2.33333,1.66667 3,1 C3.66667,0.33333 4.45832875,0 5.375,0 C6.29167125,0 7.08333,0.33333 7.75,1 C8.41667,1.66667 8.75,2.45832875 8.75,3.375 C8.75,4.29167125 8.41667,5.08333 7.75,5.75 C7.08333,6.41667 6.29167125,6.75 5.375,6.75 Z M30,28 L24.1875,28 L24.1875,18.875 C24.1875,17.3749925 24.0625013,16.29167 23.8125,15.625 C23.3541644,14.4999944 22.45834,13.9375 21.125,13.9375 C19.79166,13.9375 18.8541694,14.437495 18.3125,15.4375 C17.8958313,16.1875038 17.6875,17.2916594 17.6875,18.75 L17.6875,28 L11.9375,28 L11.9375,9.3125 L17.5,9.3125 L17.5,11.875 L17.5625,11.875 C17.9791687,11.0416625 18.6458287,10.3541694 19.5625,9.8125 C20.562505,9.14583 21.72916,8.8125 23.0625,8.8125 C25.7708469,8.8125 27.6666612,9.66665813 28.75,11.375 C29.5833375,12.7500069 30,14.8749856 30,17.75 L30,28 Z" />
    </symbol>
</svg>