<svg xmlns="http://www.w3.org/2000/svg" width="32" height="32" viewBox="0 0 32 32">
  <path d="M27.875,5.75 C28.0000006,5.5833325 28.1666656,5.5 28.375,5.5 C28.5833344,5.5 28.7499994,5.5833325 28.875,5.75 L29.625,6.4375 C29.7500006,6.6041675 29.8125,6.79166563 29.8125,7 C29.8125,7.20833437 29.7500006,7.37499938 29.625,7.5 L10.875,26.25 C10.7083325,26.4166675 10.5312509,26.5 10.34375,26.5 C10.1562491,26.5 9.9791675,26.4166675 9.8125,26.25 L2.375,18.8125 C2.24999937,18.6874994 2.1875,18.5208344 2.1875,18.3125 C2.1875,18.1041656 2.24999937,17.9166675 2.375,17.75 L3.125,17.0625 C3.25000063,16.8958325 3.41666562,16.8125 3.625,16.8125 C3.83333437,16.8125 3.99999937,16.8958325 4.125,17.0625 L10.3125,23.25 L27.875,5.75 Z"/>
</svg>
