<svg xmlns="http://www.w3.org/2000/svg">
    <defs>
        <symbol id="icon-astronaut" viewBox="0 0 32 32">
            <path d="M20,8 C21.0833387,8 22.0208294,8.39582937 22.8125,9.1875 C23.6041706,9.97917062 24,10.9166612 24,12 L24,13 C24,14.2500062 23.6875031,15.4166613 23.0625,16.5 C22.4374969,17.5833387 21.5833388,18.4374969 20.5,19.0625 C19.4166613,19.6875031 18.2500062,20 17,20 L15,20 C13.7499937,20 12.5833387,19.6875031 11.5,19.0625 C10.4166613,18.4374969 9.56250312,17.5833387 8.9375,16.5 C8.31249688,15.4166613 8,14.2500062 8,13 L8,12 C8,10.9166612 8.39582937,9.97917062 9.1875,9.1875 C9.97917063,8.39582937 10.9166613,8 12,8 L20,8 Z M22,13 L22,12 C22,11.4583306 21.8020853,10.9895853 21.40625,10.59375 C21.0104147,10.1979147 20.5416694,10 20,10 L12,10 C11.4583306,10 10.9895853,10.1979147 10.59375,10.59375 C10.1979147,10.9895853 10,11.4583306 10,12 L10,13 C10,14.3750069 10.4895784,15.5520784 11.46875,16.53125 C12.4479216,17.5104216 13.6249931,18 15,18 L17,18 C18.3750069,18 19.5520784,17.5104216 20.53125,16.53125 C21.5104216,15.5520784 22,14.3750069 22,13 Z M14,11 L14.75,13.25 L17,14 L14.75,14.75 L14,17 L13.25,14.75 L11,14 L13.25,13.25 L14,11 Z M21,25 C21.8333375,25 22.5416638,25.2916637 23.125,25.875 C23.7083362,26.4583363 24,27.1666625 24,28 L24,31.5 C24,31.6250006 23.9479172,31.7395828 23.84375,31.84375 C23.7395828,31.9479172 23.6250006,32 23.5,32 L22.5,32 C22.3749994,32 22.2604172,31.9479172 22.15625,31.84375 C22.0520828,31.7395828 22,31.6250006 22,31.5 L22,28 C22,27.7083319 21.9062509,27.4687509 21.71875,27.28125 C21.5312491,27.0937491 21.2916681,27 21,27 L11,27 C10.7083319,27 10.4687509,27.0937491 10.28125,27.28125 C10.0937491,27.4687509 10,27.7083319 10,28 L10,31.5 C10,31.6250006 9.94791719,31.7395828 9.84375,31.84375 C9.73958281,31.9479172 9.62500063,32 9.5,32 L8.5,32 C8.37499937,32 8.26041719,31.9479172 8.15625,31.84375 C8.05208281,31.7395828 8,31.6250006 8,31.5 L8,28 C8,27.1666625 8.29166375,26.4583363 8.875,25.875 C9.45833625,25.2916637 10.1666625,25 11,25 L21,25 Z M19,28 C19.2916681,28 19.5312491,28.0937491 19.71875,28.28125 C19.9062509,28.4687509 20,28.7083319 20,29 C20,29.2916681 19.9062509,29.5312491 19.71875,29.71875 C19.5312491,29.9062509 19.2916681,30 19,30 C18.7083319,30 18.4687509,29.9062509 18.28125,29.71875 C18.0937491,29.5312491 18,29.2916681 18,29 C18,28.7083319 18.0937491,28.4687509 18.28125,28.28125 C18.4687509,28.0937491 18.7083319,28 19,28 Z M13,28 C13.2916681,28 13.5312491,28.0937491 13.71875,28.28125 C13.9062509,28.4687509 14,28.7083319 14,29 L14,31.5 C14,31.6250006 13.9479172,31.7395828 13.84375,31.84375 C13.7395828,31.9479172 13.6250006,32 13.5,32 L12.5,32 C12.3749994,32 12.2604172,31.9479172 12.15625,31.84375 C12.0520828,31.7395828 12,31.6250006 12,31.5 L12,29 C12,28.7083319 12.0937491,28.4687509 12.28125,28.28125 C12.4687509,28.0937491 12.7083319,28 13,28 Z M24.4375,20.5 C26.104175,21.1250031 27.4479116,22.1458262 28.46875,23.5625 C29.4895884,24.9791738 30,26.5833244 30,28.375 L30,31.5 C30,31.6250006 29.9479172,31.7395828 29.84375,31.84375 C29.7395828,31.9479172 29.6250006,32 29.5,32 L28.5,32 C28.3749994,32 28.2604172,31.9479172 28.15625,31.84375 C28.0520828,31.7395828 28,31.6250006 28,31.5 L28,28.375 C28,26.7916587 27.4687553,25.4062559 26.40625,24.21875 C25.3437447,23.0312441 24.0416744,22.3125013 22.5,22.0625 C20.49999,23.3541731 18.333345,24 16,24 C13.666655,24 11.50001,23.3541731 9.5,22.0625 C7.95832563,22.3125013 6.65625531,23.0312441 5.59375,24.21875 C4.53124469,25.4062559 4,26.7916587 4,28.375 L4,31.5 C4,31.6250006 3.94791719,31.7395828 3.84375,31.84375 C3.73958281,31.9479172 3.62500063,32 3.5,32 L2.5,32 C2.37499937,32 2.26041719,31.9479172 2.15625,31.84375 C2.05208281,31.7395828 2,31.6250006 2,31.5 L2,28.375 C2,26.5833244 2.51041156,24.9791738 3.53125,23.5625 C4.55208844,22.1458262 5.895825,21.1250031 7.5625,20.5 C6.27082688,19.2499938 5.31250313,17.7500087 4.6875,16 L4,16 C3.70833187,16 3.46875094,15.9062509 3.28125,15.71875 C3.09374906,15.5312491 3,15.2916681 3,15 L3,9 C3,8.70833187 3.09374906,8.46875094 3.28125,8.28125 C3.46875094,8.09374906 3.70833187,8 4,8 L4.6875,8 C5.5208375,5.62498813 6.96873969,3.69792406 9.03125,2.21875 C11.0937603,0.739575937 13.4166538,0 16,0 C18.5833462,0 20.9062397,0.739575937 22.96875,2.21875 C25.0312603,3.69792406 26.4791625,5.62498813 27.3125,8 L28,8 C28.2916681,8 28.5312491,8.09374906 28.71875,8.28125 C28.9062509,8.46875094 29,8.70833187 29,9 L29,15 C29,15.2916681 28.9062509,15.5312491 28.71875,15.71875 C28.5312491,15.9062509 28.2916681,16 28,16 L27.3125,16 C26.6874969,17.7500087 25.7291731,19.2499938 24.4375,20.5 Z M16,22 C17.7916756,22 19.4583256,21.5520878 21,20.65625 C22.5416744,19.7604122 23.7604122,18.5416744 24.65625,17 C25.5520878,15.4583256 26,13.7916756 26,12 C26,10.2083244 25.5520878,8.54167437 24.65625,7 C23.7604122,5.45832563 22.5416744,4.23958781 21,3.34375 C19.4583256,2.44791219 17.7916756,2 16,2 C14.2083244,2 12.5416744,2.44791219 11,3.34375 C9.45832563,4.23958781 8.23958781,5.45832563 7.34375,7 C6.44791219,8.54167437 6,10.2083244 6,12 C6,13.7916756 6.44791219,15.4583256 7.34375,17 C8.23958781,18.5416744 9.45832563,19.7604122 11,20.65625 C12.5416744,21.5520878 14.2083244,22 16,22 Z" />
        </symbol>
        <symbol id="icon-check" viewBox="0 0 32 32">
            <path d="M27.875,5.75 C28.0000006,5.5833325 28.1666656,5.5 28.375,5.5 C28.5833344,5.5 28.7499994,5.5833325 28.875,5.75 L29.625,6.4375 C29.7500006,6.6041675 29.8125,6.79166563 29.8125,7 C29.8125,7.20833437 29.7500006,7.37499938 29.625,7.5 L10.875,26.25 C10.7083325,26.4166675 10.5312509,26.5 10.34375,26.5 C10.1562491,26.5 9.9791675,26.4166675 9.8125,26.25 L2.375,18.8125 C2.24999937,18.6874994 2.1875,18.5208344 2.1875,18.3125 C2.1875,18.1041656 2.24999937,17.9166675 2.375,17.75 L3.125,17.0625 C3.25000063,16.8958325 3.41666562,16.8125 3.625,16.8125 C3.83333437,16.8125 3.99999937,16.8958325 4.125,17.0625 L10.3125,23.25 L27.875,5.75 Z" />
        </symbol>
        <symbol id="icon-chevron-left" viewBox="0 0 32 32">
            <path d="M19.5 26.5l.3-.3c.3-.2.3-.6 0-.8l-9.7-9.2L19.8 7c.3-.2.3-.6 0-.8l-.3-.4a.6.6 0 0 0-.9 0l-10.4 10c-.3.2-.3.6 0 .8l10.4 10h.9z" />
        </symbol>
        <symbol id="icon-chevron-right" viewBox="0 0 32 32">
            <path d="M12.5 5.3l-.3.3c-.3.2-.3.6 0 .8l9.7 9.4-9.7 9.4c-.3.3-.3.6 0 .9l.3.3c.3.2.6.2.9 0l10.4-10.2c.3-.2.3-.5 0-.8L13.4 5.3a.6.6 0 0 0-.9 0z" />
        </symbol>
        <symbol id="icon-codepen" viewBox="0 0 32 32">
            <path d="M31.375,10 C31.7916687,10.2500013 32,10.6249975 32,11.125 L32,20.875 C32,21.3750025 31.7916687,21.7499988 31.375,22 L16.75,31.75 C16.2499975,32.083335 15.7500025,32.083335 15.25,31.75 L0.625,22 C0.20833125,21.7499988 0,21.3750025 0,20.875 L0,11.125 C0,10.6249975 0.20833125,10.2500013 0.625,10 L15.25,0.25 C15.7500025,-0.083335 16.2499975,-0.083335 16.75,0.25 L31.375,10 Z M17.375,3.9375 L17.375,10.375 L23.3125,14.3125 L28.125,11.125 L17.375,3.9375 Z M14.625,3.9375 L3.875,11.125 L8.6875,14.3125 L14.625,10.375 L14.625,3.9375 Z M2.75,13.6875 L2.75,18.3125 L6.1875,16 L2.75,13.6875 Z M14.625,28.0625 L14.625,21.625 L8.6875,17.6875 L3.875,20.875 L14.625,28.0625 Z M16,19.25 L20.875,16 L16,12.75 L11.125,16 L16,19.25 Z M17.375,28.0625 L28.125,20.875 L23.3125,17.6875 L17.375,21.625 L17.375,28.0625 Z M29.25,18.3125 L29.25,13.6875 L25.8125,16 L29.25,18.3125 Z" />
        </symbol>
        <symbol id="icon-dribbble" viewBox="0 0 32 32">
            <path fill-rule="nonzero" d="M16 0a16 16 0 1 0 0 32 16 16 0 0 0 0-32zm10.6 7.4c1.9 2.3 3 5.3 3 8.5-.4-.1-4.9-1-9.5-.4-.3-1-.7-1.8-1.2-2.7 5.1-2.1 7.4-5 7.7-5.4zM25 5.8c-.3.3-2.3 3.1-7.2 5a73 73 0 0 0-5.1-8c4.3-1.1 8.9 0 12.3 3zM10 3.7c.5.4 2.9 3.8 5.2 7.9a51 51 0 0 1-12.7 1.6c1-4.2 3.8-7.7 7.6-9.5zM2.4 16v-.4c.6 0 7.3.1 14-2l1.2 2.4c-5 1.4-9.4 5.4-11.7 9.2A13.6 13.6 0 0 1 2.3 16zm5.3 10.8c1.4-3 5.3-6.7 10.8-8.6 2 5 2.7 9.2 3 10.4a13.6 13.6 0 0 1-13.8-1.8zm16 .6a59 59 0 0 0-2.6-9.8c4.3-.7 8 .4 8.5.6-.6 3.8-2.8 7-5.9 9.2z" />
        </symbol>
        <symbol id="icon-envelope" viewBox="0 0 32 32">
            <path d="M29,4 C29.8333375,4 30.5416637,4.29166375 31.125,4.875 C31.7083363,5.45833625 32,6.1666625 32,7 L32,25 C32,25.8333375 31.7083363,26.5416637 31.125,27.125 C30.5416637,27.7083363 29.8333375,28 29,28 L3,28 C2.1666625,28 1.45833625,27.7083363 0.875,27.125 C0.29166375,26.5416637 0,25.8333375 0,25 L0,7 C0,6.1666625 0.29166375,5.45833625 0.875,4.875 C1.45833625,4.29166375 2.1666625,4 3,4 L29,4 Z M3,6 C2.70833187,6 2.46875094,6.09374906 2.28125,6.28125 C2.09374906,6.46875094 2,6.70833188 2,7 L2,9.5625 C3.45834062,10.8125062 6.6041425,13.3541475 11.4375,17.1875 L12,17.6875 C12.8333375,18.3958369 13.4999975,18.8958319 14,19.1875 C14.7916706,19.7291694 15.4583306,20 16,20 C16.5416694,20 17.2083294,19.7291694 18,19.1875 C18.4583356,18.8958319 19.1041625,18.3958369 19.9375,17.6875 L20.5625,17.1875 C25.3958575,13.3541475 28.5416594,10.8125062 30,9.5625 L30,7 C30,6.70833188 29.9062509,6.46875094 29.71875,6.28125 C29.5312491,6.09374906 29.2916681,6 29,6 L3,6 Z M29,26 C29.2916681,26 29.5312491,25.9062509 29.71875,25.71875 C29.9062509,25.5312491 30,25.2916681 30,25 L30,12.1875 C28.5416594,13.3541725 25.81252,15.5416506 21.8125,18.75 L21.1875,19.25 C20.187495,20.0833375 19.3958362,20.6874981 18.8125,21.0625 C17.7708281,21.6875031 16.8333375,22 16,22 C15.1666625,22 14.2291719,21.6875031 13.1875,21.0625 C12.5624969,20.6874981 11.7708381,20.0833375 10.8125,19.25 L10.1875,18.75 C6.18748,15.5416506 3.45834062,13.3541725 2,12.1875 L2,25 C2,25.2916681 2.09374906,25.5312491 2.28125,25.71875 C2.46875094,25.9062509 2.70833187,26 3,26 L29,26 Z" />
        </symbol>
        <symbol id="icon-github" viewBox="0 0 32 32">
            <path d="M10.875,24.8125 C10.875,24.9791675 10.7604178,25.0729166 10.53125,25.09375 C10.3020822,25.1145834 10.1875,25.0416675 10.1875,24.875 C10.1875,24.7083325 10.2916656,24.625 10.5,24.625 C10.6250006,24.625 10.7187497,24.6458331 10.78125,24.6875 C10.8437503,24.7291669 10.875,24.7708331 10.875,24.8125 Z M8.9375,24.5625 C8.97916688,24.3958325 9.10416563,24.3437497 9.3125,24.40625 C9.52083437,24.4687503 9.61458344,24.5520828 9.59375,24.65625 C9.57291656,24.7604172 9.52083375,24.8333331 9.4375,24.875 C9.35416625,24.9166669 9.27083375,24.9166669 9.1875,24.875 C9.10416625,24.8333331 9.03125031,24.7812503 8.96875,24.71875 C8.90624969,24.6562497 8.89583312,24.6041669 8.9375,24.5625 Z M11.6875,24.4375 C11.8958344,24.4375 12.0104166,24.4999994 12.03125,24.625 C12.0520834,24.7500006 11.9583344,24.8541662 11.75,24.9375 C11.6666663,24.9375 11.5937503,24.9270834 11.53125,24.90625 C11.4687497,24.8854166 11.4270834,24.8125006 11.40625,24.6875 C11.3854166,24.5624994 11.4791656,24.4791669 11.6875,24.4375 Z M15.8125,0.5 C18.6458475,0.5 21.2708213,1.16666 23.6875,2.5 C26.1041787,3.83334 27.9999931,5.64582188 29.375,7.9375 C30.7916738,10.3125119 31.5,12.9166525 31.5,15.75 C31.5,19.2083506 30.5312597,22.3020697 28.59375,25.03125 C26.6562403,27.7604303 24.1250156,29.6458281 21,30.6875 C20.666665,30.7708337 20.4062509,30.7291675 20.21875,30.5625 C20.0312491,30.3958325 19.9375,30.1875013 19.9375,29.9375 L19.9375,24.6875 C19.9375,23.35416 19.5833369,22.3958363 18.875,21.8125 C20.4166744,21.6458325 21.5624962,21.4375013 22.3125,21.1875 C23.4791725,20.7708313 24.3749969,20.1458375 25,19.3125 C25.7083369,18.2291613 26.0625,16.7500094 26.0625,14.875 C26.0625,14.0833294 25.9166681,13.3958363 25.625,12.8125 C25.4166656,12.3958313 25.0208362,11.8750031 24.4375,11.25 C24.6041675,10.8333313 24.7083331,10.3333363 24.75,9.75 C24.7916669,8.83332875 24.645835,7.91667125 24.3125,7 C23.8958313,6.87499938 23.3125037,6.95833187 22.5625,7.25 C22.0624975,7.45833437 21.47917,7.74999813 20.8125,8.125 L20,8.6875 C18.7083269,8.31249813 17.3854234,8.125 16.03125,8.125 C14.6770766,8.125 13.3750063,8.31249813 12.125,8.6875 L11.3125,8.125 C10.64583,7.74999813 10.0416694,7.45833437 9.5,7.25 C8.74999625,6.95833187 8.18750187,6.87499938 7.8125,7 C7.43749813,7.91667125 7.29166625,8.83332875 7.375,9.75 C7.375,10.3333363 7.4583325,10.8124981 7.625,11.1875 C7.1249975,11.8125031 6.76041781,12.3854141 6.53125,12.90625 C6.30208219,13.4270859 6.1875,14.0833294 6.1875,14.875 C6.1875,16.7500094 6.52083,18.2083281 7.1875,19.25 C7.77083625,20.1250044 8.6458275,20.7708313 9.8125,21.1875 C10.5625037,21.4375013 11.6874925,21.6458325 13.1875,21.8125 C12.6458306,22.3125025 12.3125006,23.0208287 12.1875,23.9375 C11.4791631,24.270835 10.79167,24.3958338 10.125,24.3125 C9.04166125,24.2291662 8.20833625,23.6666719 7.625,22.625 C7.37499875,22.1666644 7.04166875,21.7916681 6.625,21.5 C6.33333187,21.3333325 6.020835,21.1875006 5.6875,21.0625 L5.25,21 C4.79166437,21 4.55208344,21.0729159 4.53125,21.21875 C4.51041656,21.3645841 4.60416563,21.5208325 4.8125,21.6875 L5.125,21.9375 C5.41666813,22.1041675 5.70833187,22.3749981 6,22.75 C6.25000125,23.0416681 6.4583325,23.3749981 6.625,23.75 L6.875,24.25 C7.08333437,24.8750031 7.47916375,25.354165 8.0625,25.6875 C8.5625025,25.9791681 9.16666312,26.1666662 9.875,26.25 C10.3750025,26.2916669 10.8958306,26.2708338 11.4375,26.1875 L12.125,26.125 L12.1875,29.9375 C12.1875,30.1875013 12.0937509,30.3958325 11.90625,30.5625 C11.7187491,30.7291675 11.458335,30.7708337 11.125,30.6875 C7.9583175,29.6458281 5.39584312,27.7604303 3.4375,25.03125 C1.47915688,22.3020697 0.5,19.2083506 0.5,15.75 C0.5,12.9166525 1.16666,10.333345 2.5,8 C3.83334,5.666655 5.666655,3.83334 8,2.5 C10.333345,1.16666 12.9374856,0.5 15.8125,0.5 Z M6.5625,22.0625 C6.64583375,21.9791662 6.74999937,21.9999994 6.875,22.125 C7.00000063,22.2500006 7.02083375,22.3541662 6.9375,22.4375 C6.85416625,22.5208338 6.75000063,22.5000006 6.625,22.375 C6.49999937,22.2499994 6.47916625,22.1458338 6.5625,22.0625 Z M5.875,21.5625 C5.95833375,21.4791662 6.06249937,21.4687497 6.1875,21.53125 C6.31250063,21.5937503 6.35416687,21.6770828 6.3125,21.78125 C6.27083312,21.8854172 6.17708406,21.8958338 6.03125,21.8125 C5.88541594,21.7291662 5.83333313,21.6458338 5.875,21.5625 Z M7.9375,23.75 C7.97916688,23.7083331 8.04166625,23.6979166 8.125,23.71875 C8.20833375,23.7395834 8.28124969,23.7812497 8.34375,23.84375 C8.40625031,23.9062503 8.44791656,23.9791662 8.46875,24.0625 C8.48958344,24.1458338 8.47916688,24.2083331 8.4375,24.25 C8.31249937,24.3750006 8.1666675,24.3541675 8,24.1875 C7.91666625,24.1041662 7.875,24.0208338 7.875,23.9375 C7.875,23.8541662 7.89583312,23.7916669 7.9375,23.75 Z M7.1875,22.875 C7.27083375,22.8333331 7.34374969,22.8229166 7.40625,22.84375 C7.46875031,22.8645834 7.52083313,22.9166662 7.5625,23 C7.68750063,23.1666675 7.68750063,23.2916662 7.5625,23.375 C7.52083313,23.4166669 7.46875031,23.4166669 7.40625,23.375 C7.34374969,23.3333331 7.27083375,23.2916669 7.1875,23.25 C7.10416625,23.0416656 7.10416625,22.9166669 7.1875,22.875 Z" />
        </symbol>
        <symbol id="icon-home" viewBox="0 0 32 32">
            <path d="M31.875,14.1875 L31.875,14.25 C31.9583338,14.2916669 32,14.3645828 32,14.46875 C32,14.5729172 31.9791669,14.6666662 31.9375,14.75 L31.125,15.75 C31.0833331,15.8333338 31.0104172,15.875 30.90625,15.875 C30.8020828,15.875 30.7083338,15.8333338 30.625,15.75 L28,13.6875 L28,28 C28,28.5416694 27.8020853,29.0104147 27.40625,29.40625 C27.0104147,29.8020853 26.5416694,30 26,30 L18.75,30 C18.5416656,30 18.3645841,29.9270841 18.21875,29.78125 C18.0729159,29.6354159 18,29.4583344 18,29.25 L18,21 L14,21 L14,29.25 C14,29.4583344 13.9270841,29.6354159 13.78125,29.78125 C13.6354159,29.9270841 13.4583344,30 13.25,30 L6,30 C5.45833063,30 4.98958531,29.8020853 4.59375,29.40625 C4.19791469,29.0104147 4,28.5416694 4,28 L4,13.6875 L1.375,15.75 C1.29166625,15.8333338 1.19791719,15.8645834 1.09375,15.84375 C0.989582813,15.8229166 0.916666875,15.7708338 0.875,15.6875 L0.0625,14.75 C0.020833125,14.6666662 0,14.5729172 0,14.46875 C0,14.3645828 0.04166625,14.2708338 0.125,14.1875 L14.75,2.4375 C15.1250019,2.14583187 15.5416644,2 16,2 C16.4583356,2 16.8749981,2.14583187 17.25,2.4375 L26,9.5 L26,6.375 C26,6.24999938 26.0416662,6.15625031 26.125,6.09375 C26.2083338,6.03124969 26.2916662,6 26.375,6 L27.625,6 C27.7083338,6 27.7916663,6.03124969 27.875,6.09375 C27.9583338,6.15625031 28,6.24999938 28,6.375 L28,11.125 L31.875,14.1875 Z M26,28 L26,12.0625 L16.25,4.1875 C16.0833325,4.06249938 15.9166675,4.06249938 15.75,4.1875 L6,12.0625 L6,28 L12,28 L12,19.75 C12,19.5416656 12.0729159,19.3645841 12.21875,19.21875 C12.3645841,19.0729159 12.5416656,19 12.75,19 L19.25,19 C19.4583344,19 19.6354159,19.0729159 19.78125,19.21875 C19.9270841,19.3645841 20,19.5416656 20,19.75 L20,28 L26,28 Z" />
        </symbol>
        <symbol id="icon-instagram" viewBox="0 0 32 32">
            <path d="M16,8.8125 C17.2916731,8.8125 18.4895778,9.13541344 19.59375,9.78125 C20.6979222,10.4270866 21.5729134,11.3020778 22.21875,12.40625 C22.8645866,13.5104222 23.1875,14.7083269 23.1875,16 C23.1875,17.2916731 22.8645866,18.4895778 22.21875,19.59375 C21.5729134,20.6979222 20.6979222,21.5729134 19.59375,22.21875 C18.4895778,22.8645866 17.2916731,23.1875 16,23.1875 C14.7083269,23.1875 13.5104222,22.8645866 12.40625,22.21875 C11.3020778,21.5729134 10.4270866,20.6979222 9.78125,19.59375 C9.13541344,18.4895778 8.8125,17.2916731 8.8125,16 C8.8125,14.7083269 9.13541344,13.5104222 9.78125,12.40625 C10.4270866,11.3020778 11.3020778,10.4270866 12.40625,9.78125 C13.5104222,9.13541344 14.7083269,8.8125 16,8.8125 Z M16,20.6875 C17.2916731,20.6875 18.3958287,20.2291713 19.3125,19.3125 C20.2291713,18.3958287 20.6875,17.2916731 20.6875,16 C20.6875,14.7083269 20.2291713,13.6041713 19.3125,12.6875 C18.3958287,11.7708287 17.2916731,11.3125 16,11.3125 C14.7083269,11.3125 13.6041713,11.7708287 12.6875,12.6875 C11.7708287,13.6041713 11.3125,14.7083269 11.3125,16 C11.3125,17.2916731 11.7708287,18.3958287 12.6875,19.3125 C13.6041713,20.2291713 14.7083269,20.6875 16,20.6875 Z M25.1875,8.5 C25.1458331,8.95833563 24.9687516,9.354165 24.65625,9.6875 C24.3437484,10.020835 23.9583356,10.1875 23.5,10.1875 C23.0416644,10.1875 22.645835,10.020835 22.3125,9.6875 C21.979165,9.354165 21.8125,8.95833563 21.8125,8.5 C21.8125,8.04166437 21.979165,7.645835 22.3125,7.3125 C22.645835,6.979165 23.0416644,6.8125 23.5,6.8125 C23.9583356,6.8125 24.354165,6.979165 24.6875,7.3125 C25.020835,7.645835 25.1875,8.04166437 25.1875,8.5 Z M29.9375,10.1875 C29.9791669,11.3541725 30,13.2916531 30,16 C30,18.7083469 29.9687503,20.6562441 29.90625,21.84375 C29.8437497,23.0312559 29.6666681,24.0624956 29.375,24.9375 C28.9999981,25.9791719 28.4270872,26.8854128 27.65625,27.65625 C26.8854128,28.4270872 25.9791719,28.9999981 24.9375,29.375 C24.0624956,29.6666681 23.0312559,29.8437497 21.84375,29.90625 C20.6562441,29.9687503 18.7083469,30 16,30 C13.2916531,30 11.3437559,29.9687503 10.15625,29.90625 C8.96874406,29.8437497 7.93750437,29.645835 7.0625,29.3125 C6.02082812,28.979165 5.11458719,28.4270872 4.34375,27.65625 C3.57291281,26.8854128 3.00000187,25.9791719 2.625,24.9375 C2.33333187,24.0624956 2.15625031,23.0312559 2.09375,21.84375 C2.03124969,20.6562441 2,18.7083469 2,16 C2,13.2916531 2.03124969,11.3437559 2.09375,10.15625 C2.15625031,8.96874406 2.33333187,7.93750437 2.625,7.0625 C3.00000187,6.02082813 3.57291281,5.11458719 4.34375,4.34375 C5.11458719,3.57291281 6.02082812,3.00000188 7.0625,2.625 C7.93750437,2.33333188 8.96874406,2.15625031 10.15625,2.09375 C11.3437559,2.03124969 13.2916531,2 16,2 C18.7083469,2 20.6562441,2.03124969 21.84375,2.09375 C23.0312559,2.15625031 24.0624956,2.33333188 24.9375,2.625 C25.9791719,3.00000188 26.8854128,3.57291281 27.65625,4.34375 C28.4270872,5.11458719 28.9999981,6.02082813 29.375,7.0625 C29.6666681,7.93750437 29.8541662,8.97916062 29.9375,10.1875 Z M26.9375,24.25 C27.1875013,23.5416631 27.3541662,22.4166744 27.4375,20.875 C27.4791669,19.9583287 27.5,18.666675 27.5,17 L27.5,15 C27.5,13.2916581 27.4791669,12.0000044 27.4375,11.125 C27.3541662,9.54165875 27.1875013,8.41667 26.9375,7.75 C26.4374975,6.45832688 25.5416731,5.5625025 24.25,5.0625 C23.58333,4.81249875 22.4583413,4.64583375 20.875,4.5625 C19.9583287,4.52083313 18.666675,4.5 17,4.5 L15,4.5 C13.333325,4.5 12.0416713,4.52083313 11.125,4.5625 C9.58332563,4.64583375 8.45833688,4.81249875 7.75,5.0625 C6.45832688,5.5625025 5.5625025,6.45832688 5.0625,7.75 C4.81249875,8.41667 4.64583375,9.54165875 4.5625,11.125 C4.52083312,12.0416713 4.5,13.333325 4.5,15 L4.5,17 C4.5,18.666675 4.52083312,19.9583287 4.5625,20.875 C4.64583375,22.4166744 4.81249875,23.5416631 5.0625,24.25 C5.60416937,25.5416731 6.49999375,26.4374975 7.75,26.9375 C8.45833688,27.1875013 9.58332563,27.3541662 11.125,27.4375 C12.0416713,27.4791669 13.333325,27.5 15,27.5 L17,27.5 C18.7083419,27.5 19.9999956,27.4791669 20.875,27.4375 C22.4583413,27.3541662 23.58333,27.1875013 24.25,26.9375 C25.5416731,26.3958306 26.4374975,25.5000062 26.9375,24.25 Z" />
        </symbol>
        <symbol id="icon-linkedin" viewBox="0 0 32 32">
            <path d="M8.25,28 L2.4375,28 L2.4375,9.3125 L8.25,9.3125 L8.25,28 Z M5.375,6.75 C4.45832875,6.75 3.66667,6.41667 3,5.75 C2.33333,5.08333 2,4.29167125 2,3.375 C2,2.45832875 2.33333,1.66667 3,1 C3.66667,0.33333 4.45832875,0 5.375,0 C6.29167125,0 7.08333,0.33333 7.75,1 C8.41667,1.66667 8.75,2.45832875 8.75,3.375 C8.75,4.29167125 8.41667,5.08333 7.75,5.75 C7.08333,6.41667 6.29167125,6.75 5.375,6.75 Z M30,28 L24.1875,28 L24.1875,18.875 C24.1875,17.3749925 24.0625013,16.29167 23.8125,15.625 C23.3541644,14.4999944 22.45834,13.9375 21.125,13.9375 C19.79166,13.9375 18.8541694,14.437495 18.3125,15.4375 C17.8958313,16.1875038 17.6875,17.2916594 17.6875,18.75 L17.6875,28 L11.9375,28 L11.9375,9.3125 L17.5,9.3125 L17.5,11.875 L17.5625,11.875 C17.9791687,11.0416625 18.6458287,10.3541694 19.5625,9.8125 C20.562505,9.14583 21.72916,8.8125 23.0625,8.8125 C25.7708469,8.8125 27.6666612,9.66665813 28.75,11.375 C29.5833375,12.7500069 30,14.8749856 30,17.75 L30,28 Z" />
        </symbol>
        <symbol id="icon-pencil-ruler" viewBox="0 0 32 32">
            <title>Past Work</title>
            <path d="M31.4379182,22.9947162 C31.8126413,23.3696319 32,23.8382696 32,24.4006431 C32,24.9630167 31.8126413,25.4316544 31.4379182,25.8065701 L25.8171004,31.4302779 C25.4423774,31.8051936 24.9739806,31.9926486 24.411896,31.9926486 C23.8498114,31.9926486 23.3814146,31.8051936 23.0066915,31.4302779 L15.3249072,23.7445439 L8.26765822,30.8054214 L1.58513041,31.9926486 C1.16877145,32.0343059 0.783645196,31.8989217 0.429740085,31.586492 C0.0758349728,31.2740622 -0.0594796578,30.8887379 0.0237921332,30.4305076 L1.21040922,23.7445439 L8.26765822,16.6836664 L0.585873912,8.99793243 C0.211150853,8.6230167 0.0237921332,8.15437907 0.0237921332,7.59200549 C0.0237921332,7.0296319 0.211150853,6.56099427 0.585873912,6.18607854 L6.2066917,0.562370777 C6.58141476,0.187455051 7.04981156,0 7.61189615,0 C8.17398074,0 8.64237754,0.187455051 9.0171006,0.562370777 L16.6988849,8.24810473 L24.0684016,0.874798986 C24.6513041,0.291596746 25.3591037,0 26.1918216,0 C27.0245395,0 27.7323391,0.291596746 28.3152417,0.874798986 L31.1256506,3.68665287 C31.7085531,4.26985511 32,4.97801864 32,5.81116469 C32,6.64431075 31.7085531,7.35247428 31.1256506,7.93567652 L23.7561339,15.3089823 L31.4379182,22.9947162 Z M25.4423792,2.31196875 L22.5695168,5.18630827 L26.8163569,9.43533192 L29.6892194,6.5609924 C29.8973988,6.35270588 30.001487,6.11317998 30.001487,5.84240751 C30.001487,5.57163505 29.8973988,5.33210915 29.6892194,5.12382263 L26.8788105,2.31196875 C26.7539028,2.18699684 26.5145,2.12451182 26.1605949,2.12451182 C25.8066897,2.12451182 25.5672869,2.18699684 25.4423792,2.31196875 Z M2.02230512,7.62324831 L9.70408944,15.2464966 L15.2624537,9.68527449 L12.5144983,6.93590625 L10.0788106,9.37284628 C9.99553883,9.45616089 9.88104184,9.49781756 9.7353162,9.49781756 C9.58959057,9.49781756 9.47509357,9.45616089 9.39182178,9.37284628 L8.64237941,8.62301858 C8.55910762,8.53970397 8.51747235,8.42514811 8.51747235,8.27934755 C8.51747235,8.13354699 8.55910762,8.01899112 8.64237941,7.93567652 L11.0780671,5.49873648 L7.58066938,1.99954054 L2.02230512,7.62324831 Z M7.33085526,28.9308522 L25.4423792,10.810016 L21.1955391,6.5609924 L3.08401515,24.6818285 L2.20966572,29.8681368 L7.33085526,28.9308522 Z M24.4431228,29.9931081 L30.001487,24.3694003 L26.5040893,20.8702044 L24.0684016,23.3696301 C23.9851298,23.4529447 23.8706328,23.4946013 23.7249071,23.4946013 C23.5791815,23.4946013 23.4646845,23.4529447 23.3814127,23.3696301 L22.6319704,22.6198024 C22.5486986,22.5364877 22.5070633,22.4219319 22.5070633,22.2761313 C22.5070633,22.1303308 22.5486986,22.0157749 22.6319704,21.9324603 L25.1301116,19.4955203 L22.3197027,16.746152 L16.7613384,22.3073741 L24.4431228,29.9931081 Z" />
        </symbol>
        <symbol id="icon-plane" viewBox="0 0 32 32">
            <path d="M29,0.25 C29.4583356,-1.25000001e-06 29.9374975,-0.062500625 30.4375,0.0625 C30.9375025,0.187500625 31.3437484,0.45833125 31.65625,0.875 C31.9687516,1.29166875 32.0833338,1.77083062 32,2.3125 L28,28.375 C27.8749994,29.0000031 27.5312528,29.479165 26.96875,29.8125 C26.4062472,30.145835 25.8333363,30.1875012 25.25,29.9375 L17.3125,26.625 L13.5625,31.25 C13.1874981,31.7083356 12.7083363,31.9583331 12.125,32 C11.5416638,32.0416669 11.0416688,31.8750019 10.625,31.5 C10.2083313,31.1249981 10,30.6250031 10,30 L10,23.625 L1.25,20 C0.7499975,19.7916656 0.395834375,19.4583356 0.1875,19 C-0.020834375,18.5416644 -0.0520840625,18.0625025 0.09375,17.5625 C0.239584063,17.0624975 0.541664375,16.6875012 1,16.4375 L29,0.25 Z M12,30 L15.4375,25.875 L12,24.4375 L12,30 Z M26,28.0625 L30,2 L2,18.125 L9.125,21.0625 L25.0625,7.5 C25.2291675,7.3333325 25.3958325,7.3333325 25.5625,7.5 C25.7291675,7.6666675 25.7291675,7.8333325 25.5625,8 L13.125,22.75 L26,28.0625 Z" />
        </symbol>
        <symbol id="icon-form-spinner" viewBox="0 0 32 32">
            <path d="M28.75,23.375 L28.3125,23.125 C28.1458325,22.9999994 28.0312503,22.8437509 27.96875,22.65625 C27.9062497,22.4687491 27.9374994,22.2916675 28.0625,22.125 C29.062505,20.0833231 29.5312503,17.9166781 29.46875,15.625 C29.4062497,13.3333219 28.8125056,11.2083431 27.6875,9.25 C26.5624944,7.29165688 25.0208431,5.70833938 23.0625,4.5 C21.1041569,3.29166063 18.9791781,2.62500063 16.6875,2.5 C16.5208325,2.5 16.3645841,2.42708406 16.21875,2.28125 C16.0729159,2.13541594 16,1.95833438 16,1.75 L16,1.25 C16,1.04166563 16.0833325,0.864584063 16.25,0.71875 C16.4166675,0.572915938 16.6041656,0.5 16.8125,0.5 C19.3958462,0.6666675 21.8124887,1.42707656 24.0625,2.78125 C26.3125112,4.13542344 28.0937434,5.94790531 29.40625,8.21875 C30.7187566,10.4895947 31.4062497,12.9479034 31.46875,15.59375 C31.5312503,18.2395966 30.9791725,20.729155 29.8125,23.0625 C29.6874994,23.2291675 29.5312509,23.3437497 29.34375,23.40625 C29.1562491,23.4687503 28.9583344,23.4583338 28.75,23.375 Z" />
        </symbol>
        <symbol id="icon-toolbox" viewBox="0 0 32 32">
            <path d="M31.4375,13.4375 C31.8125019,13.8125019 32,14.2708306 32,14.8125 L32,28 C32,28.5416694 31.8020853,29.0104147 31.40625,29.40625 C31.0104147,29.8020853 30.5416694,30 30,30 L2,30 C1.45833062,30 0.989585313,29.8020853 0.59375,29.40625 C0.197914688,29.0104147 0,28.5416694 0,28 L0,14.8125 C0,14.2708306 0.187498125,13.8125019 0.5625,13.4375 L3.4375,10.5625 C3.81250187,10.1874981 4.27083063,10 4.8125,10 L8,10 L8,5 C8,4.1666625 8.29166375,3.45833625 8.875,2.875 C9.45833625,2.29166375 10.1666625,2 11,2 L21,2 C21.8333375,2 22.5416638,2.29166375 23.125,2.875 C23.7083363,3.45833625 24,4.1666625 24,5 L24,10 L27.1875,10 C27.7291694,10 28.1874981,10.1874981 28.5625,10.5625 L31.4375,13.4375 Z M10,5 L10,10 L22,10 L22,5 C22,4.70833187 21.9062509,4.46875094 21.71875,4.28125 C21.5312491,4.09374906 21.2916681,4 21,4 L11,4 C10.7083319,4 10.4687509,4.09374906 10.28125,4.28125 C10.0937491,4.46875094 10,4.70833187 10,5 Z M30,28 L30,22 L24,22 L24,23.5 C24,23.6250006 23.9479172,23.7395828 23.84375,23.84375 C23.7395828,23.9479172 23.6250006,24 23.5,24 L22.5,24 C22.3749994,24 22.2604172,23.9479172 22.15625,23.84375 C22.0520828,23.7395828 22,23.6250006 22,23.5 L22,22 L10,22 L10,23.5 C10,23.6250006 9.94791719,23.7395828 9.84375,23.84375 C9.73958281,23.9479172 9.62500063,24 9.5,24 L8.5,24 C8.37499937,24 8.26041719,23.9479172 8.15625,23.84375 C8.05208281,23.7395828 8,23.6250006 8,23.5 L8,22 L2,22 L2,28 L30,28 Z M24,20 L30,20 L30,14.8125 L27.1875,12 L4.8125,12 L2,14.8125 L2,20 L8,20 L8,18.5 C8,18.3749994 8.05208281,18.2604172 8.15625,18.15625 C8.26041719,18.0520828 8.37499937,18 8.5,18 L9.5,18 C9.62500063,18 9.73958281,18.0520828 9.84375,18.15625 C9.94791719,18.2604172 10,18.3749994 10,18.5 L10,20 L22,20 L22,18.5 C22,18.3749994 22.0520828,18.2604172 22.15625,18.15625 C22.2604172,18.0520828 22.3749994,18 22.5,18 L23.5,18 C23.6250006,18 23.7395828,18.0520828 23.84375,18.15625 C23.9479172,18.2604172 24,18.3749994 24,18.5 L24,20 Z" />
        </symbol>
        <symbol id="icon-wizard" viewBox="0 0 32 32">
            <path d="M31.8888889,26.0625 C31.9629633,26.135417 32,26.2356764 32,26.3632812 C32,26.4908861 31.944445,26.5911455 31.8333333,26.6640625 C30.5370306,27.757818 29.0833414,28.5872368 27.4722222,29.1523438 C25.8611031,29.7174507 24.2037122,30 22.5,30 L9.5,30 C7.79628778,30 6.13889694,29.7174507 4.52777778,29.1523438 C2.91665861,28.5872368 1.46296944,27.757818 0.166666667,26.6640625 C0.055555,26.5911455 0,26.4908861 0,26.3632812 C0,26.2356764 0.0370366667,26.135417 0.111111111,26.0625 L0.666666667,25.40625 C0.777778333,25.2968745 0.888888333,25.2421875 1,25.2421875 C1.11111167,25.2421875 1.20370333,25.2786455 1.27777778,25.3515625 C2.05555944,25.9713573 2.99999444,26.5364558 4.11111111,27.046875 L11.5,11.078125 C12.1296328,9.69270141 13.1111044,8.61719133 14.4444444,7.8515625 L23.7222222,2.21875 C23.9814828,2.07291594 24.2777761,2 24.6111111,2 C25.092595,2 25.4999983,2.16406086 25.8333333,2.4921875 L29.7222222,6.484375 C29.9444456,6.70312609 30.0925922,6.97656086 30.1666667,7.3046875 C30.2407411,7.63281414 30.2222228,7.96093586 30.1111111,8.2890625 L28.4444444,12.5 L27.6666667,10.203125 C27.555555,9.83853984 27.3425942,9.54687609 27.0277778,9.328125 C26.7129614,9.10937391 26.3703722,9 26,9 L23.7777778,9 C23.4074056,9 23.0648164,9.10937391 22.75,9.328125 C22.4351836,9.54687609 22.2222228,9.83853984 22.1111111,10.203125 L21.7777778,11.2421875 C21.48148,12.0807334 21.5185167,12.9010377 21.8888889,13.703125 L27.8888889,27.046875 C29.0000056,26.5364558 29.9444406,25.9713573 30.7222222,25.3515625 C30.7962967,25.2786455 30.8888883,25.2421875 31,25.2421875 C31.1111117,25.2421875 31.2222217,25.2968745 31.3333333,25.40625 L31.8888889,26.0625 Z M13.1111111,11.7890625 L7.22222222,24.53125 C8.03704111,24.6770841 8.77777444,24.75 9.44444444,24.75 L12.4444444,24.75 L12.4444444,24.53125 C12.4444444,24.0937478 12.5925911,23.7291681 12.8888889,23.4375 C13.1851867,23.1458319 13.5555533,23 14,23 L18,23 C18.4444467,23 18.8148133,23.1458319 19.1111111,23.4375 C19.4074089,23.7291681 19.5555556,24.0937478 19.5555556,24.53125 L19.5555556,24.75 L22.5555556,24.75 C23.2222256,24.75 23.9814772,24.6770841 24.8333333,24.53125 L20.2222222,14.4140625 C19.7037011,13.174473 19.6481461,11.934902 20.0555556,10.6953125 L20.4444444,9.65625 C20.6666678,8.92707969 21.0925894,8.34375219 21.7222222,7.90625 C22.351855,7.46874781 23.0370333,7.25 23.7777778,7.25 L26,7.25 C26.8518561,7.25 27.6111078,7.52343477 28.2777778,8.0703125 L28.4444444,7.7421875 L24.6111111,3.75 L15.3888889,9.328125 C14.3518467,9.94791977 13.592595,10.7682241 13.1111111,11.7890625 Z M5.77777778,27.6484375 C7.07408056,28.0494812 8.31480889,28.25 9.5,28.25 L12.4444444,28.25 L12.4444444,26.5 L9.44444444,26.5 C8.55555111,26.5 7.57407944,26.3906261 6.5,26.171875 L5.77777778,27.6484375 Z M14.2222222,28.25 L17.7777778,28.25 L17.7777778,24.75 L14.2222222,24.75 L14.2222222,28.25 Z M19.5555556,28.25 L22.5,28.25 C23.6851911,28.25 24.9259194,28.0494812 26.2222222,27.6484375 L25.5555556,26.171875 C24.4444389,26.3906261 23.4444489,26.5 22.5555556,26.5 L19.5555556,26.5 L19.5555556,28.25 Z" />
        </symbol>
        <symbol id="illustration-designer-type-ux" viewBox="0 0 96 96">
            <path fill="#FFE800" d="M48.3 7.5L50 11c.1.3.4.5.7.5l3.6.5c.4 0 .6.3.8.7 0 .3 0 .7-.3 1l-2.6 2.6a1 1 0 0 0-.2.8l.5 3.8c.1.4 0 .7-.3 1-.3.1-.7.2-1 0L48 20a.9.9 0 0 0-.8 0l-3.2 1.8c-.3.2-.7.1-1 0a1 1 0 0 1-.3-1l.6-3.8c0-.3 0-.6-.3-.8l-2.6-2.7a1 1 0 0 1-.3-1c.2-.3.4-.5.8-.6l3.6-.5c.3 0 .6-.3.7-.5l1.6-3.5c.1-.3.4-.5.8-.5.3 0 .7.2.8.5zM68.1 15.9l-.2 3.2c0 .3 0 .5.3.7l2.5 2a.8.8 0 0 1-.3 1.4l-3 .8c-.3 0-.5.2-.6.4l-1.1 3c-.2.4-.4.6-.7.6a.8.8 0 0 1-.7-.4L62.6 25a.8.8 0 0 0-.7-.4l-3.1-.1a.8.8 0 0 1-.7-.5c-.2-.2-.1-.6 0-.8l2.1-2.5c.2-.2.3-.5.2-.7l-.9-3.1c0-.3 0-.6.3-.8.2-.2.5-.3.8-.2l2.9 1.2h.7L67 15c.2-.1.6-.1.8 0 .3.2.4.5.4.8zM77 31.8l-1.3 1.9c-.1.1-.2.3-.1.5l.8 2v.6c-.2.2-.4.3-.6.2l-2.2-.6h-.5L71.4 38h-.6a.5.5 0 0 1-.3-.4v-2.2c0-.2-.2-.4-.3-.5l-2-1.1a.5.5 0 0 1 .2-1l2-.8c.2 0 .4-.2.4-.3l.5-2.2c0-.2.3-.3.5-.4.2 0 .4 0 .5.2l1.4 1.7c.1.2.3.3.5.2l2.2-.1c.2 0 .4 0 .5.3v.5zM29 15.1l2.7 1.8c.2.2.5.2.7.1l3-1.2c.3-.1.6 0 .8.1.2.2.3.6.3.8l-.9 3.2c0 .2 0 .5.2.7l2 2.5c.2.2.3.5.1.8 0 .3-.4.5-.7.5l-3.2.1c-.2 0-.4.2-.6.4l-1.7 2.7a.8.8 0 0 1-1.4-.1l-1-3c-.1-.3-.4-.5-.6-.6l-3.1-.8a.8.8 0 0 1-.3-1.4l2.5-2c.2-.1.3-.4.3-.6l-.2-3.3c0-.3 0-.5.3-.7h.9zM18.6 31l2.2.1c.2 0 .4 0 .5-.2l1.4-1.7a.6.6 0 0 1 1 .2l.5 2.2.3.3 2.1.8c.2 0 .4.2.4.4s0 .4-.3.5l-1.9 1.2-.2.5-.1 2.2c0 .2-.1.4-.3.5l-.6-.1-1.7-1.4a.6.6 0 0 0-.5-.1l-2.2.6c-.2 0-.4 0-.6-.2a.5.5 0 0 1 0-.6l.8-2v-.5L18 31.8a.5.5 0 0 1 0-.5c0-.2.3-.3.5-.3z" />
            <path stroke="#333" stroke-linecap="round" stroke-linejoin="round" stroke-width="2" d="M53 34.4c0 3-2.5 5.6-5.5 5.6S42 37.5 42 34.4v-2.8c0-3 2.5-5.6 5.5-5.6s5.5 2.5 5.5 5.6v2.8zM40.5 66V54M53.5 66V54M47 43c-6.1 0-12 4.9-12 10.8v12.7c0 1.4 1.3 2.5 2.8 2.5 1.4 0 2.7-1.1 2.7-2.5l1.6 19.2a3.7 3.7 0 0 0 3.7 3.3h2.4c2 0 3.5-1.4 3.7-3.3l1.6-19.2c0 1.4 1.3 2.5 2.7 2.5 1.5 0 2.7-1.1 2.8-2.5V53.8c0-6-5.9-10.8-12-10.8z" />
        </symbol>
        <symbol id="illustration-designer-type-product" viewBox="0 0 96 96">
            <path stroke="#FFE800" stroke-linecap="round" stroke-linejoin="round" stroke-width="2" d="M52.4 42.2a4 4 0 0 1-4 4 4 4 0 0 1-4.1-4h8zM44.3 38.2h8.1v4h-8.1z" />
            <path fill="#FFE800" stroke="#FFE800" stroke-linecap="round" stroke-linejoin="round" stroke-width="2" d="M57 26.2c0-4-2.5-7.5-6.3-8.6a9 9 0 0 0-8.9 14.5c1.6 1.8 2.5 4 2.5 6.4h8c0-2.4 1-4.6 2.5-6.3a8.9 8.9 0 0 0 2.3-6z" />
            <path fill="#FFE800" d="M62.5 26.8c-.5 0-1-.2-1.3-.6-.2-.5-.2-1 0-1.5.3-.4.8-.6 1.3-.6h2.7c.5 0 1 .2 1.2.6.3.5.3 1 0 1.5-.2.4-.7.7-1.2.6h-2.7zM59.3 16.2c-.5.6-1.4.6-2 0-.4-.5-.4-1.3 0-1.9l2-2c.5-.4 1.4-.4 1.9 0 .5.6.5 1.5 0 2l-2 2zM34.1 26.8c.5 0 1-.2 1.3-.6.3-.5.3-1 0-1.5-.3-.4-.8-.6-1.3-.6h-2.7c-.5 0-1 .2-1.2.6-.3.5-.3 1 0 1.5.3.4.7.7 1.2.6h2.7zM37.3 16.2c.6.6 1.4.6 2 0 .5-.5.5-1.3 0-1.9l-2-1.9a1.3 1.3 0 0 0-2.2.6c-.1.5 0 1 .3 1.3l2 2zM49.7 11.1c0 .8-.6 1.4-1.4 1.4-.7 0-1.3-.6-1.3-1.4V8.4c0-.8.6-1.4 1.3-1.4.8 0 1.4.6 1.4 1.4V11z" />
            <path stroke="#1F2225" stroke-linecap="round" stroke-linejoin="round" stroke-width="2" d="M25.4 45.5a25.2 25.2 0 0 0-4 14.3c-1.6-3-2.4-6.3-2.4-9.6v-3c.6-1.6 1.4-3 2.3-4.4a2.4 2.4 0 0 1 4 2.7zM19.6 89v-5.2c0-.3.2-.6.4-.8.2-.1.5-.3.9-.3h16.3c.6 0 1.2.5 1.2 1V89M37.2 80.3v2.4H20.8v-2.4c0-.6.6-1.2 1.3-1.2H36c.6 0 1.2.6 1.2 1.2z" />
            <path stroke="#1F2225" stroke-linecap="round" stroke-linejoin="round" stroke-width="2" d="M36.2 74.4A9 9 0 0 0 36 79H22c0-9-8-17-7.8-29v-9.3a2.4 2.4 0 1 1 4.8 0v9.4c0 3.3.8 6.6 2.4 9.6 4.3 8.3 12.9 9.5 8.4-5-.4-1.1.2-2.5 1.4-3 1.2-.4 2.6.2 3 1.5 1.8 4.7 5.2 11.4 2 21zM74.7 59.8c.4-4-1.3-10.2-4-14.3a2.4 2.4 0 0 1 4-2.6c1 1.3 1.7 2.8 2.3 4.3v3c0 3.3-.8 6.6-2.3 9.6zM76.4 89v-5.2a1 1 0 0 0-.3-.8l-.9-.3H58.9c-.7 0-1.2.5-1.2 1V89M75.2 80.3v2.4H59v-2.4c0-.6.5-1.2 1.2-1.2H74c.7 0 1.2.6 1.2 1.2z" />
            <path stroke="#333" stroke-linecap="round" stroke-linejoin="round" stroke-width="2" d="M81.9 50c.3 12.1-7.8 20.2-7.9 29.1H60.1a9 9 0 0 0-.2-4.7c-3.2-9.6.1-16.4 1.9-21.2a2.4 2.4 0 0 1 3-1.4c1.3.5 1.9 1.9 1.5 3-4.5 14.5 4 13.4 8.3 5 1.6-3 2.4-6.3 2.5-9.6v-3-6.4a2.4 2.4 0 1 1 4.8 0v9.3z" />
        </symbol>
        <symbol id="illustration-designer-type-unicorn" viewBox="0 0 96 96">
            <path stroke="#333" stroke-linecap="round" stroke-linejoin="round" stroke-width="2" d="M63.1 89H33.8a3.2 3.2 0 0 1-3-3.6L35 55a83 83 0 0 1 27 0l4.3 30.2a3.2 3.2 0 0 1-3.2 3.7z" />
            <path d="M76.3 55.6c0 1.3-1.1 2.4-2.4 2.4a83 83 0 0 0-50.7 0c-1.4 0-2.5-1.1-2.5-2.4 0-1.6-.8-6.4 27.8-6.4s27.8 4.8 27.8 6.4z" />
            <path fill="#FFF" fill-rule="nonzero" d="M47.4 49.3l-8.1.2-2-11a4.4 4.4 0 0 1 8.8-1.3l1.3 12z" />
            <path stroke="#333" stroke-linecap="round" stroke-linejoin="round" stroke-width="2" d="M47.4 49.3l-8.1.2-2-11a4.4 4.4 0 0 1 8.8-1.3l1.3 12z" />
            <path fill="#FFF" fill-rule="nonzero" d="M49.6 49.3l8 .2 2-11a4.4 4.4 0 0 0-8.7-1.3l-1.3 12z" />
            <path stroke="#333" stroke-linecap="round" stroke-linejoin="round" stroke-width="2" d="M49.6 49.3l8 .2 2-11a4.4 4.4 0 0 0-8.7-1.3l-1.3 12zM34.2 60.4l-1.1 7.9h30.8l-1.2-7.9z" />
            <path stroke="#333" stroke-width="2" d="M48.5 49.3c-28.6 0-27.8 4.8-27.8 6.3 0 1.3 1 2.4 2.4 2.4 1 0 10.4-4 25.4-4 15 0 24.4 4 25.4 4 1.3 0 2.4-1 2.4-2.4 0-1.6.8-6.3-27.8-6.3z" />
            <path stroke="#333" stroke-linecap="round" stroke-linejoin="round" stroke-width="2" d="M62 55.1" />
            <path fill="#FFF" fill-rule="nonzero" d="M42.2 19.8a2.4 2.4 0 1 0 1 4.6l9.4-2-1-4.7-9.4 2z" />
            <path fill="#FFE800" stroke="#FFE800" stroke-linecap="round" stroke-linejoin="round" stroke-width="2" d="M42.2 19.8a2.4 2.4 0 1 0 1 4.6l9.4-2-1-4.7-9.4 2z" />
            <path stroke="#FFE800" stroke-linecap="round" stroke-linejoin="round" stroke-width="2" d="M42.2 19.8a2.4 2.4 0 1 0 1 4.6l34.2-7.7c.8-.2 1.3-1 1.2-1.9l-.4-1.6a1.6 1.6 0 0 0-2-1.2l-34 7.8z" />
            <path fill="#FFE800" d="M74.2 34.4a.8.8 0 0 1 1.5 0l.5 1.2c.2.3.4.4.6.5l1.4.2c.3 0 .5.2.6.5.1.3 0 .6-.2.8l-1 1-.2.6.2 1.4c.1.3 0 .6-.3.7-.2.2-.5.2-.8 0l-1.2-.6a.8.8 0 0 0-.7 0l-1.3.6c-.2.2-.5.2-.8 0a.8.8 0 0 1-.3-.7l.2-1.4c0-.2 0-.5-.2-.6l-1-1a.8.8 0 0 1-.2-.8c.1-.3.4-.5.7-.5L73 36c.3 0 .5-.2.6-.5l.6-1.2zM23.5 19.5c.1-.2.4-.4.7-.4.3 0 .6.2.7.4l1.5 3c.1.3.4.4.6.5l3.3.5c.3 0 .6.2.7.5 0 .3 0 .6-.2.8l-2.4 2.4c-.2.2-.3.5-.2.7l.5 3.3c0 .3 0 .6-.3.8-.3.2-.6.2-.8 0l-3-1.5a.8.8 0 0 0-.7 0l-3 1.5c-.3.2-.6.2-.9 0a.8.8 0 0 1-.3-.8l.6-3.3c0-.2 0-.5-.2-.7l-2.4-2.4a.8.8 0 0 1-.2-.8c0-.3.3-.5.6-.5l3.3-.5c.3 0 .5-.2.6-.4l1.5-3z" />
            <path stroke="#FFE800" stroke-linecap="round" stroke-linejoin="round" stroke-width="2" d="M65.6 29.2V26M64 27.6h3.2M21.5 45.3v-3.2M20 43.7h3" />
        </symbol>
    </defs>
</svg>