<svg xmlns="http://www.w3.org/2000/svg" xmlns:xlink="http://www.w3.org/1999/xlink" viewBox="0 0 594.151 895.625">
  <defs>
    <linearGradient id="linear-gradient" x1="409.298" y1="885.568" x2="409.298" y2="196.257" gradientUnits="userSpaceOnUse">
      <stop offset="0" stop-color="#e3ac8b"/>
      <stop offset="1" stop-color="#e6cbb3"/>
    </linearGradient>
    <linearGradient id="linear-gradient-2" x1="374.889" y1="736.627" x2="517.056" y2="661.035" gradientTransform="matrix(-1, 0, 0, 1, 855.555, 0)" gradientUnits="userSpaceOnUse">
      <stop offset="0" stop-color="#231f20"/>
      <stop offset="0.216" stop-color="#5f4b41" stop-opacity="0.687"/>
      <stop offset="0.67" stop-color="#c09378" stop-opacity="0.181"/>
      <stop offset="1" stop-color="#e3ac8b" stop-opacity="0"/>
    </linearGradient>
    <linearGradient id="linear-gradient-3" x1="544.139" y1="651.076" x2="544.139" y2="461.924" gradientUnits="userSpaceOnUse">
      <stop offset="0" stop-color="#ecc7b1"/>
      <stop offset="1" stop-color="#e6cbb3"/>
    </linearGradient>
    <linearGradient id="linear-gradient-4" x1="1192.22" y1="885.568" x2="1192.22" y2="196.257" gradientTransform="matrix(-1, 0, 0, 1, 1377.074, 0)" xlink:href="#linear-gradient"/>
    <linearGradient id="linear-gradient-5" x1="113.486" y1="736.626" x2="255.652" y2="661.035" gradientTransform="matrix(1, 0, 0, 1, 0, 0)" xlink:href="#linear-gradient-2"/>
    <linearGradient id="linear-gradient-6" x1="1327.062" y1="651.076" x2="1327.062" y2="461.924" gradientTransform="matrix(-1, 0, 0, 1, 1377.074, 0)" xlink:href="#linear-gradient-3"/>
  </defs>
  <title>Site Header</title>
  <g style="isolation: isolate">
    <g id="Layer_4" data-name="Layer 4">
      <g>
        <g>
          <polygon points="588.152 415.029 567.076 392.98 573.109 385.48 567.076 373.481 594.151 379.965 561.153 355.799 580.652 355.799 550.654 331.633 567.076 313.484 544.14 290.985 550.654 251.987 528.192 218.989 522.155 187.491 510.156 211.489 501.156 164.992 490.694 160.492 479.962 136.493 479.962 151.492 468.158 139.493 439.659 95.995 420.16 65.997 420.16 28.498 408.364 38.998 400.661 28.498 400.661 56.997 381.162 23.998 370.427 37.498 360.163 0 333.752 31.498 297.076 0 260.399 31.498 233.988 0 223.725 37.498 212.989 23.998 193.49 56.997 193.49 28.498 185.787 38.998 173.991 28.498 173.991 65.997 154.492 95.995 125.993 139.493 114.189 151.492 114.189 136.493 103.457 160.492 92.995 164.992 83.995 211.489 71.996 187.491 65.959 218.989 43.497 251.987 50.012 290.985 27.075 313.484 43.497 331.633 13.499 355.799 32.998 355.799 0 379.965 27.075 373.481 21.042 385.48 27.075 392.98 5.999 415.029 27.075 415.029 0 481.476 50.012 444.974 70.496 438.073 84.441 430.925 199.972 250.487 297.076 211.489 394.18 250.487 509.71 430.925 523.655 438.073 544.14 444.974 594.151 481.476 567.076 415.029 588.152 415.029" fill="#414042"/>
          <path d="M293.115,84.162c-1.108,2.3-7.2,10.69-8.8,12.695a66.22,66.22,0,0,0-6.235,8.652c-1.5,2.67-2.65,5.547-3.91,8.334a6.025,6.025,0,0,1-.053-1.96,17.568,17.568,0,0,0-.024-2.773c-1.207,0-2.171,1.842-2.845,2.673a14.147,14.147,0,0,0-1.417,1.964c-.263.468-.444,1.3-1.087,1.3-2.663-3.674-3.009-8.016-2.926-12.442a28.644,28.644,0,0,0-3.545,6.105c-1.23,3.1-1.922,6.391-3,9.545-.646,1.883-2.1,6.964-4.87,6.67-1.351-.144-2.308-1.653-2.945-2.688a48.276,48.276,0,0,1-2.966-6.146c-1.238,2.869-2.466,5.744-3.795,8.572-1.039,2.211-2.082,4.856-3.809,6.642-2.51,2.592-3.894-3.237-4.495-4.844-2.3,10.351-4.691,20.89-8.624,30.76-.441,1.1-3.008,7.732-4.208,3.909a25.681,25.681,0,0,1-.654-6.938c-.083-3.6-.013-7.21.039-10.814-1.5,2.937-3.515,5.534-4.944,8.534a105.882,105.882,0,0,1-9.211,16.237c-1.157-.522-1.545-2.985-1.646-3.938A67.349,67.349,0,0,1,207.18,157a2.536,2.536,0,0,0-.24-1.439,12.324,12.324,0,0,1-2.352,2.7,20.371,20.371,0,0,0-3.356,2.942c-1.691,2.213-2.625,5.034-3.825,7.52a85.974,85.974,0,0,1-6.142,10.451,6.633,6.633,0,0,1-.852-3.976c.041-3.882.526-7.864.238-11.738a48.349,48.349,0,0,0-6.105,6.36,64.684,64.684,0,0,1-5.043,5.363,23.247,23.247,0,0,1-2.543,2.4,23.3,23.3,0,0,1-3.335,1.844c-3.821,2.018-7.474,4.316-11.2,6.5a94.415,94.415,0,0,1-13.36,6.6c-5.814,2.279-12,1.642-17.31,5.127,1.615.634,3.349-.19,5.011.335,1.531,4.835-4.026,10.354-1.848,14.98a51.459,51.459,0,0,1,13.1,2.2,118.815,118.815,0,0,1-10.853,11.99c-2.057,1.911-6.129,4.259-7.157,7.019-.829,2.225.5,2.6,1.254,4.449,1.015,2.509-.367,4.038-2.037,6-2.114,2.48-5.441,4.963-6.5,8.162-.7,2.11-.3,3.79-1.581,5.8-3.7,5.782-9.639,10.4-14.1,15.593-2.628,3.063-9.715,10.1-7.554,14.849,1.279,2.809,4.751,2.68,5.346,6.2.945,5.588-2.733,12.7-3.89,18.081a35.665,35.665,0,0,0-.287,15.721,12.6,12.6,0,0,1-1.126,9.336c-3.905,8.109-9.848,14.719-14.78,22.121-2.791,4.189-2.727,8.485,1.322,11.735C85.038,380.8,81.9,395.685,89.34,402.5c7.842,7.181,14.991-5.533,17.17-11.566,5.952-16.485,6.67-34.447,12.405-51.075,7.545-21.883,21.358-40.472,36.562-57.642,14.805-16.721,30.471-33.78,48.286-47.36,15.459-11.784,32.732-17.335,51.713-20.465,12.3-2.029,29.527-2.736,40.275-10.948,10.749,8.212,27.974,8.919,40.276,10.948,18.981,3.13,36.254,8.681,51.713,20.465,17.815,13.58,33.481,30.639,48.285,47.36,15.205,17.17,29.018,35.759,36.563,57.642,5.734,16.628,6.453,34.59,12.4,51.075,2.179,6.033,9.328,18.747,17.17,11.566,7.438-6.811,4.3-21.695,3.268-30.288,4.048-3.25,4.113-7.546,1.322-11.735-4.932-7.4-10.875-14.012-14.78-22.121a12.587,12.587,0,0,1-1.125-9.336,35.68,35.68,0,0,0-.288-15.721c-1.157-5.379-4.835-12.493-3.89-18.081.595-3.516,4.067-3.387,5.346-6.2,2.161-4.748-4.926-11.786-7.555-14.849-4.457-5.194-10.393-9.811-14.1-15.593-1.285-2.006-.881-3.686-1.582-5.8-1.062-3.2-4.39-5.682-6.5-8.162-1.67-1.958-3.052-3.487-2.037-6,.75-1.852,2.082-2.224,1.254-4.449-1.028-2.76-5.1-5.108-7.157-7.019a118.7,118.7,0,0,1-10.853-11.99,51.452,51.452,0,0,1,13.1-2.2c2.178-4.626-3.379-10.145-1.849-14.98,1.663-.525,3.4.3,5.012-.335-5.306-3.485-11.5-2.848-17.31-5.127a94.415,94.415,0,0,1-13.36-6.6c-3.723-2.189-7.376-4.487-11.2-6.5A14.589,14.589,0,0,1,412,175.174a64.684,64.684,0,0,1-5.043-5.363,48.414,48.414,0,0,0-6.105-6.36c-.288,3.874.2,7.856.238,11.738a6.641,6.641,0,0,1-.852,3.976,85.844,85.844,0,0,1-6.142-10.451c-1.2-2.486-2.134-5.307-3.826-7.52a20.33,20.33,0,0,0-3.356-2.942,12.35,12.35,0,0,1-2.352-2.7,2.544,2.544,0,0,0-.239,1.439,67.611,67.611,0,0,1,.039,7.217c-.1.953-.489,3.416-1.645,3.938a105.8,105.8,0,0,1-9.212-16.237c-1.429-3-3.443-5.6-4.945-8.534.053,3.6.123,7.21.04,10.814a25.6,25.6,0,0,1-.655,6.938c-1.2,3.823-3.766-2.8-4.207-3.909-3.933-9.87-6.329-20.409-8.625-30.76-.6,1.607-1.984,7.436-4.494,4.844-1.727-1.786-2.77-4.431-3.809-6.642-1.33-2.828-2.557-5.7-3.8-8.572a48.276,48.276,0,0,1-2.966,6.146c-.637,1.035-1.594,2.544-2.946,2.688-2.765.294-4.223-4.787-4.869-6.67-1.082-3.154-1.775-6.443-3-9.545a28.555,28.555,0,0,0-3.544-6.105c.083,4.426-.263,8.768-2.925,12.442-.644,0-.825-.833-1.088-1.3a14.154,14.154,0,0,0-1.418-1.964c-.674-.831-1.637-2.673-2.844-2.673a17.568,17.568,0,0,0-.024,2.773,6,6,0,0,1-.054,1.96c-1.259-2.787-2.408-5.664-3.909-8.334-1.744-3.105-18.094-18.572-20.308-21.347" fill="#3e3d3f"/>
          <path d="M297.076,885.568s26.625-3.365,41.563-9.107,23.636-11.93,53.724-44.618,57.1-60.647,76.489-87.416,36.754-45.452,42.8-74.667,8.969-77.06,9.754-110.021c0,0,.606-11.484-.947-34.242s-9.932-91.088-14.271-107.969-9.425-34.46-11.836-47.35-10.613-71.168-21.437-90.34-83.136-69.472-106.255-76.63-69.581-6.95-69.581-6.95Z" fill="url(#linear-gradient)"/>
          <path d="M341.433,503.48s36.762,42.157,80.47,40.105,64.234-41.735,64.234-41.735" fill="#dfb69c"/>
          <path d="M516.08,449l-7.736-1.11-12.1,3.551-7.779,21.553h0l-10.688,19.578-3.424,3.323-10.966,7.822-20.407,4.756H424.613l-41.152-2.285-34.918-3.806-12.934-6.059s5.024,8.562,12.934,12.1c0,0,97.069,29.954,137.594-6.567a68.019,68.019,0,0,0,6.511-13.416l.222-.162c.124-.581.258-1.119.388-1.675.318-1.057.614-2.18.868-3.411,7.7-27.457,22.946-19.545,22.946-19.545Z" fill="#d39f7c"/>
          <path d="M392.363,831.843c30.088-32.689,57.1-60.647,76.489-87.416s36.754-45.452,42.8-74.667,8.969-77.06,9.754-110.021c0,0,.606-11.484-.947-34.242-.263-3.845-1.319-14.974-1.319-14.974L378.956,708.536l-81.881,30.406V885.568s26.626-3.365,41.564-9.107S362.275,864.531,392.363,831.843Z" opacity="0.15" fill="url(#linear-gradient-2)" style="mix-blend-mode: multiply"/>
          <path d="M338.973,420.771c6.216-50.329,60.973-70.909,93.69-56.653,0,0,60.781,12.426,52.74,55.557-32.9-8.041-76.105-8.407-76.105-8.407l-47.437,2.193Z" fill="#dfb69c"/>
          <path d="M317.743,590.942s18.888,3.425,31.11-5.454-3.664-14.546-3.664-14.546l-25.935,6.667Z" fill="#e1bba3"/>
          <path d="M354.2,586.9s-31.9,31.253-57.12,31.253V591.72l30.8-16.327,19.82.485Z" fill="#231f20" opacity="0.05" style="mix-blend-mode: multiply"/>
          <path d="M297.076,595.594s13.5-1.8,34.916,3.609,66.783,35.406,66.783,35.406,23.2,28.137-9.752,27.069c-30.28-19.069-37.132-20.4-37.132-20.4l-35.434-2-19.382,2Z" fill="#414042" opacity="0.07" style="mix-blend-mode: multiply"/>
          <path d="M297.076,783.4s25.274-7.946,30-13.243,10.474-33.105,10.474-33.105H297.076Z" fill="#414042" opacity="0.08" style="mix-blend-mode: multiply"/>
          <polygon points="374.541 680.942 297.076 685.444 297.076 714.532 363.302 714.443 378.956 699.159 374.541 680.942" fill="#414042"/>
          <path d="M348.022,577.067c1.073,3.827-4.072,8.614-11.492,10.694s-14.3.664-15.375-3.161,4.072-8.613,11.491-10.693S346.95,573.243,348.022,577.067Z" fill="#414042"/>
          <path d="M372.73,669.444C375,672.383,374,683.852,374,683.852s-.089,11.253-4.089,15.73l12.372-4L388,682.585l-.913-15.847S370.458,666.506,372.73,669.444Z" fill="#d7a79f"/>
          <polygon points="297.076 653.553 347.988 653.553 381.041 664.102 381.727 669.803 297.076 666.738 297.076 653.553" fill="#d7a79f"/>
          <polygon points="351.227 707.721 350.17 706.623 339.151 706.623 337.55 708.533 337.55 714.532 351.227 710.577 351.227 707.721" fill="#f0f0f0"/>
          <polygon points="364.903 707.175 363.847 706.077 352.828 706.077 351.227 707.987 351.227 713.986 364.903 710.031 364.903 707.175" fill="#f0f0f0"/>
          <polygon points="341.433 685.129 333.113 710.319 297.076 715.632 297.076 681.279 341.433 685.129" fill="#654042"/>
          <polygon points="337.55 708.756 336.493 707.033 325.475 707.033 323.873 710.031 323.873 719.446 337.55 714.949 337.55 708.756" fill="#f0f0f0"/>
          <polygon points="323.873 709.633 323.3 708.068 317.325 708.068 316.457 710.791 316.457 720.818 323.873 719.345 323.873 709.633" fill="#f0f0f0"/>
          <polygon points="316.457 709.629 315.748 708.065 308.357 708.065 307.283 710.788 307.283 720.818 316.457 719.345 316.457 709.629" fill="#f0f0f0"/>
          <polygon points="307.283 710.276 306.494 708.536 298.271 708.536 297.076 711.566 297.076 722.727 307.283 722.727 307.283 710.276" fill="#f0f0f0"/>
          <path d="M521.354,486.145S528.9,453.516,564.769,464c14.349,8.829,6.071,41.939,4.967,52.425s-5.517,14.3-8.829,23.153-8.934,66.889-10.485,75.075-3.312,19.315-6.07,24.833-13.8,11.589-13.8,11.589H515.169Z" fill="url(#linear-gradient-3)"/>
          <path d="M527.918,582.136l-.012.192q-.085,1.361-.168,2.722c-.036.6-.431,2.212-.162,2.731,1.437,2.764,4.739,1.445,6.764.159a17.636,17.636,0,0,0,2.848-3.005c.926-1.012,1.827-2.048,2.672-3.128a30.917,30.917,0,0,0,6.153-13.532,50.375,50.375,0,0,0,.747-8.387c.047-3.008-.31-6.048-.2-9.045a119.94,119.94,0,0,1,4.158-26.278c1.5-5.639,4.853-13.435,2.531-19.266-2.017-5.064-8.483-6.319-13.159-7.538l-.107.508c-.191.926-.359,1.857-.511,2.791-.279,1.708-.522,3.423-.765,5.137-.383,2.7-.756,5.4-1.142,8.1q-.736,5.163-1.532,10.317-.863,5.557-1.815,11.1c-.615,3.584-1.256,7.162-1.893,10.742-.6,3.371-1.192,6.743-1.726,10.126q-.786,4.976-1.368,9.982c-.394,3.454-.705,6.916-.963,10.383Q528.08,579.541,527.918,582.136Z" fill="#c59f81"/>
          <path d="M339.161,365.083c.048-.2.1-.394.17-.6,1.248-3.814,5.04-7.793,8.193-10.063,12.5-9,24.351-12.671,38.659-11.591a137.981,137.981,0,0,1,18.942,2.979c18.232,3.975,38.124,11.067,53.6,21.646,7.735,5.286,14.884,12.014,19.571,20.214.334.583,1.079,2.97,1.665,3.31-.01-.005-79.443-46.181-119.441-17.977C354.917,376.957,336.944,374.26,339.161,365.083Z" fill="#414042"/>
          <polygon points="533.726 464.363 544.14 502.286 539.73 590.452 535.227 570.939 533.726 594.955 529.654 585.198 515.169 611.042 518.501 562.241 513.21 459.175 533.726 464.363" fill="#414042"/>
          <path d="M457.673,417.474c-18.556-1.506-27.4-2.162-47.834-2.394s-62.073,2.76-76.739,10.326c-11.341,10.18-7.253,19.527-3.025,37.757,1,4.318,1.884,8.355,3.079,12.064,6.246-9.113,3.757-40.207,46.675-45.917l15.658-2.461s26-4.8,89.274,6.567C480.447,421.289,469.872,418.2,457.673,417.474Z" fill="#e5c5b1"/>
          <path d="M416.5,442.174c-1.978,9.757-7.934,8.1-17.72,8.1s-16.247,2.514-17.719-8.1c-1.408-10.135,5.009-18.528,17.719-18.528S418.528,432.146,416.5,442.174Z" fill="#8a6d51"/>
          <path d="M443.994,438.544c-24.668-9.1-33.026-11.665-48.793-10.977-20.116.879-41.643,19.238-41.643,19.238s17.032-28.682,55.74-22.727C409.3,424.078,425.138,425.89,443.994,438.544Z" fill="#414042"/>
          <path d="M373.269,449.26s39.588,5.161,67.651-7.336c0,0-5.942,8.611-31.843,10.764S373.269,449.26,373.269,449.26Z" fill="#414042"/>
          <path d="M297.076,687.665a13.39,13.39,0,0,0,2.834,1.277h9.333a9.249,9.249,0,0,0,2.833-1.277V667.281l-15-.543Z" fill="#f1f2f2"/>
          <path d="M312.076,687.038a13.6,13.6,0,0,0,2.834,1.238h9.333a9.387,9.387,0,0,0,2.833-1.238V667.791l-15-.51Z" fill="#f0f0f0"/>
          <path d="M327.076,686.261a10.2,10.2,0,0,0,2.281,1.18h7.514a7.045,7.045,0,0,0,2.28-1.18V668.3l-12.075-.513Z" fill="#f1f2f2"/>
          <path d="M339.151,685.506a10.459,10.459,0,0,0,2.282,1.1h7.513a7.229,7.229,0,0,0,2.281-1.1V667.949l-12.076.293Z" fill="#f0f0f0"/>
          <path d="M351.227,684.394a10.675,10.675,0,0,0,2.281,1.05h7.513a7.38,7.38,0,0,0,2.281-1.05V668.405l-12.075-.456Z" fill="#f1f2f2"/>
          <path d="M363.3,683.852a9.1,9.1,0,0,0,2.058,1.092h6.779a6.3,6.3,0,0,0,2.056-1.092s.778-8.585,0-12.66-10.893-2.787-10.893-2.787Z" fill="#f0f0f0"/>
          <path d="M406.164,438.074a7.389,7.389,0,1,1-7.389-7.389A7.388,7.388,0,0,1,406.164,438.074Z" fill="#414042"/>
          <path d="M397.423,435.035a4,4,0,1,1-4-4A4,4,0,0,1,397.423,435.035Z" fill="#fff"/>
          <path d="M409.839,415.08c-20.435-.232-62.073,2.76-76.739,10.326-11.341,10.18-7.253,19.527-3.025,37.757s6.263,31.533,39.237,35.681,59.534,5.908,84.957.3c0,0,30.95-3.808,32.057-42.954,3.4-31.6-10.906-37.665-28.653-38.718C439.117,415.968,430.273,415.312,409.839,415.08Z" fill="#ceedf5" opacity="0.5"/>
          <path d="M297.076,885.568s-26.626-3.365-41.563-9.107-23.637-11.93-53.725-44.618-57.1-60.647-76.489-87.416S88.545,698.975,82.5,669.76s-8.969-77.06-9.754-110.021c0,0-.605-11.484.947-34.242s9.932-91.088,14.271-107.969,9.426-34.46,11.837-47.35,10.612-71.168,21.436-90.34,83.136-69.472,106.255-76.63,69.582-6.95,69.582-6.95Z" fill="url(#linear-gradient-4)"/>
          <g>
            <path d="M219.9,714.532l77.176,12.338v35.7S249.493,760.175,219.9,714.532Z" fill="#c17846" opacity="0.2"/>
            <path d="M374.253,714.532,297.076,726.87v35.7S344.658,760.175,374.253,714.532Z" fill="#c17846" opacity="0.2"/>
          </g>
          <path d="M120.257,281.7c-.3.6-.594,1.235-.888,1.892-.026.058-.053.113-.078.171-.286.643-.569,1.314-.851,2.006l-.1.244c-.276.683-.549,1.392-.82,2.118l-.113.3q-.4,1.083-.8,2.228c-.039.115-.079.23-.119.347q-.391,1.143-.775,2.338l-.12.376q-.384,1.2-.759,2.447c-.039.13-.078.262-.118.392q-.376,1.258-.746,2.559l-.108.382q-.372,1.319-.738,2.675c-.031.118-.063.238-.095.357q-.37,1.385-.733,2.8c-.026.1-.05.2-.075.294q-.372,1.458-.735,2.943l-.048.2q-.375,1.541-.742,3.1l-.015.061c-.761,3.257-1.493,6.582-2.192,9.916l-.011.05q-.343,1.639-.677,3.278c-3.935,19.353-6.751,38.305-8,45-2.411,12.89-7.5,30.47-11.837,47.35S75.248,502.739,73.695,525.5s-.947,34.242-.947,34.242c.141,5.915.352,12.316.637,19l5.163,21.893L89.017,454.659l7.808-43.074L114.186,315.8c54.7-78.149,122.95-106.858,182.889-106.858,60.876,0,129.8,28.8,184.7,107.1l18.018,99.4,7.091,39.117,10.468,145.967,2.982-12.64c.511-9.995.861-19.577,1.065-28.148,0,0,.606-11.484-.947-34.242s-9.932-91.088-14.271-107.969-9.425-34.46-11.836-47.35c-1.337-7.144-4.453-28.231-8.807-48.875-.866-4.1-1.78-8.19-2.74-12.146-.013-.055-.027-.111-.04-.166q-.346-1.421-.7-2.818c-.016-.065-.033-.129-.049-.193-.238-.938-.478-1.869-.721-2.787-.006-.019-.011-.039-.016-.059q-.733-2.768-1.5-5.386l-.079-.272q-.356-1.212-.718-2.382l-.109-.352q-.359-1.154-.723-2.263c-.035-.106-.069-.209-.1-.313-.25-.756-.5-1.5-.756-2.221-.015-.04-.029-.079-.043-.119q-.378-1.067-.761-2.078c-.025-.069-.052-.14-.077-.208-.252-.661-.506-1.3-.761-1.923l-.131-.321q-.375-.9-.755-1.75c-.046-.1-.092-.2-.138-.305-.258-.564-.516-1.111-.776-1.632-.037-.071-.072-.139-.107-.209-.275-.544-.552-1.069-.83-1.562-10.824-19.172-83.136-69.472-106.255-76.63s-69.581-6.95-69.581-6.95-46.463-.208-69.582,6.95-95.431,57.458-106.255,76.63c-.314.557-.626,1.15-.936,1.771C120.288,281.64,120.272,281.668,120.257,281.7Z" fill="#231f20" opacity="0.2" style="mix-blend-mode: multiply"/>
          <path d="M109.245,503.48s36.763,42.157,80.471,40.105,64.233-41.735,64.233-41.735" fill="#dfb69c"/>
          <path d="M78.071,449l7.737-1.11,12.1,3.551,7.779,21.553h0l10.688,19.578,3.425,3.323,10.966,7.822,20.406,4.756h18.365l41.152-2.285,34.918-3.806,12.934-6.059s-5.023,8.562-12.934,12.1c0,0-97.069,29.954-137.593-6.567a67.985,67.985,0,0,1-6.512-13.416l-.222-.162c-.124-.581-.258-1.119-.387-1.675-.319-1.057-.615-2.18-.869-3.411-7.7-27.457-22.946-19.545-22.946-19.545Z" fill="#d39f7c"/>
          <path d="M255.179,420.771c-6.217-50.329-60.974-70.909-93.691-56.653,0,0-60.781,12.426-52.74,55.557,32.9-8.041,76.105-8.407,76.105-8.407l47.437,2.193Z" fill="#dfb69c"/>
          <path d="M276.408,590.942s-18.888,3.425-31.11-5.454,3.664-14.546,3.664-14.546l25.935,6.667Z" fill="#e1bba3"/>
          <path d="M240.168,586.9s31.69,31.253,56.908,31.253V591.72L266.49,575.393l-19.82.485Z" fill="#231f20" opacity="0.05" style="mix-blend-mode: multiply"/>
          <path d="M201.788,831.843c-30.088-32.689-57.1-60.647-76.489-87.416S88.545,698.975,82.5,669.76s-8.969-77.06-9.754-110.021c0,0-.605-11.484.947-34.242.263-3.845,1.32-14.974,1.32-14.974L215.2,708.536l81.881,30.406V885.568s-26.626-3.365-41.563-9.107S231.876,864.531,201.788,831.843Z" opacity="0.15" fill="url(#linear-gradient-5)" style="mix-blend-mode: multiply"/>
          <path d="M297.076,595.594s-13.5-1.8-34.917,3.609-66.783,35.406-66.783,35.406-23.195,28.137,9.752,27.069c30.28-19.069,37.133-20.4,37.133-20.4l35.433-2,19.381,2Z" fill="#414042" opacity="0.07" style="mix-blend-mode: multiply"/>
          <path d="M297.075,783.4s-25.273-7.946-30-13.243S256.6,737.048,256.6,737.048h40.473Z" fill="#414042" opacity="0.08" style="mix-blend-mode: multiply"/>
          <polygon points="219.61 680.942 297.075 685.444 297.075 714.532 230.85 714.443 215.195 699.159 219.61 680.942" fill="#414042"/>
          <path d="M246.129,577.067c-1.072,3.827,4.072,8.614,11.492,10.694s14.3.664,15.375-3.161-4.072-8.613-11.491-10.693S247.2,573.243,246.129,577.067Z" fill="#414042"/>
          <path d="M221.421,669.444c-2.273,2.939-1.27,14.408-1.27,14.408s.089,11.253,4.089,15.73l-12.372-4-5.718-12.994.913-15.847S223.693,666.506,221.421,669.444Z" fill="#d7a79f"/>
          <polygon points="297.075 653.553 246.163 653.553 213.11 664.102 212.425 669.803 297.075 666.738 297.075 653.553" fill="#d7a79f"/>
          <polygon points="242.925 707.721 243.981 706.623 255 706.623 256.602 708.533 256.602 714.532 242.925 710.577 242.925 707.721" fill="#f0f0f0"/>
          <polygon points="229.248 707.175 230.305 706.077 241.323 706.077 242.925 707.987 242.925 713.986 229.248 710.031 229.248 707.175" fill="#f0f0f0"/>
          <polygon points="252.719 685.129 261.038 710.319 297.075 715.632 297.075 681.279 252.719 685.129" fill="#654042"/>
          <polygon points="256.602 708.756 257.658 707.033 268.677 707.033 270.278 710.031 270.278 719.446 256.602 714.949 256.602 708.756" fill="#f0f0f0"/>
          <polygon points="270.278 709.633 270.852 708.068 276.826 708.068 277.694 710.791 277.694 720.818 270.278 719.345 270.278 709.633" fill="#f0f0f0"/>
          <polygon points="277.694 709.629 278.403 708.065 285.794 708.065 286.868 710.788 286.868 720.818 277.694 719.345 277.694 709.629" fill="#f0f0f0"/>
          <polygon points="286.868 710.276 287.657 708.536 295.88 708.536 297.075 711.566 297.075 722.727 286.868 722.727 286.868 710.276" fill="#f0f0f0"/>
          <g>
            <path d="M297.076,636.52l18.254-2.606s25.62-6.078,45.594,5.211,34.086,25.4,33.218,35.823-2.823,26.923-33.653,52.108-63.413,24.5-63.413,24.5v-32.1s12.174,1.954,32.149-2.822,55.147-21.494,55.8-32.784c.434-7.6-4.559-17.586-24.534-20.192s-63.413-.217-63.413-.217Z" fill="#dcb2a9"/>
            <path d="M297.076,636.52l-18.255-2.606s-25.62-6.078-45.594,5.211-34.085,25.4-33.217,35.823,2.822,26.923,33.652,52.108,63.413,24.5,63.413,24.5v-32.1s-12.174,1.954-32.148-2.822-55.148-21.494-55.8-32.784c-.434-7.6,4.559-17.586,24.534-20.192s63.414-.217,63.414-.217Z" fill="#dcb2a9"/>
          </g>
          <path d="M72.8,486.145S65.252,453.516,29.382,464c-14.349,8.829-6.071,41.939-4.967,52.425s5.518,14.3,8.829,23.153,8.935,66.889,10.485,75.075,3.312,19.315,6.071,24.833,13.8,11.589,13.8,11.589H78.982Z" fill="url(#linear-gradient-6)"/>
          <path d="M66.233,582.136l.012.192q.087,1.361.168,2.722c.036.6.432,2.212.162,2.731-1.436,2.764-4.739,1.445-6.764.159a17.715,17.715,0,0,1-2.848-3.005c-.926-1.012-1.826-2.048-2.672-3.128a30.9,30.9,0,0,1-6.152-13.532,50.163,50.163,0,0,1-.747-8.387c-.047-3.008.309-6.048.2-9.045a119.939,119.939,0,0,0-4.157-26.278c-1.5-5.639-4.854-13.435-2.532-19.266,2.017-5.064,8.483-6.319,13.16-7.538l.106.508c.191.926.359,1.857.512,2.791.278,1.708.521,3.423.764,5.137.383,2.7.756,5.4,1.142,8.1q.736,5.163,1.532,10.317.863,5.557,1.816,11.1c.614,3.584,1.255,7.162,1.892,10.742.6,3.371,1.193,6.743,1.726,10.126q.786,4.976,1.368,9.982c.394,3.454.7,6.916.963,10.383Q66.072,579.541,66.233,582.136Z" fill="#c59f81"/>
          <path d="M254.99,365.083c-.048-.2-.1-.394-.17-.6-1.248-3.814-5.04-7.793-8.193-10.063-12.5-9-24.351-12.671-38.658-11.591a137.971,137.971,0,0,0-18.943,2.979c-18.232,3.975-38.124,11.067-53.6,21.646-7.736,5.286-14.885,12.014-19.572,20.214-.334.583-1.079,2.97-1.665,3.31.01-.005,79.444-46.181,119.441-17.977C239.234,376.957,257.207,374.26,254.99,365.083Z" fill="#414042"/>
          <polygon points="60.426 464.363 50.012 502.286 54.421 590.452 58.925 570.939 60.426 594.955 64.497 585.198 78.982 611.042 75.65 562.241 80.941 459.175 60.426 464.363" fill="#414042"/>
          <path d="M136.478,417.474c18.556-1.506,27.4-2.162,47.834-2.394s62.074,2.76,76.74,10.326c11.341,10.18,7.253,19.527,3.024,37.757-1,4.318-1.884,8.355-3.079,12.064-6.246-9.113-3.757-40.207-46.675-45.917l-15.658-2.461s-26-4.8-89.273,6.567C113.7,421.289,124.279,418.2,136.478,417.474Z" fill="#e5c5b1"/>
          <path d="M177.656,442.174c1.979,9.757,7.934,8.1,17.72,8.1s16.247,2.514,17.72-8.1c1.407-10.135-5.01-18.528-17.72-18.528S175.623,432.146,177.656,442.174Z" fill="#8a6d51"/>
          <path d="M150.157,438.544c24.668-9.1,33.027-11.665,48.793-10.977,20.116.879,41.644,19.238,41.644,19.238s-17.033-28.682-55.741-22.727C184.853,424.078,169.014,425.89,150.157,438.544Z" fill="#414042"/>
          <path d="M220.882,449.26s-39.588,5.161-67.651-7.336c0,0,5.942,8.611,31.843,10.764S220.882,449.26,220.882,449.26Z" fill="#414042"/>
          <path d="M297.075,687.665a13.39,13.39,0,0,1-2.834,1.277h-9.333a9.249,9.249,0,0,1-2.833-1.277V667.281l15-.543Z" fill="#f1f2f2"/>
          <path d="M282.075,687.038a13.6,13.6,0,0,1-2.834,1.238h-9.333a9.387,9.387,0,0,1-2.833-1.238V667.791l15-.51Z" fill="#f0f0f0"/>
          <path d="M267.075,686.261a10.181,10.181,0,0,1-2.281,1.18H257.28a7.045,7.045,0,0,1-2.28-1.18V668.3l12.075-.513Z" fill="#f1f2f2"/>
          <path d="M255,685.506a10.448,10.448,0,0,1-2.281,1.1h-7.514a7.221,7.221,0,0,1-2.28-1.1V667.949l12.075.293Z" fill="#f0f0f0"/>
          <path d="M242.925,684.394a10.7,10.7,0,0,1-2.281,1.05H233.13a7.372,7.372,0,0,1-2.28-1.05V668.405l12.075-.456Z" fill="#f1f2f2"/>
          <path d="M230.85,683.852a9.108,9.108,0,0,1-2.059,1.092h-6.778a6.3,6.3,0,0,1-2.057-1.092s-.777-8.585,0-12.66,10.894-2.787,10.894-2.787Z" fill="#f0f0f0"/>
          <path d="M187.987,438.074a7.389,7.389,0,1,0,7.389-7.389A7.388,7.388,0,0,0,187.987,438.074Z" fill="#414042"/>
          <path d="M184.9,435.035a4,4,0,1,0,4-4A4,4,0,0,0,184.9,435.035Z" fill="#fff"/>
          <path d="M184.312,415.08c20.435-.232,62.074,2.76,76.74,10.326,11.341,10.18,7.253,19.527,3.024,37.757s-6.263,31.533-39.237,35.681-59.533,5.908-84.956.3c0,0-30.95-3.808-32.058-42.954-3.4-31.6,10.906-37.665,28.653-38.718C155.034,415.968,163.878,415.312,184.312,415.08Z" fill="#ceedf5" opacity="0.5"/>
          <path d="M468.852,744.427c-19.389,26.769-46.4,54.727-76.489,87.416s-38.787,38.876-53.724,44.618-41.563,9.107-41.563,9.107-26.625-3.365-41.563-9.107-23.637-11.93-53.725-44.618-57.1-60.647-76.489-87.416c-3.161-4.363-6.266-8.51-9.279-12.525v130.99c46.93,20.265,110.741,32.733,181.056,32.733S431.2,883.157,478.131,862.892V731.9C475.118,735.917,472.014,740.064,468.852,744.427Z" fill="#e6b497"/>
          <g>
            <path d="M297.076,438.073c10.426,0,12.763,7,15.052,10.788s11.712,68.44,21.948,75.025c6.031,4.186,13.07,10.425,22.482,19.181s11.256,25.183,10,32-5.371,11.17-13,12-5.809-9.32-12.142-10.181-11.481,1.753-15.169,4.242-3.6,8.835-6.171,11.758c-7.039,8-23,8-23,8" fill="#e1bba3"/>
            <path d="M297.076,438.073c-10.427,0-12.764,7-15.053,10.788s-11.712,68.44-21.948,75.025c-6.031,4.186-13.07,10.425-22.481,19.181s-11.257,25.183-10,32,5.37,11.17,13,12,5.808-9.32,12.141-10.181,11.481,1.753,15.169,4.242,3.6,8.835,6.171,11.758c7.039,8,23,8,23,8" fill="#e1bba3"/>
          </g>
          <g opacity="0.4" style="mix-blend-mode: overlay">
            <path d="M297.076,438.073c10.426,0,12.763,7,15.052,10.788s11.712,68.44,21.948,75.025c6.031,4.186,13.07,10.425,22.481,19.181s11.257,25.183,10,32-5.37,11.17-13,12-5.808-9.32-12.141-10.181-11.481,1.753-15.169,4.242-3.6,8.835-6.171,11.758c-7.039,8-23,8-23,8" fill="#414042"/>
            <path d="M297.076,438.073c-10.427,0-12.764,7-15.053,10.788s-11.712,68.44-21.948,75.025c-6.031,4.186-13.07,10.425-22.481,19.181s-11.257,25.183-10,32,5.37,11.17,13,12,5.808-9.32,12.141-10.181,11.481,1.753,15.169,4.242,3.6,8.835,6.171,11.758c7.039,8,23,8,23,8" fill="#414042"/>
          </g>
          <path d="M275.179,464.359l10.507-25.323,11.39-4,19.791,16.591c-20.587-7.3-29.928-3.447-42.461,21.037C262.159,496.588,275.179,464.359,275.179,464.359Z" fill="#231f20" opacity="0.15" style="mix-blend-mode: multiply"/>
          <g>
            <path d="M264.042,416.1c-21-4.5-59.264-9.332-89.967-9.216-27.775,1.657-44.352-.116-86.8,12.049-21.94,6.289-32.2,19.138-32.2,19.138l-17.5,23.851.231.311c10.66-1.294,18.233,1.681,23.538,5.933,0,0,26.637-17.483,35.731-6.244,3.075,3.714,5.15,16.859,9,25.462s18.5,22.407,54,23.056c30.012.549,80.166-1.5,96-11.556,0,0,16.526-13.44,23.982-42.406,0,0,3.391-15.154,17.019-15.154v-20.94S284.542,418.6,264.042,416.1Zm.034,47.061c-4.228,18.231-6.263,31.533-39.237,35.681s-59.533,5.908-84.956.3c0,0-30.95-3.808-32.058-42.954-3.4-31.6,10.906-37.665,28.653-38.718,18.556-1.506,27.4-2.162,47.834-2.394s62.074,2.76,76.74,10.326C272.393,435.586,268.305,444.933,264.076,463.163Z" fill="#594a42"/>
            <path d="M556.346,462.235l.23-.311-17.5-23.851s-10.262-12.849-32.2-19.138c-42.445-12.165-59.022-10.392-86.8-12.049-30.7-.116-68.967,4.716-89.967,9.216-20.5,2.5-33.033,4.284-33.033,4.284v20.94c13.627,0,17.019,15.154,17.019,15.154,7.456,28.966,23.981,42.406,23.981,42.406,15.834,10.056,65.988,12.1,96,11.556,35.5-.649,50.15-14.454,54-23.056s5.925-21.748,9-25.462c9.094-11.239,35.727,6.241,35.732,6.244C538.112,463.916,545.685,460.941,556.346,462.235Zm-70.02-6.043c-1.107,39.146-32.057,42.954-32.057,42.954-25.423,5.606-51.98,3.844-84.957-.3s-35.008-17.45-39.237-35.681-8.316-27.577,3.025-37.757c14.666-7.566,56.3-10.558,76.739-10.326s29.278.888,47.834,2.394C475.42,418.527,489.728,424.59,486.326,456.192Z" fill="#594a42"/>
          </g>
          <g opacity="0.05" style="mix-blend-mode: color-burn">
            <path d="M354.945,566.7c-5.075-2.688-25.291-2.607-39.084,8.145-7.367,5.742-14.225,3.7-18.785,3.7v22.338s15.961,0,23-8c2.571-2.923,2.483-9.269,6.171-11.758s8.836-5.1,15.169-4.242,4.512,11.011,12.142,10.181c6.669-.725,10.651-4.142,12.387-9.544C362.7,572.232,360.02,569.393,354.945,566.7Z" fill="#231f20"/>
            <path d="M239.206,566.7c5.075-2.688,25.291-2.607,39.084,8.145,7.367,5.742,14.226,3.7,18.785,3.7v22.338s-15.962,0-23-8c-2.571-2.923-2.482-9.269-6.171-11.758s-8.836-5.1-15.169-4.242-4.511,11.011-12.141,10.181c-6.669-.725-10.652-4.142-12.388-9.544C231.449,572.232,234.131,569.393,239.206,566.7Z" fill="#231f20"/>
          </g>
          <g>
            <path d="M48.992,445.718c-.036-.286-.081-.559-.137-.819-2.224,1.933-4.4,3.895-6.652,5.774Z" fill="#444345"/>
            <path d="M552.056,450.673c-2.248-1.879-4.428-3.841-6.652-5.774q-.084.39-.136.819Z" fill="#444345"/>
            <path d="M297.253,33.52c6.457,1.189,18.14,17.657,23.837,22.414,10.984,9.172,22.662,17.5,34.232,25.908.192-5.44-.613-10.854-1.141-16.248,4.41,4.591,7.8,10.3,11.326,15.569q3.558,5.34,7.241,10.592a8.233,8.233,0,0,0,4.99,5.472c.854-3.515,1.72-11.427,5.743-13.051,4.48-1.808,9.17,5.541,11.2,8.352,3.006,4.156,5.331,9,8.036,13.372,5.212,8.416,11.584,16.87,15.015,26.226.791,2.156,1.856,5.3.166,7.315-1.162,1.387-5.532,1.161-6.019,2.011-.508.888.7,2.327.442,3.365-.633,2.589-2.054,2.555-.8,5.822,3.211,8.375,14.78,14.615,21.993,18.488,12.925,6.941,26.864,10.6,41.095,13.668,7.3,1.575,15.887,2.128,18.563,10.331,2.623,8.042,1.066,17.643,2.261,25.97a47.589,47.589,0,0,0,7.01,19.111c-9.377-1.321-18.252-4.618-27.033-8.062-3.8-1.491-8.19-4-12.457-4.35.115,2.7,2.213,5.012,3.617,7.136,3.514,5.311,6.674,10.614,10.764,15.538,9.76,11.752,21,21.973,29.718,34.556-3.591.615-7.214-.9-10.8.308A79.008,79.008,0,0,0,504.98,299.2c3.049,4.146,7.279,7.713,10.034,12.03,1.408,2.207,1.4,2.089-.482,3.243-1.571.961-4.533,1.09-6.325,1.646-6.782,3.779,29.686,44.328,32.263,48.6-.819-1.576-5.767-1.884-7.334-2.229-4.46-.98-9.518-3.619-14.07-3.532-.248,1.689,1.263,3.377,1.8,4.883,2.523,7.075,3.009,14.368,6.372,21.212,4.5,9.147,10.534,17.44,15.351,26.415-4.155-1.681-8.4-3.1-12.607-4.647-3.588-1.322-6.877-2.8-10.7-2.914-.615,4.028,2.241,7.139,4.426,10.168,3.552,4.925,5.641,10.7,8.509,16.031a39.3,39.3,0,0,0,10.653,12.628c.858.71,1.7,1.433,2.537,2.16.451-2.084,1.654-3.176,4.725-.978,4.256,3.047,7.715,7.635,11.119,11.542q2.259,2.594,4.5,5.2l28.513,20.811-27.075-66.447H588.26L567.184,392.98l6.033-7.5-6.033-12,27.075,6.484-33-24.166h19.5l-30-24.166,16.422-18.149-22.937-22.5,6.515-39-22.462-33-6.037-31.5-12,24-9-46.5-10.462-4.5-10.733-24v15l-11.8-12-1.243-1.895a54.852,54.852,0,0,1-4.87-6.574,30.788,30.788,0,0,0-4.318-5.906,17.817,17.817,0,0,1-3.132-3.156,16.074,16.074,0,0,1-2.308-6.692L439.767,96l-19.5-30V28.5L408.472,39l-7.7-10.5V57l-19.5-33L370.534,37.5,360.27,0,333.859,31.5,297.183,0l-.054.046L297.076,0,260.4,31.5,233.988,0,223.725,37.5,212.989,24l-19.5,33V28.5l-7.7,10.5-11.8-10.5V66l-19.5,30L141.863,115.27a16.074,16.074,0,0,1-2.307,6.692,17.817,17.817,0,0,1-3.132,3.156,30.793,30.793,0,0,0-4.319,5.906,54.637,54.637,0,0,1-4.87,6.574l-1.242,1.895-11.8,12v-15l-10.732,24L93,164.992l-9,46.5-12-24-6.037,31.5-22.462,33,6.515,39-22.937,22.5L43.5,331.633,13.5,355.8H33L0,379.965l27.075-6.484-6.033,12,6.033,7.5L6,415.029H27.075L0,481.476l28.513-20.811q2.242-2.607,4.5-5.2c3.4-3.907,6.862-8.5,11.119-11.542,3.071-2.2,4.274-1.106,4.725.978.837-.727,1.679-1.45,2.537-2.16a39.3,39.3,0,0,0,10.653-12.628c2.868-5.328,4.957-11.106,8.509-16.031,2.184-3.029,5.04-6.14,4.425-10.168-3.825.117-7.115,1.592-10.7,2.914-4.2,1.548-8.451,2.966-12.606,4.647,4.816-8.975,10.854-17.268,15.35-26.415,3.364-6.844,3.85-14.137,6.373-21.212.537-1.506,2.047-3.194,1.8-4.883-4.551-.087-9.609,2.552-14.069,3.532-1.568.345-6.516.653-7.334,2.229,2.578-4.276,39.045-44.825,32.262-48.6-1.791-.556-4.753-.685-6.324-1.646-1.886-1.154-1.89-1.036-.482-3.243,2.755-4.317,6.985-7.884,10.034-12.03a79.058,79.058,0,0,0,8.728-15.868c-3.588-1.213-7.211.307-10.8-.308,8.716-12.583,19.959-22.8,29.718-34.556,4.09-4.924,7.249-10.227,10.763-15.538,1.405-2.124,3.5-4.432,3.618-7.136-4.267.347-8.658,2.859-12.457,4.35-8.782,3.444-17.657,6.741-27.034,8.062a47.559,47.559,0,0,0,7.01-19.111c1.2-8.327-.361-17.928,2.262-25.97,2.676-8.2,11.264-8.756,18.562-10.331,14.232-3.071,28.171-6.727,41.1-13.668,7.212-3.873,18.78-10.113,21.991-18.488,1.252-3.267-.169-3.233-.8-5.822-.254-1.038.95-2.477.441-3.365-.486-.85-4.856-.624-6.019-2.011-1.689-2.014-.625-5.159.166-7.315,3.432-9.356,9.8-17.81,15.016-26.226,2.7-4.367,5.029-9.216,8.035-13.372,2.034-2.811,6.725-10.16,11.2-8.352,4.024,1.624,4.889,9.536,5.743,13.051a8.228,8.228,0,0,0,4.99-5.472q3.684-5.253,7.242-10.592c3.531-5.268,6.916-10.978,11.326-15.569-.528,5.394-1.333,10.808-1.142,16.248,11.571-8.407,23.249-16.736,34.233-25.908C278.949,51.107,290.068,37.974,297.253,33.52Z" fill="#444345"/>
          </g>
        </g>
        <path d="M594.151,481.476l-27.075-66.447h21.076L567.076,392.98l6.033-7.5-6.033-12,27.075,6.484-33-24.166h19.5l-30-24.166,16.422-18.149-22.936-22.5,6.514-39-22.462-33-6.037-31.5-12,24-9-46.5-10.462-4.5-10.732-24v15l-11.8-12L439.659,96l-19.5-30V28.5L408.364,39l-7.7-10.5V57l-19.5-33L370.427,37.5,360.163,0,333.752,31.5,297.076,0V885.567h0v10.057c70.315,0,134.125-12.468,181.055-32.733V731.9c15.47-20.613,28.461-37.689,33.518-62.142,1.381-6.678,2.6-14.335,3.665-22.559l-.145,3.875h15.387s11.037-6.07,13.8-11.589,4.519-16.646,6.07-24.833,7.174-66.221,10.485-75.075,7.726-12.668,8.829-23.153,9.382-43.6-4.967-52.425a52.6,52.6,0,0,0-8.423-1.766l.23-.311-12.437-16.95h0Z" fill="#211f20" opacity="0.2" style="mix-blend-mode: overlay"/>
      </g>
    </g>
  </g>
</svg>
